solid OpenSCAD_Model
  facet normal 0 0 -1
    outer loop
      vertex -20 0 0
      vertex -19.563 4.15823 0
      vertex -19.563 -4.15823 0
    endloop
  endfacet
  facet normal 0 0 -1
    outer loop
      vertex -19.563 -4.15823 0
      vertex -19.563 4.15823 0
      vertex -18.2709 8.13473 0
    endloop
  endfacet
  facet normal 0 0 -1
    outer loop
      vertex -19.563 -4.15823 0
      vertex -18.2709 8.13473 0
      vertex -16.1803 11.7557 0
    endloop
  endfacet
  facet normal 0 0 -1
    outer loop
      vertex -19.563 -4.15823 0
      vertex -16.1803 11.7557 0
      vertex -13.3826 14.8629 0
    endloop
  endfacet
  facet normal 0 0 -1
    outer loop
      vertex -19.563 -4.15823 0
      vertex -13.3826 14.8629 0
      vertex -10 17.3205 0
    endloop
  endfacet
  facet normal 0 0 -1
    outer loop
      vertex -19.563 -4.15823 0
      vertex -10 17.3205 0
      vertex -6.18034 19.0211 0
    endloop
  endfacet
  facet normal 0 0 -1
    outer loop
      vertex -19.563 -4.15823 0
      vertex -6.18034 19.0211 0
      vertex -5 19.272 0
    endloop
  endfacet
  facet normal 0 0 -1
    outer loop
      vertex -5 19.272 0
      vertex -5 40 0
      vertex 5 40 0
    endloop
  endfacet
  facet normal 0 0 -1
    outer loop
      vertex -5 19.272 0
      vertex 5 40 0
      vertex 5 19.272 0
    endloop
  endfacet
  facet normal 0 0 -1
    outer loop
      vertex 1.25434 11.9343 0
      vertex 6.18034 19.0211 0
      vertex 10 17.3205 0
    endloop
  endfacet
  facet normal 0 0 -1
    outer loop
      vertex 3.7082 11.4127 0
      vertex 10 17.3205 0
      vertex 13.3826 14.8629 0
    endloop
  endfacet
  facet normal 0 0 -1
    outer loop
      vertex 8.02957 8.91774 0
      vertex 13.3826 14.8629 0
      vertex 16.1803 11.7557 0
    endloop
  endfacet
  facet normal 0 0 -1
    outer loop
      vertex 9.7082 7.05342 0
      vertex 16.1803 11.7557 0
      vertex 18.2709 8.13473 0
    endloop
  endfacet
  facet normal 0 0 -1
    outer loop
      vertex 10.8937 5 0
      vertex 18.2709 8.13473 0
      vertex 19.563 4.15823 0
    endloop
  endfacet
  facet normal 0 0 -1
    outer loop
      vertex -19.563 -4.15823 0
      vertex 19.563 4.15823 0
      vertex 20 0 0
    endloop
  endfacet
  facet normal 0 0 -1
    outer loop
      vertex -19.563 -4.15823 0
      vertex 20 0 0
      vertex 19.563 -4.15823 0
    endloop
  endfacet
  facet normal 0 0 -1
    outer loop
      vertex 9.7082 -7.05342 0
      vertex 19.563 -4.15823 0
      vertex 18.2709 -8.13473 0
    endloop
  endfacet
  facet normal 0 0 -1
    outer loop
      vertex 8.02957 -8.91774 0
      vertex 18.2709 -8.13473 0
      vertex 16.1803 -11.7557 0
    endloop
  endfacet
  facet normal 0 0 -1
    outer loop
      vertex 3.7082 -11.4127 0
      vertex 16.1803 -11.7557 0
      vertex 13.3826 -14.8629 0
    endloop
  endfacet
  facet normal 0 0 -1
    outer loop
      vertex -1.25434 -11.9343 0
      vertex 13.3826 -14.8629 0
      vertex 10 -17.3205 0
    endloop
  endfacet
  facet normal 0 0 -1
    outer loop
      vertex -3.7082 -11.4127 0
      vertex 10 -17.3205 0
      vertex 6.18034 -19.0211 0
    endloop
  endfacet
  facet normal 0 0 -1
    outer loop
      vertex -19.563 -4.15823 0
      vertex 6.18034 -19.0211 0
      vertex 5 -19.272 0
    endloop
  endfacet
  facet normal 0 0 -1
    outer loop
      vertex -5 -19.272 0
      vertex 5 -19.272 0
      vertex 5 -40 0
    endloop
  endfacet
  facet normal 0 0 -1
    outer loop
      vertex -19.563 -4.15823 0
      vertex 5 -19.272 0
      vertex -5 -19.272 0
    endloop
  endfacet
  facet normal 0 0 -1
    outer loop
      vertex -18.2709 -8.13473 0
      vertex -19.563 -4.15823 0
      vertex -16.1803 -11.7557 0
    endloop
  endfacet
  facet normal 0 0 -1
    outer loop
      vertex -19.563 -4.15823 0
      vertex -5 -19.272 0
      vertex -6.18034 -19.0211 0
    endloop
  endfacet
  facet normal 0 0 -1
    outer loop
      vertex -19.563 -4.15823 0
      vertex -6.18034 -19.0211 0
      vertex -10 -17.3205 0
    endloop
  endfacet
  facet normal 0 0 -1
    outer loop
      vertex 9.7082 -7.05342 0
      vertex 18.2709 -8.13473 0
      vertex 8.02957 -8.91774 0
    endloop
  endfacet
  facet normal 0 0 -1
    outer loop
      vertex -19.563 -4.15823 0
      vertex -13.3826 -14.8629 0
      vertex -16.1803 -11.7557 0
    endloop
  endfacet
  facet normal 0 0 -1
    outer loop
      vertex -3.7082 11.4127 0
      vertex 5 19.272 0
      vertex 6.18034 19.0211 0
    endloop
  endfacet
  facet normal 0 0 -1
    outer loop
      vertex -9.7082 -7.05342 0
      vertex -19.563 -4.15823 0
      vertex -10.8937 -5 0
    endloop
  endfacet
  facet normal 0 0 -1
    outer loop
      vertex -19.563 -4.15823 0
      vertex 19.563 -4.15823 0
      vertex -10.8937 -5 0
    endloop
  endfacet
  facet normal 0 0 -1
    outer loop
      vertex -8.02957 -8.91774 0
      vertex -19.563 -4.15823 0
      vertex -9.7082 -7.05342 0
    endloop
  endfacet
  facet normal 0 0 -1
    outer loop
      vertex -6 -10.3923 0
      vertex -19.563 -4.15823 0
      vertex -8.02957 -8.91774 0
    endloop
  endfacet
  facet normal 0 0 -1
    outer loop
      vertex -1.25434 -11.9343 0
      vertex 10 -17.3205 0
      vertex -3.7082 -11.4127 0
    endloop
  endfacet
  facet normal 0 0 -1
    outer loop
      vertex -19.563 -4.15823 0
      vertex -6 -10.3923 0
      vertex 6.18034 -19.0211 0
    endloop
  endfacet
  facet normal 0 0 -1
    outer loop
      vertex -6 -10.3923 0
      vertex -3.7082 -11.4127 0
      vertex 6.18034 -19.0211 0
    endloop
  endfacet
  facet normal 0 0 -1
    outer loop
      vertex 1.25434 -11.9343 0
      vertex 13.3826 -14.8629 0
      vertex -1.25434 -11.9343 0
    endloop
  endfacet
  facet normal 0 0 -1
    outer loop
      vertex 3.7082 -11.4127 0
      vertex 13.3826 -14.8629 0
      vertex 1.25434 -11.9343 0
    endloop
  endfacet
  facet normal 0 0 -1
    outer loop
      vertex 6 -10.3923 0
      vertex 16.1803 -11.7557 0
      vertex 3.7082 -11.4127 0
    endloop
  endfacet
  facet normal 0 0 -1
    outer loop
      vertex 8.02957 -8.91774 0
      vertex 16.1803 -11.7557 0
      vertex 6 -10.3923 0
    endloop
  endfacet
  facet normal 0 0 -1
    outer loop
      vertex -6 10.3923 0
      vertex 5 19.272 0
      vertex -3.7082 11.4127 0
    endloop
  endfacet
  facet normal 0 0 -1
    outer loop
      vertex 10.8937 -5 0
      vertex 19.563 -4.15823 0
      vertex 9.7082 -7.05342 0
    endloop
  endfacet
  facet normal 0 0 -1
    outer loop
      vertex 10.8937 5 0
      vertex -19.563 -4.15823 0
      vertex -10.8937 5 0
    endloop
  endfacet
  facet normal 0 0 -1
    outer loop
      vertex -10.8937 -5 0
      vertex 19.563 -4.15823 0
      vertex 10.8937 -5 0
    endloop
  endfacet
  facet normal 0 0 -1
    outer loop
      vertex -5 19.272 0
      vertex -9.7082 7.05342 0
      vertex -19.563 -4.15823 0
    endloop
  endfacet
  facet normal 0 0 -1
    outer loop
      vertex -9.7082 7.05342 0
      vertex -10.8937 5 0
      vertex -19.563 -4.15823 0
    endloop
  endfacet
  facet normal 0 0 -1
    outer loop
      vertex 3.7082 11.4127 0
      vertex 13.3826 14.8629 0
      vertex 6 10.3923 0
    endloop
  endfacet
  facet normal 0 0 -1
    outer loop
      vertex -19.563 -4.15823 0
      vertex 10.8937 5 0
      vertex 19.563 4.15823 0
    endloop
  endfacet
  facet normal 0 0 -1
    outer loop
      vertex 6 10.3923 0
      vertex 13.3826 14.8629 0
      vertex 8.02957 8.91774 0
    endloop
  endfacet
  facet normal 0 0 -1
    outer loop
      vertex -1.25434 11.9343 0
      vertex 6.18034 19.0211 0
      vertex 1.25434 11.9343 0
    endloop
  endfacet
  facet normal 0 0 -1
    outer loop
      vertex -5 19.272 0
      vertex 5 19.272 0
      vertex -6 10.3923 0
    endloop
  endfacet
  facet normal 0 0 -1
    outer loop
      vertex -5 19.272 0
      vertex -6 10.3923 0
      vertex -8.02957 8.91774 0
    endloop
  endfacet
  facet normal 0 0 -1
    outer loop
      vertex -5 19.272 0
      vertex -8.02957 8.91774 0
      vertex -9.7082 7.05342 0
    endloop
  endfacet
  facet normal 0 0 -1
    outer loop
      vertex -5 -19.272 0
      vertex 5 -40 0
      vertex -5 -40 0
    endloop
  endfacet
  facet normal 0 0 -1
    outer loop
      vertex -13.3826 -14.8629 0
      vertex -19.563 -4.15823 0
      vertex -10 -17.3205 0
    endloop
  endfacet
  facet normal 0 0 -1
    outer loop
      vertex 1.25434 11.9343 0
      vertex 10 17.3205 0
      vertex 3.7082 11.4127 0
    endloop
  endfacet
  facet normal 0 0 -1
    outer loop
      vertex -3.7082 11.4127 0
      vertex 6.18034 19.0211 0
      vertex -1.25434 11.9343 0
    endloop
  endfacet
  facet normal 0 0 -1
    outer loop
      vertex 8.02957 8.91774 0
      vertex 16.1803 11.7557 0
      vertex 9.7082 7.05342 0
    endloop
  endfacet
  facet normal 0 0 -1
    outer loop
      vertex 9.7082 7.05342 0
      vertex 18.2709 8.13473 0
      vertex 10.8937 5 0
    endloop
  endfacet
  facet normal -0.994522 0.104528 0
    outer loop
      vertex -20 0 0
      vertex -20 0 20
      vertex -19.563 4.15823 0
    endloop
  endfacet
  facet normal -0.994522 0.104528 0
    outer loop
      vertex -19.563 4.15823 0
      vertex -20 0 20
      vertex -19.563 4.15823 20
    endloop
  endfacet
  facet normal -0.994522 -0.104528 0
    outer loop
      vertex -20 0 0
      vertex -19.563 -4.15823 0
      vertex -20 0 20
    endloop
  endfacet
  facet normal -0.994522 -0.104528 0
    outer loop
      vertex -20 0 20
      vertex -19.563 -4.15823 0
      vertex -19.563 -4.15823 20
    endloop
  endfacet
  facet normal -0.951057 -0.309017 0
    outer loop
      vertex -19.563 -4.15823 0
      vertex -18.2709 -8.13473 0
      vertex -19.563 -4.15823 20
    endloop
  endfacet
  facet normal -0.951057 -0.309017 0
    outer loop
      vertex -19.563 -4.15823 20
      vertex -18.2709 -8.13473 0
      vertex -18.2709 -8.13473 20
    endloop
  endfacet
  facet normal -0.866025 -0.5 0
    outer loop
      vertex -18.2709 -8.13473 0
      vertex -16.1803 -11.7557 0
      vertex -18.2709 -8.13473 20
    endloop
  endfacet
  facet normal -0.866025 -0.5 0
    outer loop
      vertex -18.2709 -8.13473 20
      vertex -16.1803 -11.7557 0
      vertex -16.1803 -11.7557 20
    endloop
  endfacet
  facet normal -0.743145 -0.669131 0
    outer loop
      vertex -16.1803 -11.7557 0
      vertex -13.3826 -14.8629 0
      vertex -16.1803 -11.7557 20
    endloop
  endfacet
  facet normal -0.743145 -0.669131 0
    outer loop
      vertex -16.1803 -11.7557 20
      vertex -13.3826 -14.8629 0
      vertex -13.3826 -14.8629 20
    endloop
  endfacet
  facet normal -0.587785 -0.809017 0
    outer loop
      vertex -13.3826 -14.8629 20
      vertex -13.3826 -14.8629 0
      vertex -10 -17.3205 0
    endloop
  endfacet
  facet normal -0.587785 -0.809017 0
    outer loop
      vertex -10 -17.3205 20
      vertex -13.3826 -14.8629 20
      vertex -10 -17.3205 0
    endloop
  endfacet
  facet normal -0.406737 -0.913545 0
    outer loop
      vertex -10 -17.3205 20
      vertex -10 -17.3205 0
      vertex -6.18034 -19.0211 0
    endloop
  endfacet
  facet normal -0.406737 -0.913545 0
    outer loop
      vertex -6.18034 -19.0211 20
      vertex -10 -17.3205 20
      vertex -6.18034 -19.0211 0
    endloop
  endfacet
  facet normal -0.207912 -0.978148 0
    outer loop
      vertex -6.18034 -19.0211 20
      vertex -6.18034 -19.0211 0
      vertex -5 -19.272 0
    endloop
  endfacet
  facet normal -0.207912 -0.978148 0
    outer loop
      vertex -5 -19.272 20
      vertex -6.18034 -19.0211 20
      vertex -5 -19.272 0
    endloop
  endfacet
  facet normal -1 0 0
    outer loop
      vertex -5 -40 0
      vertex -5 -40 20
      vertex -5 -19.272 0
    endloop
  endfacet
  facet normal -1 0 0
    outer loop
      vertex -5 -19.272 0
      vertex -5 -40 20
      vertex -5 -19.272 20
    endloop
  endfacet
  facet normal 0 -1 0
    outer loop
      vertex -5 -40 20
      vertex -5 -40 0
      vertex 5 -40 0
    endloop
  endfacet
  facet normal 0 -1 0
    outer loop
      vertex 5 -40 20
      vertex -5 -40 20
      vertex 5 -40 0
    endloop
  endfacet
  facet normal 1 0 0
    outer loop
      vertex 5 -40 20
      vertex 5 -40 0
      vertex 5 -19.272 0
    endloop
  endfacet
  facet normal 1 0 0
    outer loop
      vertex 5 -19.272 20
      vertex 5 -40 20
      vertex 5 -19.272 0
    endloop
  endfacet
  facet normal 0.207912 -0.978148 0
    outer loop
      vertex 5 -19.272 20
      vertex 5 -19.272 0
      vertex 6.18034 -19.0211 0
    endloop
  endfacet
  facet normal 0.207912 -0.978148 0
    outer loop
      vertex 6.18034 -19.0211 20
      vertex 5 -19.272 20
      vertex 6.18034 -19.0211 0
    endloop
  endfacet
  facet normal 0.406737 -0.913545 0
    outer loop
      vertex 6.18034 -19.0211 20
      vertex 6.18034 -19.0211 0
      vertex 10 -17.3205 0
    endloop
  endfacet
  facet normal 0.406737 -0.913545 0
    outer loop
      vertex 10 -17.3205 20
      vertex 6.18034 -19.0211 20
      vertex 10 -17.3205 0
    endloop
  endfacet
  facet normal 0.587785 -0.809017 0
    outer loop
      vertex 10 -17.3205 20
      vertex 10 -17.3205 0
      vertex 13.3826 -14.8629 0
    endloop
  endfacet
  facet normal 0.587785 -0.809017 0
    outer loop
      vertex 13.3826 -14.8629 20
      vertex 10 -17.3205 20
      vertex 13.3826 -14.8629 0
    endloop
  endfacet
  facet normal 0.743145 -0.669131 0
    outer loop
      vertex 13.3826 -14.8629 20
      vertex 13.3826 -14.8629 0
      vertex 16.1803 -11.7557 0
    endloop
  endfacet
  facet normal 0.743145 -0.669131 0
    outer loop
      vertex 16.1803 -11.7557 20
      vertex 13.3826 -14.8629 20
      vertex 16.1803 -11.7557 0
    endloop
  endfacet
  facet normal 0.866025 -0.5 0
    outer loop
      vertex 16.1803 -11.7557 20
      vertex 16.1803 -11.7557 0
      vertex 18.2709 -8.13473 0
    endloop
  endfacet
  facet normal 0.866025 -0.5 0
    outer loop
      vertex 18.2709 -8.13473 20
      vertex 16.1803 -11.7557 20
      vertex 18.2709 -8.13473 0
    endloop
  endfacet
  facet normal 0.951057 -0.309017 0
    outer loop
      vertex 18.2709 -8.13473 20
      vertex 18.2709 -8.13473 0
      vertex 19.563 -4.15823 0
    endloop
  endfacet
  facet normal 0.951057 -0.309017 0
    outer loop
      vertex 19.563 -4.15823 20
      vertex 18.2709 -8.13473 20
      vertex 19.563 -4.15823 0
    endloop
  endfacet
  facet normal 0.994522 -0.104528 0
    outer loop
      vertex 19.563 -4.15823 20
      vertex 19.563 -4.15823 0
      vertex 20 0 0
    endloop
  endfacet
  facet normal 0.994522 -0.104528 0
    outer loop
      vertex 20 0 20
      vertex 19.563 -4.15823 20
      vertex 20 0 0
    endloop
  endfacet
  facet normal 0.994522 0.104528 0
    outer loop
      vertex 20 0 0
      vertex 19.563 4.15823 0
      vertex 19.563 4.15823 20
    endloop
  endfacet
  facet normal 0.994522 0.104528 0
    outer loop
      vertex 20 0 20
      vertex 20 0 0
      vertex 19.563 4.15823 20
    endloop
  endfacet
  facet normal 0.951057 0.309017 0
    outer loop
      vertex 19.563 4.15823 0
      vertex 18.2709 8.13473 0
      vertex 18.2709 8.13473 20
    endloop
  endfacet
  facet normal 0.951057 0.309017 0
    outer loop
      vertex 19.563 4.15823 20
      vertex 19.563 4.15823 0
      vertex 18.2709 8.13473 20
    endloop
  endfacet
  facet normal 0.866025 0.5 0
    outer loop
      vertex 18.2709 8.13473 0
      vertex 16.1803 11.7557 0
      vertex 16.1803 11.7557 20
    endloop
  endfacet
  facet normal 0.866025 0.5 0
    outer loop
      vertex 18.2709 8.13473 20
      vertex 18.2709 8.13473 0
      vertex 16.1803 11.7557 20
    endloop
  endfacet
  facet normal 0.743145 0.669131 0
    outer loop
      vertex 16.1803 11.7557 0
      vertex 13.3826 14.8629 0
      vertex 13.3826 14.8629 20
    endloop
  endfacet
  facet normal 0.743145 0.669131 0
    outer loop
      vertex 16.1803 11.7557 20
      vertex 16.1803 11.7557 0
      vertex 13.3826 14.8629 20
    endloop
  endfacet
  facet normal 0.587785 0.809017 0
    outer loop
      vertex 10 17.3205 0
      vertex 10 17.3205 20
      vertex 13.3826 14.8629 0
    endloop
  endfacet
  facet normal 0.587785 0.809017 0
    outer loop
      vertex 13.3826 14.8629 0
      vertex 10 17.3205 20
      vertex 13.3826 14.8629 20
    endloop
  endfacet
  facet normal 0.406737 0.913545 0
    outer loop
      vertex 6.18034 19.0211 0
      vertex 6.18034 19.0211 20
      vertex 10 17.3205 0
    endloop
  endfacet
  facet normal 0.406737 0.913545 0
    outer loop
      vertex 10 17.3205 0
      vertex 6.18034 19.0211 20
      vertex 10 17.3205 20
    endloop
  endfacet
  facet normal 0.207912 0.978148 0
    outer loop
      vertex 5 19.272 0
      vertex 5 19.272 20
      vertex 6.18034 19.0211 0
    endloop
  endfacet
  facet normal 0.207912 0.978148 0
    outer loop
      vertex 6.18034 19.0211 0
      vertex 5 19.272 20
      vertex 6.18034 19.0211 20
    endloop
  endfacet
  facet normal 1 0 0
    outer loop
      vertex 5 19.272 20
      vertex 5 19.272 0
      vertex 5 40 0
    endloop
  endfacet
  facet normal 1 0 0
    outer loop
      vertex 5 40 20
      vertex 5 19.272 20
      vertex 5 40 0
    endloop
  endfacet
  facet normal 0 1 0
    outer loop
      vertex -5 40 0
      vertex -5 40 20
      vertex 5 40 0
    endloop
  endfacet
  facet normal 0 1 0
    outer loop
      vertex 5 40 0
      vertex -5 40 20
      vertex 5 40 20
    endloop
  endfacet
  facet normal -1 0 0
    outer loop
      vertex -5 19.272 0
      vertex -5 19.272 20
      vertex -5 40 0
    endloop
  endfacet
  facet normal -1 0 0
    outer loop
      vertex -5 40 0
      vertex -5 19.272 20
      vertex -5 40 20
    endloop
  endfacet
  facet normal -0.207912 0.978148 0
    outer loop
      vertex -6.18034 19.0211 0
      vertex -6.18034 19.0211 20
      vertex -5 19.272 0
    endloop
  endfacet
  facet normal -0.207912 0.978148 0
    outer loop
      vertex -5 19.272 0
      vertex -6.18034 19.0211 20
      vertex -5 19.272 20
    endloop
  endfacet
  facet normal -0.406737 0.913545 0
    outer loop
      vertex -10 17.3205 0
      vertex -10 17.3205 20
      vertex -6.18034 19.0211 0
    endloop
  endfacet
  facet normal -0.406737 0.913545 0
    outer loop
      vertex -6.18034 19.0211 0
      vertex -10 17.3205 20
      vertex -6.18034 19.0211 20
    endloop
  endfacet
  facet normal -0.587785 0.809017 0
    outer loop
      vertex -13.3826 14.8629 0
      vertex -13.3826 14.8629 20
      vertex -10 17.3205 0
    endloop
  endfacet
  facet normal -0.587785 0.809017 0
    outer loop
      vertex -10 17.3205 0
      vertex -13.3826 14.8629 20
      vertex -10 17.3205 20
    endloop
  endfacet
  facet normal -0.743145 0.669131 0
    outer loop
      vertex -16.1803 11.7557 0
      vertex -16.1803 11.7557 20
      vertex -13.3826 14.8629 0
    endloop
  endfacet
  facet normal -0.743145 0.669131 0
    outer loop
      vertex -13.3826 14.8629 0
      vertex -16.1803 11.7557 20
      vertex -13.3826 14.8629 20
    endloop
  endfacet
  facet normal -0.866025 0.5 0
    outer loop
      vertex -18.2709 8.13473 0
      vertex -18.2709 8.13473 20
      vertex -16.1803 11.7557 0
    endloop
  endfacet
  facet normal -0.866025 0.5 0
    outer loop
      vertex -16.1803 11.7557 0
      vertex -18.2709 8.13473 20
      vertex -16.1803 11.7557 20
    endloop
  endfacet
  facet normal -0.951057 0.309017 0
    outer loop
      vertex -19.563 4.15823 0
      vertex -19.563 4.15823 20
      vertex -18.2709 8.13473 0
    endloop
  endfacet
  facet normal -0.951057 0.309017 0
    outer loop
      vertex -18.2709 8.13473 0
      vertex -19.563 4.15823 20
      vertex -18.2709 8.13473 20
    endloop
  endfacet
  facet normal 0.866025 0.5 0
    outer loop
      vertex -10.9625 -4.88084 40
      vertex -9.7082 -7.05342 40
      vertex -9.7082 -7.05342 0
    endloop
  endfacet
  facet normal 0.866025 0.5 0
    outer loop
      vertex -10.8937 -5 20
      vertex -10.9625 -4.88084 40
      vertex -9.7082 -7.05342 0
    endloop
  endfacet
  facet normal 0.866025 0.5 0
    outer loop
      vertex -10.8937 -5 0
      vertex -10.8937 -5 20
      vertex -9.7082 -7.05342 0
    endloop
  endfacet
  facet normal 0.866025 0.5 0
    outer loop
      vertex -10.8937 -5 20
      vertex -10.9625 -4.88084 20
      vertex -10.9625 -4.88084 40
    endloop
  endfacet
  facet normal 0 -1 0
    outer loop
      vertex -10.8937 -5 20
      vertex -10.8937 -5 0
      vertex 10.8937 -5 0
    endloop
  endfacet
  facet normal 0 -1 0
    outer loop
      vertex 10.8937 -5 20
      vertex -10.8937 -5 20
      vertex 10.8937 -5 0
    endloop
  endfacet
  facet normal -0.866025 0.5 0
    outer loop
      vertex 10.9625 -4.88084 40
      vertex 10.9625 -4.88084 20
      vertex 9.7082 -7.05342 40
    endloop
  endfacet
  facet normal -0.866025 0.5 0
    outer loop
      vertex 9.7082 -7.05342 40
      vertex 10.9625 -4.88084 20
      vertex 10.8937 -5 20
    endloop
  endfacet
  facet normal -0.866025 0.5 0
    outer loop
      vertex 9.7082 -7.05342 40
      vertex 10.8937 -5 20
      vertex 10.8937 -5 0
    endloop
  endfacet
  facet normal -0.866025 0.5 0
    outer loop
      vertex 9.7082 -7.05342 40
      vertex 10.8937 -5 0
      vertex 9.7082 -7.05342 0
    endloop
  endfacet
  facet normal -0.743145 0.669131 0
    outer loop
      vertex 9.7082 -7.05342 40
      vertex 9.7082 -7.05342 0
      vertex 8.02957 -8.91774 40
    endloop
  endfacet
  facet normal -0.743145 0.669131 0
    outer loop
      vertex 8.02957 -8.91774 40
      vertex 9.7082 -7.05342 0
      vertex 8.02957 -8.91774 0
    endloop
  endfacet
  facet normal -0.587785 0.809017 0
    outer loop
      vertex 8.02957 -8.91774 40
      vertex 8.02957 -8.91774 0
      vertex 6 -10.3923 40
    endloop
  endfacet
  facet normal -0.587785 0.809017 0
    outer loop
      vertex 6 -10.3923 40
      vertex 8.02957 -8.91774 0
      vertex 6 -10.3923 0
    endloop
  endfacet
  facet normal -0.406737 0.913546 0
    outer loop
      vertex 6 -10.3923 40
      vertex 6 -10.3923 0
      vertex 3.7082 -11.4127 40
    endloop
  endfacet
  facet normal -0.406737 0.913546 0
    outer loop
      vertex 3.7082 -11.4127 40
      vertex 6 -10.3923 0
      vertex 3.7082 -11.4127 0
    endloop
  endfacet
  facet normal -0.207912 0.978148 0
    outer loop
      vertex 3.7082 -11.4127 40
      vertex 3.7082 -11.4127 0
      vertex 1.25434 -11.9343 40
    endloop
  endfacet
  facet normal -0.207912 0.978148 0
    outer loop
      vertex 1.25434 -11.9343 40
      vertex 3.7082 -11.4127 0
      vertex 1.25434 -11.9343 0
    endloop
  endfacet
  facet normal 0 1 0
    outer loop
      vertex 1.25434 -11.9343 40
      vertex 1.25434 -11.9343 0
      vertex -1.25434 -11.9343 40
    endloop
  endfacet
  facet normal 0 1 0
    outer loop
      vertex -1.25434 -11.9343 40
      vertex 1.25434 -11.9343 0
      vertex -1.25434 -11.9343 0
    endloop
  endfacet
  facet normal 0.207912 0.978148 0
    outer loop
      vertex -1.25434 -11.9343 40
      vertex -1.25434 -11.9343 0
      vertex -3.7082 -11.4127 40
    endloop
  endfacet
  facet normal 0.207912 0.978148 0
    outer loop
      vertex -3.7082 -11.4127 40
      vertex -1.25434 -11.9343 0
      vertex -3.7082 -11.4127 0
    endloop
  endfacet
  facet normal 0.406737 0.913546 0
    outer loop
      vertex -3.7082 -11.4127 40
      vertex -3.7082 -11.4127 0
      vertex -6 -10.3923 40
    endloop
  endfacet
  facet normal 0.406737 0.913546 0
    outer loop
      vertex -6 -10.3923 40
      vertex -3.7082 -11.4127 0
      vertex -6 -10.3923 0
    endloop
  endfacet
  facet normal 0.587785 0.809017 0
    outer loop
      vertex -6 -10.3923 40
      vertex -6 -10.3923 0
      vertex -8.02957 -8.91774 40
    endloop
  endfacet
  facet normal 0.587785 0.809017 0
    outer loop
      vertex -8.02957 -8.91774 40
      vertex -6 -10.3923 0
      vertex -8.02957 -8.91774 0
    endloop
  endfacet
  facet normal 0.743145 0.669131 0
    outer loop
      vertex -9.7082 -7.05342 40
      vertex -8.02957 -8.91774 40
      vertex -8.02957 -8.91774 0
    endloop
  endfacet
  facet normal 0.743145 0.669131 0
    outer loop
      vertex -9.7082 -7.05342 0
      vertex -9.7082 -7.05342 40
      vertex -8.02957 -8.91774 0
    endloop
  endfacet
  facet normal 0.866025 -0.5 0
    outer loop
      vertex -10.8937 5 20
      vertex -10.8937 5 0
      vertex -9.7082 7.05342 0
    endloop
  endfacet
  facet normal 0.866025 -0.5 0
    outer loop
      vertex -10.9625 4.88084 40
      vertex -10.8937 5 20
      vertex -9.7082 7.05342 40
    endloop
  endfacet
  facet normal 0.866025 -0.5 0
    outer loop
      vertex -9.7082 7.05342 40
      vertex -10.8937 5 20
      vertex -9.7082 7.05342 0
    endloop
  endfacet
  facet normal 0.866025 -0.5 0
    outer loop
      vertex -10.9625 4.88084 20
      vertex -10.8937 5 20
      vertex -10.9625 4.88084 40
    endloop
  endfacet
  facet normal 0.743145 -0.669131 0
    outer loop
      vertex -8.02957 8.91774 0
      vertex -8.02957 8.91774 40
      vertex -9.7082 7.05342 40
    endloop
  endfacet
  facet normal 0.743145 -0.669131 0
    outer loop
      vertex -9.7082 7.05342 0
      vertex -8.02957 8.91774 0
      vertex -9.7082 7.05342 40
    endloop
  endfacet
  facet normal 0.587785 -0.809017 0
    outer loop
      vertex -6 10.3923 0
      vertex -6 10.3923 40
      vertex -8.02957 8.91774 40
    endloop
  endfacet
  facet normal 0.587785 -0.809017 0
    outer loop
      vertex -8.02957 8.91774 0
      vertex -6 10.3923 0
      vertex -8.02957 8.91774 40
    endloop
  endfacet
  facet normal 0.406737 -0.913546 0
    outer loop
      vertex -3.7082 11.4127 0
      vertex -3.7082 11.4127 40
      vertex -6 10.3923 40
    endloop
  endfacet
  facet normal 0.406737 -0.913546 0
    outer loop
      vertex -6 10.3923 0
      vertex -3.7082 11.4127 0
      vertex -6 10.3923 40
    endloop
  endfacet
  facet normal 0.207912 -0.978148 0
    outer loop
      vertex -1.25434 11.9343 0
      vertex -1.25434 11.9343 40
      vertex -3.7082 11.4127 40
    endloop
  endfacet
  facet normal 0.207912 -0.978148 0
    outer loop
      vertex -3.7082 11.4127 0
      vertex -1.25434 11.9343 0
      vertex -3.7082 11.4127 40
    endloop
  endfacet
  facet normal 0 -1 0
    outer loop
      vertex 1.25434 11.9343 0
      vertex 1.25434 11.9343 40
      vertex -1.25434 11.9343 40
    endloop
  endfacet
  facet normal 0 -1 0
    outer loop
      vertex -1.25434 11.9343 0
      vertex 1.25434 11.9343 0
      vertex -1.25434 11.9343 40
    endloop
  endfacet
  facet normal -0.207912 -0.978148 0
    outer loop
      vertex 3.7082 11.4127 0
      vertex 3.7082 11.4127 40
      vertex 1.25434 11.9343 40
    endloop
  endfacet
  facet normal -0.207912 -0.978148 0
    outer loop
      vertex 1.25434 11.9343 0
      vertex 3.7082 11.4127 0
      vertex 1.25434 11.9343 40
    endloop
  endfacet
  facet normal -0.406737 -0.913546 0
    outer loop
      vertex 6 10.3923 0
      vertex 6 10.3923 40
      vertex 3.7082 11.4127 40
    endloop
  endfacet
  facet normal -0.406737 -0.913546 0
    outer loop
      vertex 3.7082 11.4127 0
      vertex 6 10.3923 0
      vertex 3.7082 11.4127 40
    endloop
  endfacet
  facet normal -0.587785 -0.809017 0
    outer loop
      vertex 8.02957 8.91774 0
      vertex 8.02957 8.91774 40
      vertex 6 10.3923 40
    endloop
  endfacet
  facet normal -0.587785 -0.809017 0
    outer loop
      vertex 6 10.3923 0
      vertex 8.02957 8.91774 0
      vertex 6 10.3923 40
    endloop
  endfacet
  facet normal -0.743145 -0.669131 0
    outer loop
      vertex 9.7082 7.05342 40
      vertex 8.02957 8.91774 40
      vertex 9.7082 7.05342 0
    endloop
  endfacet
  facet normal -0.743145 -0.669131 0
    outer loop
      vertex 9.7082 7.05342 0
      vertex 8.02957 8.91774 40
      vertex 8.02957 8.91774 0
    endloop
  endfacet
  facet normal -0.866025 -0.5 0
    outer loop
      vertex 10.8937 5 20
      vertex 10.9625 4.88084 20
      vertex 10.9625 4.88084 40
    endloop
  endfacet
  facet normal -0.866025 -0.5 0
    outer loop
      vertex 10.8937 5 20
      vertex 10.9625 4.88084 40
      vertex 9.7082 7.05342 40
    endloop
  endfacet
  facet normal -0.866025 -0.5 0
    outer loop
      vertex 10.8937 5 20
      vertex 9.7082 7.05342 40
      vertex 10.8937 5 0
    endloop
  endfacet
  facet normal -0.866025 -0.5 0
    outer loop
      vertex 9.7082 7.05342 40
      vertex 9.7082 7.05342 0
      vertex 10.8937 5 0
    endloop
  endfacet
  facet normal 0 1 0
    outer loop
      vertex -10.8937 5 0
      vertex -10.8937 5 20
      vertex 10.8937 5 0
    endloop
  endfacet
  facet normal 0 1 0
    outer loop
      vertex 10.8937 5 0
      vertex -10.8937 5 20
      vertex 10.8937 5 20
    endloop
  endfacet
  facet normal 0 0 1
    outer loop
      vertex -19.563 4.15823 20
      vertex -20 0 20
      vertex -19.563 -4.15823 20
    endloop
  endfacet
  facet normal 0 0 1
    outer loop
      vertex -16.1803 -11.7557 20
      vertex -19.563 4.15823 20
      vertex -18.2709 -8.13473 20
    endloop
  endfacet
  facet normal 0 0 1
    outer loop
      vertex -18.2709 -8.13473 20
      vertex -19.563 4.15823 20
      vertex -19.563 -4.15823 20
    endloop
  endfacet
  facet normal 0 0 1
    outer loop
      vertex -13.3826 -14.8629 20
      vertex -19.563 4.15823 20
      vertex -16.1803 -11.7557 20
    endloop
  endfacet
  facet normal 0 0 1
    outer loop
      vertex -10 -17.3205 20
      vertex -19.563 4.15823 20
      vertex -13.3826 -14.8629 20
    endloop
  endfacet
  facet normal 0 0 1
    outer loop
      vertex -14.6167 -6.50779 20
      vertex -19.563 4.15823 20
      vertex -10 -17.3205 20
    endloop
  endfacet
  facet normal 0 0 1
    outer loop
      vertex 10.7061 -11.8903 20
      vertex 8 -13.8564 20
      vertex 13.3826 -14.8629 20
    endloop
  endfacet
  facet normal 0 0 1
    outer loop
      vertex 5 -40 20
      vertex -5 -19.272 20
      vertex -5 -40 20
    endloop
  endfacet
  facet normal 0 0 1
    outer loop
      vertex 5 -19.272 20
      vertex -5 -19.272 20
      vertex 5 -40 20
    endloop
  endfacet
  facet normal 0 0 1
    outer loop
      vertex -14.6167 6.50779 20
      vertex -12.9443 9.40456 20
      vertex -19.563 4.15823 20
    endloop
  endfacet
  facet normal 0 0 1
    outer loop
      vertex -8 -13.8564 20
      vertex -6.18034 -19.0211 20
      vertex -5 -19.272 20
    endloop
  endfacet
  facet normal 0 0 1
    outer loop
      vertex 8 -13.8564 20
      vertex 4.94427 -15.2169 20
      vertex 10 -17.3205 20
    endloop
  endfacet
  facet normal 0 0 1
    outer loop
      vertex 5 40 20
      vertex -5 19.272 20
      vertex 5 19.272 20
    endloop
  endfacet
  facet normal 0 0 1
    outer loop
      vertex -6.18034 19.0211 20
      vertex -19.563 4.15823 20
      vertex -5 19.272 20
    endloop
  endfacet
  facet normal 0 0 1
    outer loop
      vertex -10 17.3205 20
      vertex -19.563 4.15823 20
      vertex -6.18034 19.0211 20
    endloop
  endfacet
  facet normal 0 0 1
    outer loop
      vertex -16.1803 11.7557 20
      vertex -18.2709 8.13473 20
      vertex -19.563 4.15823 20
    endloop
  endfacet
  facet normal 0 0 1
    outer loop
      vertex -15.6504 -3.32659 20
      vertex -16 0 20
      vertex -19.563 4.15823 20
    endloop
  endfacet
  facet normal 0 0 1
    outer loop
      vertex -16.1803 11.7557 20
      vertex -19.563 4.15823 20
      vertex -13.3826 14.8629 20
    endloop
  endfacet
  facet normal 0 0 1
    outer loop
      vertex -12.9443 -9.40456 20
      vertex -14.6167 -6.50779 20
      vertex -10 -17.3205 20
    endloop
  endfacet
  facet normal 0 0 1
    outer loop
      vertex 12.9443 -9.40456 20
      vertex 10.7061 -11.8903 20
      vertex 16.1803 -11.7557 20
    endloop
  endfacet
  facet normal 0 0 1
    outer loop
      vertex 8 13.8564 20
      vertex 10.7061 11.8903 20
      vertex 13.3826 14.8629 20
    endloop
  endfacet
  facet normal 0 0 1
    outer loop
      vertex -4.94427 15.2169 20
      vertex -1.67246 15.9123 20
      vertex 5 19.272 20
    endloop
  endfacet
  facet normal 0 0 1
    outer loop
      vertex -8 -13.8564 20
      vertex -10.7061 -11.8903 20
      vertex -6.18034 -19.0211 20
    endloop
  endfacet
  facet normal 0 0 1
    outer loop
      vertex -5 19.272 20
      vertex -19.563 4.15823 20
      vertex -12.9443 9.40456 20
    endloop
  endfacet
  facet normal 0 0 1
    outer loop
      vertex -5 19.272 20
      vertex -12.9443 9.40456 20
      vertex -10.7061 11.8903 20
    endloop
  endfacet
  facet normal 0 0 1
    outer loop
      vertex -1.67246 15.9123 20
      vertex 6.18034 19.0211 20
      vertex 5 19.272 20
    endloop
  endfacet
  facet normal 0 0 1
    outer loop
      vertex -5 19.272 20
      vertex -10.7061 11.8903 20
      vertex -8 13.8564 20
    endloop
  endfacet
  facet normal 0 0 1
    outer loop
      vertex -5 19.272 20
      vertex -4.94427 15.2169 20
      vertex 5 19.272 20
    endloop
  endfacet
  facet normal 0 0 1
    outer loop
      vertex -5 19.272 20
      vertex -8 13.8564 20
      vertex -4.94427 15.2169 20
    endloop
  endfacet
  facet normal 0 0 1
    outer loop
      vertex 6.18034 19.0211 20
      vertex 1.67246 15.9123 20
      vertex 10 17.3205 20
    endloop
  endfacet
  facet normal 0 0 1
    outer loop
      vertex 1.67246 15.9123 20
      vertex 4.94427 15.2169 20
      vertex 10 17.3205 20
    endloop
  endfacet
  facet normal 0 0 1
    outer loop
      vertex 10 17.3205 20
      vertex 8 13.8564 20
      vertex 13.3826 14.8629 20
    endloop
  endfacet
  facet normal 0 0 1
    outer loop
      vertex 4.94427 15.2169 20
      vertex 8 13.8564 20
      vertex 10 17.3205 20
    endloop
  endfacet
  facet normal 0 0 1
    outer loop
      vertex 13.3826 14.8629 20
      vertex 10.7061 11.8903 20
      vertex 16.1803 11.7557 20
    endloop
  endfacet
  facet normal 0 0 1
    outer loop
      vertex -1.67246 15.9123 20
      vertex 1.67246 15.9123 20
      vertex 6.18034 19.0211 20
    endloop
  endfacet
  facet normal 0 0 1
    outer loop
      vertex 16.1803 11.7557 20
      vertex 12.9443 9.40456 20
      vertex 18.2709 8.13473 20
    endloop
  endfacet
  facet normal 0 0 1
    outer loop
      vertex 18.2709 8.13473 20
      vertex 14.6167 6.50779 20
      vertex 19.563 4.15823 20
    endloop
  endfacet
  facet normal 0 0 1
    outer loop
      vertex 19.563 4.15823 20
      vertex 15.6504 3.32659 20
      vertex 20 0 20
    endloop
  endfacet
  facet normal 0 0 1
    outer loop
      vertex 20 0 20
      vertex 16 0 20
      vertex 19.563 -4.15823 20
    endloop
  endfacet
  facet normal 0 0 1
    outer loop
      vertex 16 0 20
      vertex 15.6504 -3.32659 20
      vertex 19.563 -4.15823 20
    endloop
  endfacet
  facet normal 0 0 1
    outer loop
      vertex 19.563 -4.15823 20
      vertex 14.6167 -6.50779 20
      vertex 18.2709 -8.13473 20
    endloop
  endfacet
  facet normal 0 0 1
    outer loop
      vertex 18.2709 -8.13473 20
      vertex 12.9443 -9.40456 20
      vertex 16.1803 -11.7557 20
    endloop
  endfacet
  facet normal 0 0 1
    outer loop
      vertex 10.7061 11.8903 20
      vertex 12.9443 9.40456 20
      vertex 16.1803 11.7557 20
    endloop
  endfacet
  facet normal 0 0 1
    outer loop
      vertex 16.1803 -11.7557 20
      vertex 10.7061 -11.8903 20
      vertex 13.3826 -14.8629 20
    endloop
  endfacet
  facet normal 0 0 1
    outer loop
      vertex 12.9443 9.40456 20
      vertex 14.6167 6.50779 20
      vertex 18.2709 8.13473 20
    endloop
  endfacet
  facet normal 0 0 1
    outer loop
      vertex 13.3826 -14.8629 20
      vertex 8 -13.8564 20
      vertex 10 -17.3205 20
    endloop
  endfacet
  facet normal 0 0 1
    outer loop
      vertex 14.6167 6.50779 20
      vertex 15.6504 3.32659 20
      vertex 19.563 4.15823 20
    endloop
  endfacet
  facet normal 0 0 1
    outer loop
      vertex 10 -17.3205 20
      vertex 4.94427 -15.2169 20
      vertex 6.18034 -19.0211 20
    endloop
  endfacet
  facet normal 0 0 1
    outer loop
      vertex 15.6504 3.32659 20
      vertex 16 0 20
      vertex 20 0 20
    endloop
  endfacet
  facet normal 0 0 1
    outer loop
      vertex 6.18034 -19.0211 20
      vertex 1.67246 -15.9123 20
      vertex 5 -19.272 20
    endloop
  endfacet
  facet normal 0 0 1
    outer loop
      vertex 15.6504 -3.32659 20
      vertex 14.6167 -6.50779 20
      vertex 19.563 -4.15823 20
    endloop
  endfacet
  facet normal 0 0 1
    outer loop
      vertex 5 -19.272 20
      vertex -1.67246 -15.9123 20
      vertex -5 -19.272 20
    endloop
  endfacet
  facet normal 0 0 1
    outer loop
      vertex -1.67246 -15.9123 20
      vertex -4.94427 -15.2169 20
      vertex -5 -19.272 20
    endloop
  endfacet
  facet normal 0 0 1
    outer loop
      vertex -4.94427 -15.2169 20
      vertex -8 -13.8564 20
      vertex -5 -19.272 20
    endloop
  endfacet
  facet normal 0 0 1
    outer loop
      vertex -6.18034 -19.0211 20
      vertex -10.7061 -11.8903 20
      vertex -10 -17.3205 20
    endloop
  endfacet
  facet normal 0 0 1
    outer loop
      vertex -10.7061 -11.8903 20
      vertex -12.9443 -9.40456 20
      vertex -10 -17.3205 20
    endloop
  endfacet
  facet normal 0 0 1
    outer loop
      vertex -15.6504 -3.32659 20
      vertex -19.563 4.15823 20
      vertex -14.6167 -6.50779 20
    endloop
  endfacet
  facet normal 0 0 1
    outer loop
      vertex -10 17.3205 20
      vertex -13.3826 14.8629 20
      vertex -19.563 4.15823 20
    endloop
  endfacet
  facet normal 0 0 1
    outer loop
      vertex -5 40 20
      vertex -5 19.272 20
      vertex 5 40 20
    endloop
  endfacet
  facet normal 0 0 1
    outer loop
      vertex 4.94427 -15.2169 20
      vertex 1.67246 -15.9123 20
      vertex 6.18034 -19.0211 20
    endloop
  endfacet
  facet normal 0 0 1
    outer loop
      vertex 1.67246 -15.9123 20
      vertex -1.67246 -15.9123 20
      vertex 5 -19.272 20
    endloop
  endfacet
  facet normal 0 0 1
    outer loop
      vertex -16 0 20
      vertex -15.6504 3.32659 20
      vertex -19.563 4.15823 20
    endloop
  endfacet
  facet normal 0 0 1
    outer loop
      vertex 14.6167 -6.50779 20
      vertex 12.9443 -9.40456 20
      vertex 18.2709 -8.13473 20
    endloop
  endfacet
  facet normal 0 0 1
    outer loop
      vertex -15.6504 3.32659 20
      vertex -14.6167 6.50779 20
      vertex -19.563 4.15823 20
    endloop
  endfacet
  facet normal 0 0 1
    outer loop
      vertex -15.6504 3.32659 40
      vertex -16 0 40
      vertex -15.6504 -3.32659 40
    endloop
  endfacet
  facet normal 0 0 1
    outer loop
      vertex -12.9443 -9.40456 40
      vertex -15.6504 3.32659 40
      vertex -14.6167 -6.50779 40
    endloop
  endfacet
  facet normal 0 0 1
    outer loop
      vertex -14.6167 -6.50779 40
      vertex -15.6504 3.32659 40
      vertex -15.6504 -3.32659 40
    endloop
  endfacet
  facet normal 0 0 1
    outer loop
      vertex -10.7061 -11.8903 40
      vertex -15.6504 3.32659 40
      vertex -12.9443 -9.40456 40
    endloop
  endfacet
  facet normal 0 0 1
    outer loop
      vertex -8 -13.8564 40
      vertex -15.6504 3.32659 40
      vertex -10.7061 -11.8903 40
    endloop
  endfacet
  facet normal 0 0 1
    outer loop
      vertex -10.9625 -4.88084 40
      vertex -15.6504 3.32659 40
      vertex -8 -13.8564 40
    endloop
  endfacet
  facet normal 0 0 1
    outer loop
      vertex 6 10.3923 40
      vertex 8.02957 8.91774 40
      vertex 10.7061 11.8903 40
    endloop
  endfacet
  facet normal 0 0 1
    outer loop
      vertex -6 10.3923 40
      vertex -3.7082 11.4127 40
      vertex 1.67246 15.9123 40
    endloop
  endfacet
  facet normal 0 0 1
    outer loop
      vertex -1.25434 11.9343 40
      vertex 1.25434 11.9343 40
      vertex 4.94427 15.2169 40
    endloop
  endfacet
  facet normal 0 0 1
    outer loop
      vertex -4.94427 15.2169 40
      vertex -15.6504 3.32659 40
      vertex -1.67246 15.9123 40
    endloop
  endfacet
  facet normal 0 0 1
    outer loop
      vertex -8 13.8564 40
      vertex -15.6504 3.32659 40
      vertex -4.94427 15.2169 40
    endloop
  endfacet
  facet normal 0 0 1
    outer loop
      vertex -10.7061 11.8903 40
      vertex -15.6504 3.32659 40
      vertex -8 13.8564 40
    endloop
  endfacet
  facet normal 0 0 1
    outer loop
      vertex -12.9443 9.40456 40
      vertex -15.6504 3.32659 40
      vertex -10.7061 11.8903 40
    endloop
  endfacet
  facet normal 0 0 1
    outer loop
      vertex -14.6167 6.50779 40
      vertex -15.6504 3.32659 40
      vertex -12.9443 9.40456 40
    endloop
  endfacet
  facet normal 0 0 1
    outer loop
      vertex 6 -10.3923 40
      vertex 3.7082 -11.4127 40
      vertex 8 -13.8564 40
    endloop
  endfacet
  facet normal 0 0 1
    outer loop
      vertex 9.7082 -7.05342 40
      vertex 8.02957 -8.91774 40
      vertex 12.9443 -9.40456 40
    endloop
  endfacet
  facet normal 0 0 1
    outer loop
      vertex 8.02957 8.91774 40
      vertex 9.7082 7.05342 40
      vertex 12.9443 9.40456 40
    endloop
  endfacet
  facet normal 0 0 1
    outer loop
      vertex 1.25434 11.9343 40
      vertex 3.7082 11.4127 40
      vertex 8 13.8564 40
    endloop
  endfacet
  facet normal 0 0 1
    outer loop
      vertex -1.67246 15.9123 40
      vertex -15.6504 3.32659 40
      vertex -8.02957 8.91774 40
    endloop
  endfacet
  facet normal 0 0 1
    outer loop
      vertex -1.67246 15.9123 40
      vertex -6 10.3923 40
      vertex 1.67246 15.9123 40
    endloop
  endfacet
  facet normal 0 0 1
    outer loop
      vertex -1.67246 15.9123 40
      vertex -8.02957 8.91774 40
      vertex -6 10.3923 40
    endloop
  endfacet
  facet normal 0 0 1
    outer loop
      vertex 1.67246 15.9123 40
      vertex -3.7082 11.4127 40
      vertex 4.94427 15.2169 40
    endloop
  endfacet
  facet normal 0 0 1
    outer loop
      vertex -3.7082 11.4127 40
      vertex -1.25434 11.9343 40
      vertex 4.94427 15.2169 40
    endloop
  endfacet
  facet normal 0 0 1
    outer loop
      vertex 4.94427 15.2169 40
      vertex 1.25434 11.9343 40
      vertex 8 13.8564 40
    endloop
  endfacet
  facet normal 0 0 1
    outer loop
      vertex -9.7082 7.05342 40
      vertex -8.02957 8.91774 40
      vertex -15.6504 3.32659 40
    endloop
  endfacet
  facet normal 0 0 1
    outer loop
      vertex 8 13.8564 40
      vertex 3.7082 11.4127 40
      vertex 10.7061 11.8903 40
    endloop
  endfacet
  facet normal 0 0 1
    outer loop
      vertex 3.7082 11.4127 40
      vertex 6 10.3923 40
      vertex 10.7061 11.8903 40
    endloop
  endfacet
  facet normal 0 0 1
    outer loop
      vertex 10.7061 11.8903 40
      vertex 8.02957 8.91774 40
      vertex 12.9443 9.40456 40
    endloop
  endfacet
  facet normal 0 0 1
    outer loop
      vertex 3.7082 -11.4127 40
      vertex 1.25434 -11.9343 40
      vertex 4.94427 -15.2169 40
    endloop
  endfacet
  facet normal 0 0 1
    outer loop
      vertex 12.9443 9.40456 40
      vertex 9.7082 7.05342 40
      vertex 14.6167 6.50779 40
    endloop
  endfacet
  facet normal 0 0 1
    outer loop
      vertex -10.9625 4.88084 40
      vertex -9.7082 7.05342 40
      vertex -15.6504 3.32659 40
    endloop
  endfacet
  facet normal 0 0 1
    outer loop
      vertex 14.6167 6.50779 40
      vertex 10.9625 4.88084 40
      vertex 15.6504 3.32659 40
    endloop
  endfacet
  facet normal 0 0 1
    outer loop
      vertex 15.6504 3.32659 40
      vertex 11.7378 2.49494 40
      vertex 16 0 40
    endloop
  endfacet
  facet normal 0 0 1
    outer loop
      vertex 16 0 40
      vertex 12 0 40
      vertex 15.6504 -3.32659 40
    endloop
  endfacet
  facet normal 0 0 1
    outer loop
      vertex 12 0 40
      vertex 11.7378 -2.49494 40
      vertex 15.6504 -3.32659 40
    endloop
  endfacet
  facet normal 0 0 1
    outer loop
      vertex 15.6504 -3.32659 40
      vertex 10.9625 -4.88084 40
      vertex 14.6167 -6.50779 40
    endloop
  endfacet
  facet normal 0 0 1
    outer loop
      vertex 14.6167 -6.50779 40
      vertex 9.7082 -7.05342 40
      vertex 12.9443 -9.40456 40
    endloop
  endfacet
  facet normal 0 0 1
    outer loop
      vertex 9.7082 7.05342 40
      vertex 10.9625 4.88084 40
      vertex 14.6167 6.50779 40
    endloop
  endfacet
  facet normal 0 0 1
    outer loop
      vertex 12.9443 -9.40456 40
      vertex 8.02957 -8.91774 40
      vertex 10.7061 -11.8903 40
    endloop
  endfacet
  facet normal 0 0 1
    outer loop
      vertex 10.9625 4.88084 40
      vertex 11.7378 2.49494 40
      vertex 15.6504 3.32659 40
    endloop
  endfacet
  facet normal 0 0 1
    outer loop
      vertex 10.7061 -11.8903 40
      vertex 6 -10.3923 40
      vertex 8 -13.8564 40
    endloop
  endfacet
  facet normal 0 0 1
    outer loop
      vertex 11.7378 2.49494 40
      vertex 12 0 40
      vertex 16 0 40
    endloop
  endfacet
  facet normal 0 0 1
    outer loop
      vertex 8 -13.8564 40
      vertex 3.7082 -11.4127 40
      vertex 4.94427 -15.2169 40
    endloop
  endfacet
  facet normal 0 0 1
    outer loop
      vertex 11.7378 -2.49494 40
      vertex 10.9625 -4.88084 40
      vertex 15.6504 -3.32659 40
    endloop
  endfacet
  facet normal 0 0 1
    outer loop
      vertex 4.94427 -15.2169 40
      vertex 1.25434 -11.9343 40
      vertex 1.67246 -15.9123 40
    endloop
  endfacet
  facet normal 0 0 1
    outer loop
      vertex 1.25434 -11.9343 40
      vertex -1.25434 -11.9343 40
      vertex 1.67246 -15.9123 40
    endloop
  endfacet
  facet normal 0 0 1
    outer loop
      vertex 1.67246 -15.9123 40
      vertex -3.7082 -11.4127 40
      vertex -1.67246 -15.9123 40
    endloop
  endfacet
  facet normal 0 0 1
    outer loop
      vertex 8.02957 -8.91774 40
      vertex 6 -10.3923 40
      vertex 10.7061 -11.8903 40
    endloop
  endfacet
  facet normal 0 0 1
    outer loop
      vertex -1.67246 -15.9123 40
      vertex -6 -10.3923 40
      vertex -4.94427 -15.2169 40
    endloop
  endfacet
  facet normal 0 0 1
    outer loop
      vertex -6 -10.3923 40
      vertex -8.02957 -8.91774 40
      vertex -4.94427 -15.2169 40
    endloop
  endfacet
  facet normal 0 0 1
    outer loop
      vertex -4.94427 -15.2169 40
      vertex -9.7082 -7.05342 40
      vertex -8 -13.8564 40
    endloop
  endfacet
  facet normal 0 0 1
    outer loop
      vertex -9.7082 -7.05342 40
      vertex -10.9625 -4.88084 40
      vertex -8 -13.8564 40
    endloop
  endfacet
  facet normal 0 0 1
    outer loop
      vertex -8.02957 -8.91774 40
      vertex -9.7082 -7.05342 40
      vertex -4.94427 -15.2169 40
    endloop
  endfacet
  facet normal 0 0 1
    outer loop
      vertex -10.9625 -4.88084 40
      vertex -11.7378 -2.49494 40
      vertex -15.6504 3.32659 40
    endloop
  endfacet
  facet normal 0 0 1
    outer loop
      vertex -11.7378 -2.49494 40
      vertex -12 0 40
      vertex -15.6504 3.32659 40
    endloop
  endfacet
  facet normal 0 0 1
    outer loop
      vertex -3.7082 -11.4127 40
      vertex -6 -10.3923 40
      vertex -1.67246 -15.9123 40
    endloop
  endfacet
  facet normal 0 0 1
    outer loop
      vertex -1.25434 -11.9343 40
      vertex -3.7082 -11.4127 40
      vertex 1.67246 -15.9123 40
    endloop
  endfacet
  facet normal 0 0 1
    outer loop
      vertex -12 0 40
      vertex -11.7378 2.49494 40
      vertex -15.6504 3.32659 40
    endloop
  endfacet
  facet normal 0 0 1
    outer loop
      vertex 10.9625 -4.88084 40
      vertex 9.7082 -7.05342 40
      vertex 14.6167 -6.50779 40
    endloop
  endfacet
  facet normal 0 0 1
    outer loop
      vertex -11.7378 2.49494 40
      vertex -10.9625 4.88084 40
      vertex -15.6504 3.32659 40
    endloop
  endfacet
  facet normal 0.951057 0.309017 0
    outer loop
      vertex -11.7378 -2.49494 40
      vertex -10.9625 -4.88084 40
      vertex -10.9625 -4.88084 20
    endloop
  endfacet
  facet normal 0.951057 0.309017 0
    outer loop
      vertex -11.7378 -2.49494 20
      vertex -11.7378 -2.49494 40
      vertex -10.9625 -4.88084 20
    endloop
  endfacet
  facet normal 0 0 1
    outer loop
      vertex -11.7378 2.49494 20
      vertex -12 0 20
      vertex -11.7378 -2.49494 20
    endloop
  endfacet
  facet normal 0 0 1
    outer loop
      vertex -10.8937 -5 20
      vertex -11.7378 2.49494 20
      vertex -10.9625 -4.88084 20
    endloop
  endfacet
  facet normal 0 0 1
    outer loop
      vertex -10.9625 -4.88084 20
      vertex -11.7378 2.49494 20
      vertex -11.7378 -2.49494 20
    endloop
  endfacet
  facet normal 0 0 1
    outer loop
      vertex 10.8937 -5 20
      vertex -11.7378 2.49494 20
      vertex -10.8937 -5 20
    endloop
  endfacet
  facet normal 0 0 1
    outer loop
      vertex 10.9625 -4.88084 20
      vertex -11.7378 2.49494 20
      vertex 10.8937 -5 20
    endloop
  endfacet
  facet normal 0 0 1
    outer loop
      vertex 11.7378 -2.49494 20
      vertex -11.7378 2.49494 20
      vertex 10.9625 -4.88084 20
    endloop
  endfacet
  facet normal 0 0 1
    outer loop
      vertex 12 0 20
      vertex -11.7378 2.49494 20
      vertex 11.7378 -2.49494 20
    endloop
  endfacet
  facet normal 0 0 1
    outer loop
      vertex 11.7378 2.49494 20
      vertex -11.7378 2.49494 20
      vertex 12 0 20
    endloop
  endfacet
  facet normal 0 0 1
    outer loop
      vertex 10.9625 4.88084 20
      vertex -11.7378 2.49494 20
      vertex 11.7378 2.49494 20
    endloop
  endfacet
  facet normal 0 0 1
    outer loop
      vertex 10.8937 5 20
      vertex -11.7378 2.49494 20
      vertex 10.9625 4.88084 20
    endloop
  endfacet
  facet normal 0 0 1
    outer loop
      vertex -10.8937 5 20
      vertex -11.7378 2.49494 20
      vertex 10.8937 5 20
    endloop
  endfacet
  facet normal 0 0 1
    outer loop
      vertex -10.9625 4.88084 20
      vertex -11.7378 2.49494 20
      vertex -10.8937 5 20
    endloop
  endfacet
  facet normal -0.951057 0.309017 0
    outer loop
      vertex 11.7378 -2.49494 40
      vertex 11.7378 -2.49494 20
      vertex 10.9625 -4.88084 40
    endloop
  endfacet
  facet normal -0.951057 0.309017 0
    outer loop
      vertex 10.9625 -4.88084 40
      vertex 11.7378 -2.49494 20
      vertex 10.9625 -4.88084 20
    endloop
  endfacet
  facet normal 0.951057 -0.309017 0
    outer loop
      vertex -10.9625 4.88084 20
      vertex -10.9625 4.88084 40
      vertex -11.7378 2.49494 40
    endloop
  endfacet
  facet normal 0.951057 -0.309017 0
    outer loop
      vertex -11.7378 2.49494 20
      vertex -10.9625 4.88084 20
      vertex -11.7378 2.49494 40
    endloop
  endfacet
  facet normal -0.951057 -0.309017 0
    outer loop
      vertex 11.7378 2.49494 40
      vertex 10.9625 4.88084 40
      vertex 11.7378 2.49494 20
    endloop
  endfacet
  facet normal -0.951057 -0.309017 0
    outer loop
      vertex 11.7378 2.49494 20
      vertex 10.9625 4.88084 40
      vertex 10.9625 4.88084 20
    endloop
  endfacet
  facet normal -0.994522 -0.104528 0
    outer loop
      vertex -16 0 20
      vertex -15.6504 -3.32659 20
      vertex -16 0 40
    endloop
  endfacet
  facet normal -0.994522 -0.104528 0
    outer loop
      vertex -16 0 40
      vertex -15.6504 -3.32659 20
      vertex -15.6504 -3.32659 40
    endloop
  endfacet
  facet normal -0.951056 -0.309017 0
    outer loop
      vertex -15.6504 -3.32659 20
      vertex -14.6167 -6.50779 20
      vertex -15.6504 -3.32659 40
    endloop
  endfacet
  facet normal -0.951056 -0.309017 0
    outer loop
      vertex -15.6504 -3.32659 40
      vertex -14.6167 -6.50779 20
      vertex -14.6167 -6.50779 40
    endloop
  endfacet
  facet normal -0.866025 -0.5 0
    outer loop
      vertex -14.6167 -6.50779 20
      vertex -12.9443 -9.40456 20
      vertex -14.6167 -6.50779 40
    endloop
  endfacet
  facet normal -0.866025 -0.5 0
    outer loop
      vertex -14.6167 -6.50779 40
      vertex -12.9443 -9.40456 20
      vertex -12.9443 -9.40456 40
    endloop
  endfacet
  facet normal -0.743145 -0.669131 0
    outer loop
      vertex -12.9443 -9.40456 20
      vertex -10.7061 -11.8903 20
      vertex -12.9443 -9.40456 40
    endloop
  endfacet
  facet normal -0.743145 -0.669131 0
    outer loop
      vertex -12.9443 -9.40456 40
      vertex -10.7061 -11.8903 20
      vertex -10.7061 -11.8903 40
    endloop
  endfacet
  facet normal -0.587785 -0.809017 0
    outer loop
      vertex -10.7061 -11.8903 40
      vertex -10.7061 -11.8903 20
      vertex -8 -13.8564 20
    endloop
  endfacet
  facet normal -0.587785 -0.809017 0
    outer loop
      vertex -8 -13.8564 40
      vertex -10.7061 -11.8903 40
      vertex -8 -13.8564 20
    endloop
  endfacet
  facet normal -0.406737 -0.913545 0
    outer loop
      vertex -8 -13.8564 40
      vertex -8 -13.8564 20
      vertex -4.94427 -15.2169 20
    endloop
  endfacet
  facet normal -0.406737 -0.913545 0
    outer loop
      vertex -4.94427 -15.2169 40
      vertex -8 -13.8564 40
      vertex -4.94427 -15.2169 20
    endloop
  endfacet
  facet normal -0.207912 -0.978148 0
    outer loop
      vertex -4.94427 -15.2169 40
      vertex -4.94427 -15.2169 20
      vertex -1.67246 -15.9123 20
    endloop
  endfacet
  facet normal -0.207912 -0.978148 0
    outer loop
      vertex -1.67246 -15.9123 40
      vertex -4.94427 -15.2169 40
      vertex -1.67246 -15.9123 20
    endloop
  endfacet
  facet normal 0 -1 0
    outer loop
      vertex -1.67246 -15.9123 40
      vertex -1.67246 -15.9123 20
      vertex 1.67246 -15.9123 20
    endloop
  endfacet
  facet normal 0 -1 0
    outer loop
      vertex 1.67246 -15.9123 40
      vertex -1.67246 -15.9123 40
      vertex 1.67246 -15.9123 20
    endloop
  endfacet
  facet normal 0.207912 -0.978148 0
    outer loop
      vertex 1.67246 -15.9123 40
      vertex 1.67246 -15.9123 20
      vertex 4.94427 -15.2169 20
    endloop
  endfacet
  facet normal 0.207912 -0.978148 0
    outer loop
      vertex 4.94427 -15.2169 40
      vertex 1.67246 -15.9123 40
      vertex 4.94427 -15.2169 20
    endloop
  endfacet
  facet normal 0.406737 -0.913545 0
    outer loop
      vertex 4.94427 -15.2169 40
      vertex 4.94427 -15.2169 20
      vertex 8 -13.8564 20
    endloop
  endfacet
  facet normal 0.406737 -0.913545 0
    outer loop
      vertex 8 -13.8564 40
      vertex 4.94427 -15.2169 40
      vertex 8 -13.8564 20
    endloop
  endfacet
  facet normal 0.587785 -0.809017 0
    outer loop
      vertex 8 -13.8564 40
      vertex 8 -13.8564 20
      vertex 10.7061 -11.8903 20
    endloop
  endfacet
  facet normal 0.587785 -0.809017 0
    outer loop
      vertex 10.7061 -11.8903 40
      vertex 8 -13.8564 40
      vertex 10.7061 -11.8903 20
    endloop
  endfacet
  facet normal 0.743145 -0.669131 0
    outer loop
      vertex 10.7061 -11.8903 40
      vertex 10.7061 -11.8903 20
      vertex 12.9443 -9.40456 20
    endloop
  endfacet
  facet normal 0.743145 -0.669131 0
    outer loop
      vertex 12.9443 -9.40456 40
      vertex 10.7061 -11.8903 40
      vertex 12.9443 -9.40456 20
    endloop
  endfacet
  facet normal 0.866025 -0.5 0
    outer loop
      vertex 12.9443 -9.40456 40
      vertex 12.9443 -9.40456 20
      vertex 14.6167 -6.50779 20
    endloop
  endfacet
  facet normal 0.866025 -0.5 0
    outer loop
      vertex 14.6167 -6.50779 40
      vertex 12.9443 -9.40456 40
      vertex 14.6167 -6.50779 20
    endloop
  endfacet
  facet normal 0.951056 -0.309017 0
    outer loop
      vertex 14.6167 -6.50779 40
      vertex 14.6167 -6.50779 20
      vertex 15.6504 -3.32659 20
    endloop
  endfacet
  facet normal 0.951056 -0.309017 0
    outer loop
      vertex 15.6504 -3.32659 40
      vertex 14.6167 -6.50779 40
      vertex 15.6504 -3.32659 20
    endloop
  endfacet
  facet normal 0.994522 -0.104528 0
    outer loop
      vertex 15.6504 -3.32659 40
      vertex 15.6504 -3.32659 20
      vertex 16 0 20
    endloop
  endfacet
  facet normal 0.994522 -0.104528 0
    outer loop
      vertex 16 0 40
      vertex 15.6504 -3.32659 40
      vertex 16 0 20
    endloop
  endfacet
  facet normal 0.994522 0.104528 0
    outer loop
      vertex 16 0 20
      vertex 15.6504 3.32659 20
      vertex 15.6504 3.32659 40
    endloop
  endfacet
  facet normal 0.994522 0.104528 0
    outer loop
      vertex 16 0 40
      vertex 16 0 20
      vertex 15.6504 3.32659 40
    endloop
  endfacet
  facet normal 0.951056 0.309017 0
    outer loop
      vertex 15.6504 3.32659 20
      vertex 14.6167 6.50779 20
      vertex 14.6167 6.50779 40
    endloop
  endfacet
  facet normal 0.951056 0.309017 0
    outer loop
      vertex 15.6504 3.32659 40
      vertex 15.6504 3.32659 20
      vertex 14.6167 6.50779 40
    endloop
  endfacet
  facet normal 0.866025 0.5 0
    outer loop
      vertex 14.6167 6.50779 20
      vertex 12.9443 9.40456 20
      vertex 12.9443 9.40456 40
    endloop
  endfacet
  facet normal 0.866025 0.5 0
    outer loop
      vertex 14.6167 6.50779 40
      vertex 14.6167 6.50779 20
      vertex 12.9443 9.40456 40
    endloop
  endfacet
  facet normal 0.743145 0.669131 0
    outer loop
      vertex 12.9443 9.40456 20
      vertex 10.7061 11.8903 20
      vertex 10.7061 11.8903 40
    endloop
  endfacet
  facet normal 0.743145 0.669131 0
    outer loop
      vertex 12.9443 9.40456 40
      vertex 12.9443 9.40456 20
      vertex 10.7061 11.8903 40
    endloop
  endfacet
  facet normal 0.587785 0.809017 0
    outer loop
      vertex 8 13.8564 20
      vertex 8 13.8564 40
      vertex 10.7061 11.8903 20
    endloop
  endfacet
  facet normal 0.587785 0.809017 0
    outer loop
      vertex 10.7061 11.8903 20
      vertex 8 13.8564 40
      vertex 10.7061 11.8903 40
    endloop
  endfacet
  facet normal 0.406737 0.913545 0
    outer loop
      vertex 4.94427 15.2169 20
      vertex 4.94427 15.2169 40
      vertex 8 13.8564 20
    endloop
  endfacet
  facet normal 0.406737 0.913545 0
    outer loop
      vertex 8 13.8564 20
      vertex 4.94427 15.2169 40
      vertex 8 13.8564 40
    endloop
  endfacet
  facet normal 0.207912 0.978148 0
    outer loop
      vertex 1.67246 15.9123 20
      vertex 1.67246 15.9123 40
      vertex 4.94427 15.2169 20
    endloop
  endfacet
  facet normal 0.207912 0.978148 0
    outer loop
      vertex 4.94427 15.2169 20
      vertex 1.67246 15.9123 40
      vertex 4.94427 15.2169 40
    endloop
  endfacet
  facet normal 0 1 0
    outer loop
      vertex -1.67246 15.9123 20
      vertex -1.67246 15.9123 40
      vertex 1.67246 15.9123 20
    endloop
  endfacet
  facet normal 0 1 0
    outer loop
      vertex 1.67246 15.9123 20
      vertex -1.67246 15.9123 40
      vertex 1.67246 15.9123 40
    endloop
  endfacet
  facet normal -0.207912 0.978148 0
    outer loop
      vertex -4.94427 15.2169 20
      vertex -4.94427 15.2169 40
      vertex -1.67246 15.9123 20
    endloop
  endfacet
  facet normal -0.207912 0.978148 0
    outer loop
      vertex -1.67246 15.9123 20
      vertex -4.94427 15.2169 40
      vertex -1.67246 15.9123 40
    endloop
  endfacet
  facet normal -0.406737 0.913545 0
    outer loop
      vertex -8 13.8564 20
      vertex -8 13.8564 40
      vertex -4.94427 15.2169 20
    endloop
  endfacet
  facet normal -0.406737 0.913545 0
    outer loop
      vertex -4.94427 15.2169 20
      vertex -8 13.8564 40
      vertex -4.94427 15.2169 40
    endloop
  endfacet
  facet normal -0.587785 0.809017 0
    outer loop
      vertex -10.7061 11.8903 20
      vertex -10.7061 11.8903 40
      vertex -8 13.8564 20
    endloop
  endfacet
  facet normal -0.587785 0.809017 0
    outer loop
      vertex -8 13.8564 20
      vertex -10.7061 11.8903 40
      vertex -8 13.8564 40
    endloop
  endfacet
  facet normal -0.743145 0.669131 0
    outer loop
      vertex -12.9443 9.40456 20
      vertex -12.9443 9.40456 40
      vertex -10.7061 11.8903 20
    endloop
  endfacet
  facet normal -0.743145 0.669131 0
    outer loop
      vertex -10.7061 11.8903 20
      vertex -12.9443 9.40456 40
      vertex -10.7061 11.8903 40
    endloop
  endfacet
  facet normal -0.866025 0.5 0
    outer loop
      vertex -14.6167 6.50779 20
      vertex -14.6167 6.50779 40
      vertex -12.9443 9.40456 20
    endloop
  endfacet
  facet normal -0.866025 0.5 0
    outer loop
      vertex -12.9443 9.40456 20
      vertex -14.6167 6.50779 40
      vertex -12.9443 9.40456 40
    endloop
  endfacet
  facet normal -0.951056 0.309017 0
    outer loop
      vertex -15.6504 3.32659 20
      vertex -15.6504 3.32659 40
      vertex -14.6167 6.50779 20
    endloop
  endfacet
  facet normal -0.951056 0.309017 0
    outer loop
      vertex -14.6167 6.50779 20
      vertex -15.6504 3.32659 40
      vertex -14.6167 6.50779 40
    endloop
  endfacet
  facet normal -0.994522 0.104528 0
    outer loop
      vertex -16 0 20
      vertex -16 0 40
      vertex -15.6504 3.32659 20
    endloop
  endfacet
  facet normal -0.994522 0.104528 0
    outer loop
      vertex -15.6504 3.32659 20
      vertex -16 0 40
      vertex -15.6504 3.32659 40
    endloop
  endfacet
  facet normal 0.994522 0.104529 0
    outer loop
      vertex -12 0 40
      vertex -11.7378 -2.49494 40
      vertex -11.7378 -2.49494 20
    endloop
  endfacet
  facet normal 0.994522 0.104529 0
    outer loop
      vertex -12 0 20
      vertex -12 0 40
      vertex -11.7378 -2.49494 20
    endloop
  endfacet
  facet normal -0.994522 0.104529 0
    outer loop
      vertex 12 0 40
      vertex 12 0 20
      vertex 11.7378 -2.49494 40
    endloop
  endfacet
  facet normal -0.994522 0.104529 0
    outer loop
      vertex 11.7378 -2.49494 40
      vertex 12 0 20
      vertex 11.7378 -2.49494 20
    endloop
  endfacet
  facet normal -0.994522 -0.104529 0
    outer loop
      vertex 12 0 40
      vertex 11.7378 2.49494 40
      vertex 12 0 20
    endloop
  endfacet
  facet normal -0.994522 -0.104529 0
    outer loop
      vertex 12 0 20
      vertex 11.7378 2.49494 40
      vertex 11.7378 2.49494 20
    endloop
  endfacet
  facet normal 0.994522 -0.104529 0
    outer loop
      vertex -11.7378 2.49494 20
      vertex -11.7378 2.49494 40
      vertex -12 0 40
    endloop
  endfacet
  facet normal 0.994522 -0.104529 0
    outer loop
      vertex -12 0 20
      vertex -11.7378 2.49494 20
      vertex -12 0 40
    endloop
  endfacet
endsolid OpenSCAD_Model
