solid OpenSCAD_Model
  facet normal 0 0 -1
    outer loop
      vertex -1.9 3.2909 0
      vertex 1.9 3.2909 0
      vertex -3.8 0 0
    endloop
  endfacet
  facet normal 0 0 -1
    outer loop
      vertex -3.8 0 0
      vertex 1.9 3.2909 0
      vertex 3.8 0 0
    endloop
  endfacet
  facet normal 0 0 -1
    outer loop
      vertex -3.8 0 0
      vertex 3.8 0 0
      vertex 1.9 -3.2909 0
    endloop
  endfacet
  facet normal 0 0 -1
    outer loop
      vertex -3.8 0 0
      vertex 1.9 -3.2909 0
      vertex -1.9 -3.2909 0
    endloop
  endfacet
  facet normal 0.866025 0.5 0
    outer loop
      vertex 1.9 3.2909 0
      vertex 1.9 3.2909 20
      vertex 3.8 0 20
    endloop
  endfacet
  facet normal 0.866025 0.5 0
    outer loop
      vertex 3.8 0 0
      vertex 1.9 3.2909 0
      vertex 3.8 0 20
    endloop
  endfacet
  facet normal 0 1 0
    outer loop
      vertex -1.9 3.2909 20
      vertex 1.9 3.2909 20
      vertex -1.9 3.2909 0
    endloop
  endfacet
  facet normal 0 1 0
    outer loop
      vertex -1.9 3.2909 0
      vertex 1.9 3.2909 20
      vertex 1.9 3.2909 0
    endloop
  endfacet
  facet normal -0.866025 0.5 0
    outer loop
      vertex -3.8 0 20
      vertex -1.9 3.2909 20
      vertex -3.8 0 0
    endloop
  endfacet
  facet normal -0.866025 0.5 0
    outer loop
      vertex -3.8 0 0
      vertex -1.9 3.2909 20
      vertex -1.9 3.2909 0
    endloop
  endfacet
  facet normal -0.866025 -0.5 0
    outer loop
      vertex -1.9 -3.2909 0
      vertex -1.9 -3.2909 20
      vertex -3.8 0 0
    endloop
  endfacet
  facet normal -0.866025 -0.5 0
    outer loop
      vertex -3.8 0 0
      vertex -1.9 -3.2909 20
      vertex -3.8 0 20
    endloop
  endfacet
  facet normal 0 -1 0
    outer loop
      vertex -1.9 -3.2909 0
      vertex 1.9 -3.2909 0
      vertex 1.9 -3.2909 20
    endloop
  endfacet
  facet normal 0 -1 0
    outer loop
      vertex -1.9 -3.2909 20
      vertex -1.9 -3.2909 0
      vertex 1.9 -3.2909 20
    endloop
  endfacet
  facet normal 0.866025 -0.5 0
    outer loop
      vertex 1.9 -3.2909 0
      vertex 3.8 0 0
      vertex 3.8 0 20
    endloop
  endfacet
  facet normal 0.866025 -0.5 0
    outer loop
      vertex 1.9 -3.2909 20
      vertex 1.9 -3.2909 0
      vertex 3.8 0 20
    endloop
  endfacet
  facet normal 0 0 1
    outer loop
      vertex -3.8 0 20
      vertex -1.9 -3.2909 20
      vertex 1.9 -3.2909 20
    endloop
  endfacet
  facet normal 0 0 1
    outer loop
      vertex 1.9 3.2909 20
      vertex -3.8 0 20
      vertex 3.8 0 20
    endloop
  endfacet
  facet normal 0 0 1
    outer loop
      vertex 3.8 0 20
      vertex -3.8 0 20
      vertex 1.9 -3.2909 20
    endloop
  endfacet
  facet normal 0 0 1
    outer loop
      vertex -1.9 3.2909 20
      vertex -3.8 0 20
      vertex 1.9 3.2909 20
    endloop
  endfacet
endsolid OpenSCAD_Model
