999
DXF created by Inkscape
  0
SECTION
  2
HEADER
  9
$ACADVER
  1
AC1014
  9
$HANDSEED
  5
FFFF
  9
$MEASUREMENT
 70
     1
  0
ENDSEC
  0
SECTION
  2
TABLES
  0
TABLE
  2
VPORT
  5
8
330
0
100
AcDbSymbolTable
 70
     4
  0
VPORT
  5
2E
330
8
100
AcDbSymbolTableRecord
100
AcDbViewportTableRecord
  2
*ACTIVE
 70
     0
 10
0.0
 20
0.0
 11
1.0
 21
1.0
 12
210.0
 22
148.5
 13
0.0
 23
0.0
 14
10.0
 24
10.0
 15
10.0
 25
10.0
 16
0.0
 26
0.0
 36
1.0
 17
0.0
 27
0.0
 37
0.0
 40
341.0
 41
1.24
 42
50.0
 43
0.0
 44
0.0
 50
0.0
 51
0.0
 71
     0
 72
   100
 73
     1
 74
     3
 75
     0
 76
     0
 77
     0
 78
     0
  0
ENDTAB
  0
TABLE
  2
LTYPE
  5
5
330
0
100
AcDbSymbolTable
 70
     1
  0
LTYPE
  5
14
330
5
100
AcDbSymbolTableRecord
100
AcDbLinetypeTableRecord
  2
BYBLOCK
 70
     0
  3

 72
    65
 73
     0
 40
0.0
  0
LTYPE
  5
15
330
5
100
AcDbSymbolTableRecord
100
AcDbLinetypeTableRecord
  2
BYLAYER
 70
     0
  3

 72
    65
 73
     0
 40
0.0
  0
LTYPE
  5
16
330
5
100
AcDbSymbolTableRecord
100
AcDbLinetypeTableRecord
  2
CONTINUOUS
 70
     0
  3
Solid line
 72
    65
 73
     0
 40
0.0
  0
ENDTAB
  0
TABLE
  2
LAYER
  5
2
100
AcDbSymbolTable
 70
1
  0
LAYER
  5
50
100
AcDbSymbolTableRecord
100
AcDbLayerTableRecord
  2
0
 70
0
  6
CONTINUOUS
  0
ENDTAB
  0
TABLE
  2
STYLE
  5
3
330
0
100
AcDbSymbolTable
 70
     1
  0
STYLE
  5
11
330
3
100
AcDbSymbolTableRecord
100
AcDbTextStyleTableRecord
  2
STANDARD
 70
     0
 40
0.0
 41
1.0
 50
0.0
 71
     0
 42
2.5
  3
txt
  4

  0
ENDTAB
  0
TABLE
  2
VIEW
  5
6
330
0
100
AcDbSymbolTable
 70
     0
  0
ENDTAB
  0
TABLE
  2
UCS
  5
7
330
0
100
AcDbSymbolTable
 70
     0
  0
ENDTAB
  0
TABLE
  2
APPID
  5
9
330
0
100
AcDbSymbolTable
 70
     2
  0
APPID
  5
12
330
9
100
AcDbSymbolTableRecord
100
AcDbRegAppTableRecord
  2
ACAD
 70
     0
  0
ENDTAB
  0
TABLE
  2
DIMSTYLE
  5
A
330
0
100
AcDbSymbolTable
 70
     1
  0
DIMSTYLE
105
27
330
A
100
AcDbSymbolTableRecord
100
AcDbDimStyleTableRecord
  2
ISO-25
 70
     0
  3

  4

  5

  6

  7

 40
1.0
 41
2.5
 42
0.625
 43
3.75
 44
1.25
 45
0.0
 46
0.0
 47
0.0
 48
0.0
140
2.5
141
2.5
142
0.0
143
0.03937007874016
144
1.0
145
0.0
146
1.0
147
0.625
 71
     0
 72
     0
 73
     0
 74
     0
 75
     0
 76
     0
 77
     1
 78
     8
170
     0
171
     3
172
     1
173
     0
174
     0
175
     0
176
     0
177
     0
178
     0
270
     2
271
     2
272
     2
273
     2
274
     3
340
11
275
     0
280
     0
281
     0
282
     0
283
     0
284
     8
285
     0
286
     0
287
     3
288
     0
  0
ENDTAB
  0
TABLE
  2
BLOCK_RECORD
  5
1
330
0
100
AcDbSymbolTable
 70
     1
  0
BLOCK_RECORD
  5
1F
330
1
100
AcDbSymbolTableRecord
100
AcDbBlockTableRecord
  2
*MODEL_SPACE
  0
BLOCK_RECORD
  5
1B
330
1
100
AcDbSymbolTableRecord
100
AcDbBlockTableRecord
  2
*PAPER_SPACE
  0
ENDTAB
  0
ENDSEC
  0
SECTION
  2
BLOCKS
  0
BLOCK
  5
20
330
1F
100
AcDbEntity
  8
0
100
AcDbBlockBegin
  2
*MODEL_SPACE
 70
     0
 10
0.0
 20
0.0
 30
0.0
  3
*MODEL_SPACE
  1

  0
ENDBLK
  5
21
330
1F
100
AcDbEntity
  8
0
100
AcDbBlockEnd
  0
BLOCK
  5
1C
330
1B
100
AcDbEntity
 67
     1
  8
0
100
AcDbBlockBegin
  2
*PAPER_SPACE
  1

  0
ENDBLK
  5
1D
330
1B
100
AcDbEntity
 67
     1
  8
0
100
AcDbBlockEnd
  0
ENDSEC
  0
SECTION
  2
ENTITIES
  0
SPLINE
  5
100
100
AcDbEntity
  8
0
 62
1
100
AcDbSpline
 70
8
 71
3
 72
8
 73
4
 74
0
 40
0
 40
0
 40
0
 40
0
 40
1
 40
1
 40
1
 40
1
 10
108.265928
 20
92.199770
 30
0.0
 10
108.265928
 20
92.317280
 30
0.0
 10
108.203237
 20
92.425864
 30
0.0
 10
108.101471
 20
92.484619
 30
0.0
  0
SPLINE
  5
101
100
AcDbEntity
  8
0
 62
1
100
AcDbSpline
 70
8
 71
3
 72
8
 73
4
 74
0
 40
0
 40
0
 40
0
 40
0
 40
1
 40
1
 40
1
 40
1
 10
108.101471
 20
92.484619
 30
0.0
 10
107.999704
 20
92.543374
 30
0.0
 10
107.874323
 20
92.543374
 30
0.0
 10
107.772556
 20
92.484619
 30
0.0
  0
SPLINE
  5
102
100
AcDbEntity
  8
0
 62
1
100
AcDbSpline
 70
8
 71
3
 72
8
 73
4
 74
0
 40
0
 40
0
 40
0
 40
0
 40
1
 40
1
 40
1
 40
1
 10
107.772556
 20
92.484619
 30
0.0
 10
107.670790
 20
92.425864
 30
0.0
 10
107.608099
 20
92.317280
 30
0.0
 10
107.608099
 20
92.199770
 30
0.0
  0
SPLINE
  5
103
100
AcDbEntity
  8
0
 62
1
100
AcDbSpline
 70
8
 71
3
 72
8
 73
4
 74
0
 40
0
 40
0
 40
0
 40
0
 40
1
 40
1
 40
1
 40
1
 10
107.608099
 20
92.199770
 30
0.0
 10
107.608099
 20
92.082261
 30
0.0
 10
107.670790
 20
91.973677
 30
0.0
 10
107.772556
 20
91.914922
 30
0.0
  0
SPLINE
  5
104
100
AcDbEntity
  8
0
 62
1
100
AcDbSpline
 70
8
 71
3
 72
8
 73
4
 74
0
 40
0
 40
0
 40
0
 40
0
 40
1
 40
1
 40
1
 40
1
 10
107.772556
 20
91.914922
 30
0.0
 10
107.874323
 20
91.856167
 30
0.0
 10
107.999704
 20
91.856167
 30
0.0
 10
108.101471
 20
91.914922
 30
0.0
  0
SPLINE
  5
105
100
AcDbEntity
  8
0
 62
1
100
AcDbSpline
 70
8
 71
3
 72
8
 73
4
 74
0
 40
0
 40
0
 40
0
 40
0
 40
1
 40
1
 40
1
 40
1
 10
108.101471
 20
91.914922
 30
0.0
 10
108.203237
 20
91.973677
 30
0.0
 10
108.265928
 20
92.082261
 30
0.0
 10
108.265928
 20
92.199770
 30
0.0
  0
SPLINE
  5
106
100
AcDbEntity
  8
0
 62
1
100
AcDbSpline
 70
8
 71
3
 72
8
 73
4
 74
0
 40
0
 40
0
 40
0
 40
0
 40
1
 40
1
 40
1
 40
1
 10
117.418381
 20
92.199770
 30
0.0
 10
117.418381
 20
92.317280
 30
0.0
 10
117.355690
 20
92.425864
 30
0.0
 10
117.253923
 20
92.484619
 30
0.0
  0
SPLINE
  5
107
100
AcDbEntity
  8
0
 62
1
100
AcDbSpline
 70
8
 71
3
 72
8
 73
4
 74
0
 40
0
 40
0
 40
0
 40
0
 40
1
 40
1
 40
1
 40
1
 10
117.253923
 20
92.484619
 30
0.0
 10
117.152157
 20
92.543374
 30
0.0
 10
117.026775
 20
92.543374
 30
0.0
 10
116.925009
 20
92.484619
 30
0.0
  0
SPLINE
  5
108
100
AcDbEntity
  8
0
 62
1
100
AcDbSpline
 70
8
 71
3
 72
8
 73
4
 74
0
 40
0
 40
0
 40
0
 40
0
 40
1
 40
1
 40
1
 40
1
 10
116.925009
 20
92.484619
 30
0.0
 10
116.823242
 20
92.425864
 30
0.0
 10
116.760552
 20
92.317280
 30
0.0
 10
116.760552
 20
92.199770
 30
0.0
  0
SPLINE
  5
109
100
AcDbEntity
  8
0
 62
1
100
AcDbSpline
 70
8
 71
3
 72
8
 73
4
 74
0
 40
0
 40
0
 40
0
 40
0
 40
1
 40
1
 40
1
 40
1
 10
116.760552
 20
92.199770
 30
0.0
 10
116.760552
 20
92.082261
 30
0.0
 10
116.823242
 20
91.973677
 30
0.0
 10
116.925009
 20
91.914922
 30
0.0
  0
SPLINE
  5
10a
100
AcDbEntity
  8
0
 62
1
100
AcDbSpline
 70
8
 71
3
 72
8
 73
4
 74
0
 40
0
 40
0
 40
0
 40
0
 40
1
 40
1
 40
1
 40
1
 10
116.925009
 20
91.914922
 30
0.0
 10
117.026775
 20
91.856167
 30
0.0
 10
117.152157
 20
91.856167
 30
0.0
 10
117.253923
 20
91.914922
 30
0.0
  0
SPLINE
  5
10b
100
AcDbEntity
  8
0
 62
1
100
AcDbSpline
 70
8
 71
3
 72
8
 73
4
 74
0
 40
0
 40
0
 40
0
 40
0
 40
1
 40
1
 40
1
 40
1
 10
117.253923
 20
91.914922
 30
0.0
 10
117.355690
 20
91.973677
 30
0.0
 10
117.418381
 20
92.082261
 30
0.0
 10
117.418381
 20
92.199770
 30
0.0
  0
LWPOLYLINE
  5
10c
100
AcDbEntity
  8
0
 62
1
100
AcDbPolyline
 90
2
 70
0
 10
108.265928
 20
92.199770
 30
0.0
 10
108.265928
 20
92.199770
 30
0.0
  0
SPLINE
  5
10d
100
AcDbEntity
  8
0
 62
1
100
AcDbSpline
 70
8
 71
3
 72
8
 73
4
 74
0
 40
0
 40
0
 40
0
 40
0
 40
1
 40
1
 40
1
 40
1
 10
117.418578
 20
82.976666
 30
0.0
 10
117.418578
 20
83.094176
 30
0.0
 10
117.355887
 20
83.202760
 30
0.0
 10
117.254121
 20
83.261515
 30
0.0
  0
SPLINE
  5
10e
100
AcDbEntity
  8
0
 62
1
100
AcDbSpline
 70
8
 71
3
 72
8
 73
4
 74
0
 40
0
 40
0
 40
0
 40
0
 40
1
 40
1
 40
1
 40
1
 10
117.254121
 20
83.261515
 30
0.0
 10
117.152354
 20
83.320270
 30
0.0
 10
117.026973
 20
83.320270
 30
0.0
 10
116.925206
 20
83.261515
 30
0.0
  0
SPLINE
  5
10f
100
AcDbEntity
  8
0
 62
1
100
AcDbSpline
 70
8
 71
3
 72
8
 73
4
 74
0
 40
0
 40
0
 40
0
 40
0
 40
1
 40
1
 40
1
 40
1
 10
116.925206
 20
83.261515
 30
0.0
 10
116.823440
 20
83.202760
 30
0.0
 10
116.760749
 20
83.094176
 30
0.0
 10
116.760749
 20
82.976666
 30
0.0
  0
SPLINE
  5
110
100
AcDbEntity
  8
0
 62
1
100
AcDbSpline
 70
8
 71
3
 72
8
 73
4
 74
0
 40
0
 40
0
 40
0
 40
0
 40
1
 40
1
 40
1
 40
1
 10
116.760749
 20
82.976666
 30
0.0
 10
116.760749
 20
82.859157
 30
0.0
 10
116.823440
 20
82.750573
 30
0.0
 10
116.925206
 20
82.691818
 30
0.0
  0
SPLINE
  5
111
100
AcDbEntity
  8
0
 62
1
100
AcDbSpline
 70
8
 71
3
 72
8
 73
4
 74
0
 40
0
 40
0
 40
0
 40
0
 40
1
 40
1
 40
1
 40
1
 10
116.925206
 20
82.691818
 30
0.0
 10
117.026973
 20
82.633063
 30
0.0
 10
117.152354
 20
82.633063
 30
0.0
 10
117.254121
 20
82.691818
 30
0.0
  0
SPLINE
  5
112
100
AcDbEntity
  8
0
 62
1
100
AcDbSpline
 70
8
 71
3
 72
8
 73
4
 74
0
 40
0
 40
0
 40
0
 40
0
 40
1
 40
1
 40
1
 40
1
 10
117.254121
 20
82.691818
 30
0.0
 10
117.355887
 20
82.750573
 30
0.0
 10
117.418578
 20
82.859157
 30
0.0
 10
117.418578
 20
82.976666
 30
0.0
  0
LWPOLYLINE
  5
113
100
AcDbEntity
  8
0
 62
1
100
AcDbPolyline
 90
2
 70
0
 10
117.418381
 20
92.199770
 30
0.0
 10
117.418381
 20
92.199770
 30
0.0
  0
SPLINE
  5
114
100
AcDbEntity
  8
0
 62
1
100
AcDbSpline
 70
8
 71
3
 72
8
 73
4
 74
0
 40
0
 40
0
 40
0
 40
0
 40
1
 40
1
 40
1
 40
1
 10
108.265928
 20
82.976864
 30
0.0
 10
108.265928
 20
83.094374
 30
0.0
 10
108.203237
 20
83.202957
 30
0.0
 10
108.101471
 20
83.261712
 30
0.0
  0
SPLINE
  5
115
100
AcDbEntity
  8
0
 62
1
100
AcDbSpline
 70
8
 71
3
 72
8
 73
4
 74
0
 40
0
 40
0
 40
0
 40
0
 40
1
 40
1
 40
1
 40
1
 10
108.101471
 20
83.261712
 30
0.0
 10
107.999704
 20
83.320467
 30
0.0
 10
107.874323
 20
83.320467
 30
0.0
 10
107.772556
 20
83.261712
 30
0.0
  0
SPLINE
  5
116
100
AcDbEntity
  8
0
 62
1
100
AcDbSpline
 70
8
 71
3
 72
8
 73
4
 74
0
 40
0
 40
0
 40
0
 40
0
 40
1
 40
1
 40
1
 40
1
 10
107.772556
 20
83.261712
 30
0.0
 10
107.670790
 20
83.202957
 30
0.0
 10
107.608099
 20
83.094374
 30
0.0
 10
107.608099
 20
82.976864
 30
0.0
  0
SPLINE
  5
117
100
AcDbEntity
  8
0
 62
1
100
AcDbSpline
 70
8
 71
3
 72
8
 73
4
 74
0
 40
0
 40
0
 40
0
 40
0
 40
1
 40
1
 40
1
 40
1
 10
107.608099
 20
82.976864
 30
0.0
 10
107.608099
 20
82.859354
 30
0.0
 10
107.670790
 20
82.750771
 30
0.0
 10
107.772556
 20
82.692016
 30
0.0
  0
SPLINE
  5
118
100
AcDbEntity
  8
0
 62
1
100
AcDbSpline
 70
8
 71
3
 72
8
 73
4
 74
0
 40
0
 40
0
 40
0
 40
0
 40
1
 40
1
 40
1
 40
1
 10
107.772556
 20
82.692016
 30
0.0
 10
107.874323
 20
82.633261
 30
0.0
 10
107.999704
 20
82.633261
 30
0.0
 10
108.101471
 20
82.692016
 30
0.0
  0
SPLINE
  5
119
100
AcDbEntity
  8
0
 62
1
100
AcDbSpline
 70
8
 71
3
 72
8
 73
4
 74
0
 40
0
 40
0
 40
0
 40
0
 40
1
 40
1
 40
1
 40
1
 10
108.101471
 20
82.692016
 30
0.0
 10
108.203237
 20
82.750771
 30
0.0
 10
108.265928
 20
82.859354
 30
0.0
 10
108.265928
 20
82.976864
 30
0.0
  0
LWPOLYLINE
  5
11a
100
AcDbEntity
  8
0
 62
1
100
AcDbPolyline
 90
2
 70
0
 10
117.418578
 20
82.976666
 30
0.0
 10
117.418578
 20
82.976666
 30
0.0
  0
SPLINE
  5
11b
100
AcDbEntity
  8
0
 62
1
100
AcDbSpline
 70
8
 71
3
 72
8
 73
4
 74
0
 40
0
 40
0
 40
0
 40
0
 40
1
 40
1
 40
1
 40
1
 10
116.346899
 20
83.570882
 30
0.0
 10
116.820659
 20
83.570882
 30
0.0
 10
117.204953
 20
84.149159
 30
0.0
 10
117.204953
 20
84.862729
 30
0.0
  0
LWPOLYLINE
  5
11c
100
AcDbEntity
  8
0
 62
1
100
AcDbPolyline
 90
2
 70
0
 10
108.265928
 20
82.976864
 30
0.0
 10
108.265928
 20
82.976864
 30
0.0
  0
SPLINE
  5
11d
100
AcDbEntity
  8
0
 62
1
100
AcDbSpline
 70
8
 71
3
 72
8
 73
4
 74
0
 40
0
 40
0
 40
0
 40
0
 40
1
 40
1
 40
1
 40
1
 10
117.204953
 20
89.685032
 30
0.0
 10
117.204953
 20
90.398306
 30
0.0
 10
116.248558
 20
92.268720
 30
0.0
 10
115.774795
 20
92.268720
 30
0.0
  0
LWPOLYLINE
  5
11e
100
AcDbEntity
  8
0
 62
1
100
AcDbPolyline
 90
2
 70
0
 10
117.204953
 20
84.862729
 30
0.0
 10
117.204953
 20
89.685032
 30
0.0
  0
SPLINE
  5
11f
100
AcDbEntity
  8
0
 62
1
100
AcDbSpline
 70
8
 71
3
 72
8
 73
4
 74
0
 40
0
 40
0
 40
0
 40
0
 40
1
 40
1
 40
1
 40
1
 10
109.196703
 20
92.268720
 30
0.0
 10
108.722744
 20
92.268720
 30
0.0
 10
107.766547
 20
90.398306
 30
0.0
 10
107.766547
 20
89.685032
 30
0.0
  0
LWPOLYLINE
  5
120
100
AcDbEntity
  8
0
 62
1
100
AcDbPolyline
 90
2
 70
0
 10
115.774795
 20
92.268720
 30
0.0
 10
109.196703
 20
92.268720
 30
0.0
  0
SPLINE
  5
121
100
AcDbEntity
  8
0
 62
1
100
AcDbSpline
 70
8
 71
3
 72
8
 73
4
 74
0
 40
0
 40
0
 40
0
 40
0
 40
1
 40
1
 40
1
 40
1
 10
107.766547
 20
84.862729
 30
0.0
 10
107.766547
 20
84.149159
 30
0.0
 10
108.150640
 20
83.570882
 30
0.0
 10
108.624601
 20
83.570882
 30
0.0
  0
LWPOLYLINE
  5
122
100
AcDbEntity
  8
0
 62
1
100
AcDbPolyline
 90
2
 70
0
 10
107.766547
 20
89.685032
 30
0.0
 10
107.766547
 20
84.862729
 30
0.0
  0
LWPOLYLINE
  5
123
100
AcDbEntity
  8
0
 62
1
100
AcDbPolyline
 90
2
 70
0
 10
108.624601
 20
83.570882
 30
0.0
 10
116.346899
 20
83.570882
 30
0.0
  0
SPLINE
  5
124
100
AcDbEntity
  8
0
 62
7
100
AcDbSpline
 70
8
 71
3
 72
8
 73
4
 74
0
 40
0
 40
0
 40
0
 40
0
 40
1
 40
1
 40
1
 40
1
 10
106.520350
 20
93.948030
 30
0.0
 10
105.888536
 20
93.948030
 30
0.0
 10
105.376342
 20
93.431304
 30
0.0
 10
105.376342
 20
92.793577
 30
0.0
  0
LWPOLYLINE
  5
125
100
AcDbEntity
  8
0
 62
7
100
AcDbPolyline
 90
22
 70
0
 10
116.657879
 20
79.576326
 30
0.0
 10
120.032354
 20
79.576326
 30
0.0
 10
120.032354
 20
87.079032
 30
0.0
 10
121.598492
 20
87.082588
 30
0.0
 10
121.595529
 20
88.569306
 30
0.0
 10
119.477392
 20
88.564678
 30
0.0
 10
119.478521
 20
87.932074
 30
0.0
 10
118.646874
 20
87.930098
 30
0.0
 10
118.645181
 20
88.562798
 30
0.0
 10
117.975922
 20
88.561387
 30
0.0
 10
117.974229
 20
89.573552
 30
0.0
 10
118.643487
 20
89.574963
 30
0.0
 10
118.641794
 20
90.207369
 30
0.0
 10
119.473441
 20
90.209345
 30
0.0
 10
119.475134
 20
89.576741
 30
0.0
 10
121.592879
 20
89.581877
 30
0.0
 10
121.589521
 20
91.068200
 30
0.0
 10
120.032249
 20
91.064644
 30
0.0
 10
120.032249
 20
93.398281
 30
0.0
 10
119.100292
 20
93.941708
 30
0.0
 10
106.520350
 20
93.941708
 30
0.0
 10
106.520350
 20
93.948030
 30
0.0
  0
SPLINE
  5
126
100
AcDbEntity
  8
0
 62
7
100
AcDbSpline
 70
8
 71
3
 72
8
 73
4
 74
0
 40
0
 40
0
 40
0
 40
0
 40
1
 40
1
 40
1
 40
1
 10
105.365900
 20
82.391978
 30
0.0
 10
105.365900
 20
81.759967
 30
0.0
 10
105.882626
 20
81.247773
 30
0.0
 10
106.520353
 20
81.247773
 30
0.0
  0
LWPOLYLINE
  5
127
100
AcDbEntity
  8
0
 62
7
100
AcDbPolyline
 90
2
 70
0
 10
105.376342
 20
92.793577
 30
0.0
 10
105.365900
 20
82.391978
 30
0.0
  0
LWPOLYLINE
  5
128
100
AcDbEntity
  8
0
 62
7
100
AcDbPolyline
 90
17
 70
0
 10
106.520353
 20
81.247773
 30
0.0
 10
109.557047
 20
81.247773
 30
0.0
 10
110.651197
 20
79.576351
 30
0.0
 10
112.786874
 20
79.576351
 30
0.0
 10
112.786874
 20
79.570227
 30
0.0
 10
112.786874
 20
77.995221
 30
0.0
 10
114.361485
 20
77.995221
 30
0.0
 10
114.361485
 20
79.570227
 30
0.0
 10
114.361485
 20
79.576351
 30
0.0
 10
115.635758
 20
79.576351
 30
0.0
 10
115.635758
 20
80.705184
 30
0.0
 10
114.996846
 20
80.705184
 30
0.0
 10
114.996846
 20
81.544959
 30
0.0
 10
117.296686
 20
81.544959
 30
0.0
 10
117.296686
 20
80.705184
 30
0.0
 10
116.657778
 20
80.705184
 30
0.0
 10
116.657778
 20
79.576351
 30
0.0
  0
ENDSEC
  0
SECTION
  2
OBJECTS
  0
DICTIONARY
  5
C
330
0
100
AcDbDictionary
  3
ACAD_GROUP
350
D
  3
ACAD_MLINESTYLE
350
17
  0
DICTIONARY
  5
D
330
C
100
AcDbDictionary
  0
DICTIONARY
  5
1A
330
C
100
AcDbDictionary
  0
DICTIONARY
  5
17
330
C
100
AcDbDictionary
  3
STANDARD
350
18
  0
DICTIONARY
  5
19
330
C
100
AcDbDictionary
  0
ENDSEC
  0
EOF
