<?xml version="1.0" encoding="UTF-8" standalone="no"?>
<!-- Created with Inkscape (http://www.inkscape.org/) -->

<svg
   xmlns:dc="http://purl.org/dc/elements/1.1/"
   xmlns:cc="http://creativecommons.org/ns#"
   xmlns:rdf="http://www.w3.org/1999/02/22-rdf-syntax-ns#"
   xmlns:svg="http://www.w3.org/2000/svg"
   xmlns="http://www.w3.org/2000/svg"
   version="1.1"
   width="744.09448"
   height="1052.3622"
   id="svg3158">
  <defs
     id="defs3160" />
  <metadata
     id="metadata3163">
    <rdf:RDF>
      <cc:Work
         rdf:about="">
        <dc:format>image/svg+xml</dc:format>
        <dc:type
           rdf:resource="http://purl.org/dc/dcmitype/StillImage" />
        <dc:title></dc:title>
      </cc:Work>
    </rdf:RDF>
  </metadata>
  <g
     id="layer1">
    <path
       d="m 353.52155,504.59347 c 0,-0.41637 -0.22213,-0.80112 -0.58272,-1.00931"
       id="path3005"
       style="fill:none;stroke:#ff0000" />
    <path
       d="m 352.93883,503.58416 c -0.36059,-0.20818 -0.80485,-0.20818 -1.16545,0"
       id="path3007"
       style="fill:none;stroke:#ff0000" />
    <path
       d="m 351.77338,503.58416 c -0.36058,0.20819 -0.58272,0.59294 -0.58272,1.00931"
       id="path3009"
       style="fill:none;stroke:#ff0000" />
    <path
       d="m 351.19066,504.59347 c 0,0.41637 0.22214,0.80112 0.58272,1.00931"
       id="path3011"
       style="fill:none;stroke:#ff0000" />
    <path
       d="m 351.77338,505.60278 c 0.3606,0.20818 0.80486,0.20818 1.16545,0"
       id="path3013"
       style="fill:none;stroke:#ff0000" />
    <path
       d="m 352.93883,505.60278 c 0.36059,-0.20819 0.58272,-0.59294 0.58272,-1.00931"
       id="path3015"
       style="fill:none;stroke:#ff0000" />
    <path
       d="m 385.9515,504.59347 c 0,-0.41637 -0.22213,-0.80112 -0.58272,-1.00931"
       id="path3017"
       style="fill:none;stroke:#ff0000" />
    <path
       d="m 385.36878,503.58416 c -0.36059,-0.20818 -0.80486,-0.20818 -1.16544,0"
       id="path3019"
       style="fill:none;stroke:#ff0000" />
    <path
       d="m 384.20334,503.58416 c -0.3606,0.20819 -0.58273,0.59294 -0.58273,1.00931"
       id="path3021"
       style="fill:none;stroke:#ff0000" />
    <path
       d="m 383.62061,504.59347 c 0,0.41637 0.22213,0.80112 0.58273,1.00931"
       id="path3023"
       style="fill:none;stroke:#ff0000" />
    <path
       d="m 384.20334,505.60278 c 0.36058,0.20818 0.80485,0.20818 1.16544,0"
       id="path3025"
       style="fill:none;stroke:#ff0000" />
    <path
       d="m 385.36878,505.60278 c 0.36059,-0.20819 0.58272,-0.59294 0.58272,-1.00931"
       id="path3027"
       style="fill:none;stroke:#ff0000" />
    <path
       d="m 353.52155,504.59347 0,0"
       id="path3029"
       style="fill:none;stroke:#ff0000" />
    <path
       d="m 385.9522,537.27376 c 0,-0.41637 -0.22213,-0.80112 -0.58272,-1.00931"
       id="path3031"
       style="fill:none;stroke:#ff0000" />
    <path
       d="m 385.36948,536.26445 c -0.36059,-0.20818 -0.80485,-0.20818 -1.16545,0"
       id="path3033"
       style="fill:none;stroke:#ff0000" />
    <path
       d="m 384.20403,536.26445 c -0.36058,0.20819 -0.58272,0.59294 -0.58272,1.00931"
       id="path3035"
       style="fill:none;stroke:#ff0000" />
    <path
       d="m 383.62131,537.27376 c 0,0.41637 0.22214,0.80112 0.58272,1.00931"
       id="path3037"
       style="fill:none;stroke:#ff0000" />
    <path
       d="m 384.20403,538.28307 c 0.3606,0.20818 0.80486,0.20818 1.16545,0"
       id="path3039"
       style="fill:none;stroke:#ff0000" />
    <path
       d="m 385.36948,538.28307 c 0.36059,-0.20819 0.58272,-0.59294 0.58272,-1.00931"
       id="path3041"
       style="fill:none;stroke:#ff0000" />
    <path
       d="m 385.9515,504.59347 0,0"
       id="path3043"
       style="fill:none;stroke:#ff0000" />
    <path
       d="m 353.52155,537.27306 c 0,-0.41637 -0.22213,-0.80112 -0.58272,-1.0093"
       id="path3045"
       style="fill:none;stroke:#ff0000" />
    <path
       d="m 352.93883,536.26376 c -0.36059,-0.20819 -0.80485,-0.20819 -1.16545,0"
       id="path3047"
       style="fill:none;stroke:#ff0000" />
    <path
       d="m 351.77338,536.26376 c -0.36058,0.20818 -0.58272,0.59293 -0.58272,1.0093"
       id="path3049"
       style="fill:none;stroke:#ff0000" />
    <path
       d="m 351.19066,537.27306 c 0,0.41637 0.22214,0.80112 0.58272,1.0093"
       id="path3051"
       style="fill:none;stroke:#ff0000" />
    <path
       d="m 351.77338,538.28236 c 0.3606,0.20819 0.80486,0.20819 1.16545,0"
       id="path3053"
       style="fill:none;stroke:#ff0000" />
    <path
       d="m 352.93883,538.28236 c 0.36059,-0.20818 0.58272,-0.59293 0.58272,-1.0093"
       id="path3055"
       style="fill:none;stroke:#ff0000" />
    <path
       d="m 385.9522,537.27376 0,0"
       id="path3057"
       style="fill:none;stroke:#ff0000" />
    <path
       d="m 382.15491,535.16827 c 1.67868,0 3.04035,-2.04901 3.04035,-4.57741"
       id="path3059"
       style="fill:none;stroke:#ff0000" />
    <path
       d="m 353.52155,537.27306 0,0"
       id="path3061"
       style="fill:none;stroke:#ff0000" />
    <path
       d="m 385.19526,513.50396 c 0,-2.52735 -3.3888,-9.1548 -5.06749,-9.1548"
       id="path3063"
       style="fill:none;stroke:#ff0000" />
    <path
       d="m 385.19526,530.59086 0,-17.0869"
       id="path3065"
       style="fill:none;stroke:#ff0000" />
    <path
       d="m 356.81957,504.34916 c -1.67938,0 -5.06748,6.62745 -5.06748,9.1548"
       id="path3067"
       style="fill:none;stroke:#ff0000" />
    <path
       d="m 380.12777,504.34916 -23.3082,0"
       id="path3069"
       style="fill:none;stroke:#ff0000" />
    <path
       d="m 351.75209,530.59086 c 0,2.5284 1.36096,4.57741 3.04035,4.57741"
       id="path3071"
       style="fill:none;stroke:#ff0000" />
    <path
       d="m 351.75209,513.50396 0,17.0869"
       id="path3073"
       style="fill:none;stroke:#ff0000" />
    <path
       d="m 354.79244,535.16827 27.36247,0"
       id="path3075"
       style="fill:none;stroke:#ff0000" />
  </g>
</svg>
