<?xml version="1.0" encoding="UTF-8" standalone="no"?>
<!-- Created with Inkscape (http://www.inkscape.org/) -->

<svg
   xmlns:dc="http://purl.org/dc/elements/1.1/"
   xmlns:cc="http://creativecommons.org/ns#"
   xmlns:rdf="http://www.w3.org/1999/02/22-rdf-syntax-ns#"
   xmlns:svg="http://www.w3.org/2000/svg"
   xmlns="http://www.w3.org/2000/svg"
   xmlns:sodipodi="http://sodipodi.sourceforge.net/DTD/sodipodi-0.dtd"
   xmlns:inkscape="http://www.inkscape.org/namespaces/inkscape"
   version="1.1"
   width="147.8625"
   height="246.85001"
   id="svg2985"
   xml:space="preserve"
   inkscape:version="0.48.2 r9819"
   sodipodi:docname="Ralph Solid Backing.svg"><sodipodi:namedview
     pagecolor="#ffffff"
     bordercolor="#666666"
     borderopacity="1"
     objecttolerance="10"
     gridtolerance="10"
     guidetolerance="10"
     inkscape:pageopacity="0"
     inkscape:pageshadow="2"
     inkscape:window-width="640"
     inkscape:window-height="480"
     id="namedview2998"
     showgrid="false"
     inkscape:zoom="0.95604616"
     inkscape:cx="73.931252"
     inkscape:cy="123.425"
     inkscape:window-x="0"
     inkscape:window-y="0"
     inkscape:window-maximized="0"
     inkscape:current-layer="svg2985" /><metadata
     id="metadata2991"><rdf:RDF><cc:Work
         rdf:about=""><dc:format>image/svg+xml</dc:format><dc:type
           rdf:resource="http://purl.org/dc/dcmitype/StillImage" /><dc:title /></cc:Work></rdf:RDF></metadata><defs
     id="defs2989"><clipPath
       id="clipPath3001"><path
         d="M 0,1974.81 0,0 l 1182.85,0 0,1974.81 -1182.85,0 z"
         id="path3003" /></clipPath></defs><g
     transform="matrix(1.25,0,0,-1.25,0,246.85)"
     id="g2993"><g
       transform="scale(0.1,0.1)"
       id="g2995"><g
         id="g2997"><g
           clip-path="url(#clipPath3001)"
           id="g2999"><path
             style="fill:#231f20;fill-opacity:1;fill-rule:nonzero;stroke:none"
             d="M 73.9375 0 C 56.837875 -0.00125 41.63775 6.1475 32 15.6875 L 56.59375 50.90625 L 40.03125 50.90625 C 37.310125 50.90625 35.09375 53.11125 35.09375 55.84375 L 35.09375 109.46875 L 8.59375 109.46875 C 5.8608375 109.46875 3.6430625 111.6625 3.5 114.40625 L 3.5 185.65625 C 1.3125 188.22213 0 191.5585 0 195.1875 C 0 199.67962 2.03515 203.705 5.21875 206.40625 L 9.21875 202.40625 C 7.0434625 200.74662 5.625 198.13375 5.625 195.1875 C 5.625 190.17237 9.70315 186.09375 14.71875 186.09375 C 19.734375 186.09375 23.78125 190.17238 23.78125 195.1875 C 23.78125 198.15863 22.359875 200.78125 20.15625 202.4375 L 24.15625 206.4375 C 27.36675 203.73775 29.40625 199.70113 29.40625 195.1875 C 29.40625 191.5625 28.090375 188.22262 25.90625 185.65625 L 25.9375 185.65625 L 25.9375 139.96875 L 32.40625 139.96875 L 32.40625 236.46875 L 28.15625 238.9375 L 28.15625 246.84375 L 71.78125 246.78125 L 71.78125 238.9375 L 67.4375 236.46875 L 67.4375 207.1875 L 80.40625 207.1875 L 80.40625 236.46875 L 76.0625 238.9375 L 76.0625 246.78125 L 119.78125 246.78125 L 119.78125 238.9375 L 115.4375 236.46875 L 115.4375 139.96875 L 121.90625 139.96875 L 121.90625 185.6875 L 121.9375 185.6875 C 119.754 188.25625 118.4375 191.56113 118.4375 195.1875 C 118.4375 199.70125 120.47713 203.76763 123.6875 206.46875 L 127.6875 202.46875 C 125.485 200.8115 124.0625 198.15725 124.0625 195.1875 C 124.0625 190.17088 128.14 186.125 133.15625 186.125 C 138.17125 186.125 142.21875 190.17087 142.21875 195.1875 C 142.21875 198.13388 140.83125 200.77738 138.65625 202.4375 L 142.65625 206.40625 C 145.84 203.7065 147.84375 199.67625 147.84375 195.1875 C 147.84375 191.55613 146.53125 188.25537 144.34375 185.6875 L 144.34375 114.40625 C 144.2 111.6625 141.98375 109.46875 139.25 109.46875 L 111.375 109.46875 L 111.375 55.84375 C 111.375 53.11125 109.13813 50.90625 106.40625 50.90625 L 91.09375 50.90625 L 115.8125 15.65625 C 106.17325 6.14125 91.00775 0 73.9375 0 z "
             transform="matrix(8,0,0,-8,0,1974.8)"
             id="path3005" /><path
             d="m 591.504,1691.33 c 72.566,0 138.301,-25.86 178.828,-64.78 l 32.031,45.65 c -50.605,45.33 -126.289,74.13 -210.859,74.13 l 0,0 c -84.793,0 -160.652,-28.94 -211.25,-74.48 l 32.004,-45.7 c 40.484,39.14 106.433,65.18 179.246,65.18"
             id="path3007"
             style="fill:#231f20;fill-opacity:1;fill-rule:nonzero;stroke:none" /></g></g></g></g></svg>