  0
SECTION
  2
HEADER
  9
$ACADVER
  1
AC1009
  9
$EXTMIN
 10
0.0
 20
0.0
 30
0.0
  9
$EXTMAX
 10
1000.0
 20
1000.0
 30
0.0
  9
$FILLMODE
 70
 0
  9
$SPLFRAME
 70
 1
  0
ENDSEC
  0
SECTION
  2
TABLES
  0
TABLE
  2
LAYER
 70
1
  0
LAYER
  2
0
 70
     0
 62
     7
  6
CONTINUOUS
  0
ENDTAB
  0
ENDSEC
  0
SECTION
  2
ENTITIES
  0
LINE
  8
0
 62
     250
 10
0.821506
 20
2.74274
 30
0.0
 11
0.683649
 21
2.73042
 31
0.0
  0
LINE
  8
0
 62
     250
 10
0.683649
 20
2.73042
 30
0.0
 11
0.557454
 21
2.69531
 31
0.0
  0
LINE
  8
0
 62
     250
 10
0.557454
 20
2.69531
 30
0.0
 11
0.446832
 21
2.64035
 31
0.0
  0
LINE
  8
0
 62
     250
 10
0.446832
 20
2.64035
 30
0.0
 11
0.355578
 21
2.56842
 31
0.0
  0
LINE
  8
0
 62
     250
 10
0.355578
 20
2.56842
 30
0.0
 11
0.388618
 21
2.52106
 31
0.0
  0
LINE
  8
0
 62
     250
 10
0.388618
 20
2.52106
 30
0.0
 11
0.399631
 21
2.50515
 31
0.0
  0
LINE
  8
0
 62
     250
 10
0.399631
 20
2.50515
 30
0.0
 11
0.479656
 21
2.5714
 31
0.0
  0
LINE
  8
0
 62
     250
 10
0.479656
 20
2.5714
 30
0.0
 11
0.579318
 21
2.62224
 31
0.0
  0
LINE
  8
0
 62
     250
 10
0.579318
 20
2.62224
 30
0.0
 11
0.694607
 21
2.65483
 31
0.0
  0
LINE
  8
0
 62
     250
 10
0.694607
 20
2.65483
 30
0.0
 11
0.821506
 21
2.66635
 31
0.0
  0
LINE
  8
0
 62
     250
 10
0.821506
 20
2.66635
 30
0.0
 11
0.948188
 21
2.65489
 31
0.0
  0
LINE
  8
0
 62
     250
 10
0.948188
 20
2.65489
 30
0.0
 11
1.06321
 21
2.62244
 31
0.0
  0
LINE
  8
0
 62
     250
 10
1.06321
 20
2.62244
 30
0.0
 11
1.16276
 21
2.57183
 31
0.0
  0
LINE
  8
0
 62
     250
 10
1.16276
 20
2.57183
 30
0.0
 11
1.24273
 21
2.50592
 31
0.0
  0
LINE
  8
0
 62
     250
 10
1.24273
 20
2.50592
 30
0.0
 11
1.25374
 21
2.52165
 31
0.0
  0
LINE
  8
0
 62
     250
 10
1.25374
 20
2.52165
 30
0.0
 11
1.26476
 21
2.53733
 31
0.0
  0
LINE
  8
0
 62
     250
 10
1.26476
 20
2.53733
 30
0.0
 11
1.28678
 21
2.56879
 31
0.0
  0
LINE
  8
0
 62
     250
 10
1.28678
 20
2.56879
 30
0.0
 11
1.19558
 21
2.64057
 31
0.0
  0
LINE
  8
0
 62
     250
 10
1.19558
 20
2.64057
 30
0.0
 11
1.08512
 21
2.69542
 31
0.0
  0
LINE
  8
0
 62
     250
 10
1.08512
 20
2.69542
 30
0.0
 11
0.959201
 21
2.73042
 31
0.0
  0
LINE
  8
0
 62
     250
 10
0.959201
 20
2.73042
 30
0.0
 11
0.821506
 21
2.74274
 31
0.0
  0
LINE
  8
0
 62
     250
 10
0.826389
 20
2.58751
 30
0.0
 11
0.712782
 21
2.57715
 31
0.0
  0
LINE
  8
0
 62
     250
 10
0.712782
 20
2.57715
 30
0.0
 11
0.60905
 21
2.54764
 31
0.0
  0
LINE
  8
0
 62
     250
 10
0.60905
 20
2.54764
 30
0.0
 11
0.518554
 21
2.50151
 31
0.0
  0
LINE
  8
0
 62
     250
 10
0.518554
 20
2.50151
 30
0.0
 11
0.444444
 21
2.44135
 31
0.0
  0
LINE
  8
0
 62
     250
 10
0.444444
 20
2.44135
 30
0.0
 11
0.455621
 21
2.42529
 31
0.0
  0
LINE
  8
0
 62
     250
 10
0.455621
 20
2.42529
 30
0.0
 11
0.466851
 21
2.4094
 31
0.0
  0
LINE
  8
0
 62
     250
 10
0.466851
 20
2.4094
 30
0.0
 11
0.478028
 21
2.39344
 31
0.0
  0
LINE
  8
0
 62
     250
 10
0.478028
 20
2.39344
 30
0.0
 11
0.489258
 21
2.37744
 31
0.0
  0
LINE
  8
0
 62
     250
 10
0.489258
 20
2.37744
 30
0.0
 11
0.5
 21
2.38883
 31
0.0
  0
LINE
  8
0
 62
     250
 10
0.5
 20
2.38883
 30
0.0
 11
0.511556
 21
2.40001
 31
0.0
  0
LINE
  8
0
 62
     250
 10
0.511556
 20
2.40001
 30
0.0
 11
0.523981
 21
2.41081
 31
0.0
  0
LINE
  8
0
 62
     250
 10
0.523981
 20
2.41081
 30
0.0
 11
0.537164
 21
2.42122
 31
0.0
  0
LINE
  8
0
 62
     250
 10
0.537164
 20
2.42122
 30
0.0
 11
0.599067
 21
2.45964
 31
0.0
  0
LINE
  8
0
 62
     250
 10
0.599067
 20
2.45964
 30
0.0
 11
0.669108
 21
2.48779
 31
0.0
  0
LINE
  8
0
 62
     250
 10
0.669108
 20
2.48779
 30
0.0
 11
0.745497
 21
2.50515
 31
0.0
  0
LINE
  8
0
 62
     250
 10
0.745497
 20
2.50515
 30
0.0
 11
0.826389
 21
2.51112
 31
0.0
  0
LINE
  8
0
 62
     250
 10
0.826389
 20
2.51112
 30
0.0
 11
0.907281
 21
2.50515
 31
0.0
  0
LINE
  8
0
 62
     250
 10
0.907281
 20
2.50515
 30
0.0
 11
0.98367
 21
2.48779
 31
0.0
  0
LINE
  8
0
 62
     250
 10
0.98367
 20
2.48779
 30
0.0
 11
1.05371
 21
2.45964
 31
0.0
  0
LINE
  8
0
 62
     250
 10
1.05371
 20
2.45964
 30
0.0
 11
1.11561
 21
2.42122
 31
0.0
  0
LINE
  8
0
 62
     250
 10
1.11561
 20
2.42122
 30
0.0
 11
1.12695
 21
2.41228
 31
0.0
  0
LINE
  8
0
 62
     250
 10
1.12695
 20
2.41228
 30
0.0
 11
1.13764
 21
2.40315
 31
0.0
  0
LINE
  8
0
 62
     250
 10
1.13764
 20
2.40315
 30
0.0
 11
1.14773
 21
2.39372
 31
0.0
  0
LINE
  8
0
 62
     250
 10
1.14773
 20
2.39372
 30
0.0
 11
1.15728
 21
2.38406
 31
0.0
  0
LINE
  8
0
 62
     250
 10
1.15728
 20
2.38406
 30
0.0
 11
1.16851
 21
2.39996
 31
0.0
  0
LINE
  8
0
 62
     250
 10
1.16851
 20
2.39996
 30
0.0
 11
1.17969
 21
2.41581
 31
0.0
  0
LINE
  8
0
 62
     250
 10
1.17969
 20
2.41581
 30
0.0
 11
1.19086
 21
2.43164
 31
0.0
  0
LINE
  8
0
 62
     250
 10
1.19086
 20
2.43164
 30
0.0
 11
1.20209
 21
2.4476
 31
0.0
  0
LINE
  8
0
 62
     250
 10
1.20209
 20
2.4476
 30
0.0
 11
1.12831
 21
2.50532
 31
0.0
  0
LINE
  8
0
 62
     250
 10
1.12831
 20
2.50532
 30
0.0
 11
1.03906
 21
2.54943
 31
0.0
  0
LINE
  8
0
 62
     250
 10
1.03906
 20
2.54943
 30
0.0
 11
0.937392
 21
2.57764
 31
0.0
  0
LINE
  8
0
 62
     250
 10
0.937392
 20
2.57764
 30
0.0
 11
0.826389
 21
2.58751
 31
0.0
  0
LINE
  8
0
 62
     250
 10
0.821506
 20
2.42529
 30
0.0
 11
0.735894
 21
2.41808
 31
0.0
  0
LINE
  8
0
 62
     250
 10
0.735894
 20
2.41808
 30
0.0
 11
0.65701
 21
2.39735
 31
0.0
  0
LINE
  8
0
 62
     250
 10
0.65701
 20
2.39735
 30
0.0
 11
0.587076
 21
2.36475
 31
0.0
  0
LINE
  8
0
 62
     250
 10
0.587076
 20
2.36475
 30
0.0
 11
0.528103
 21
2.32189
 31
0.0
  0
LINE
  8
0
 62
     250
 10
0.528103
 20
2.32189
 30
0.0
 11
0.539225
 21
2.30599
 31
0.0
  0
LINE
  8
0
 62
     250
 10
0.539225
 20
2.30599
 30
0.0
 11
0.550347
 21
2.29015
 31
0.0
  0
LINE
  8
0
 62
     250
 10
0.550347
 20
2.29015
 30
0.0
 11
0.572592
 21
2.25836
 31
0.0
  0
LINE
  8
0
 62
     250
 10
0.572592
 20
2.25836
 30
0.0
 11
0.620985
 21
2.29546
 31
0.0
  0
LINE
  8
0
 62
     250
 10
0.620985
 20
2.29546
 30
0.0
 11
0.680231
 21
2.324
 31
0.0
  0
LINE
  8
0
 62
     250
 10
0.680231
 20
2.324
 30
0.0
 11
0.747885
 21
2.34244
 31
0.0
  0
LINE
  8
0
 62
     250
 10
0.747885
 20
2.34244
 30
0.0
 11
0.821506
 21
2.3489
 31
0.0
  0
LINE
  8
0
 62
     250
 10
0.821506
 20
2.3489
 30
0.0
 11
0.894911
 21
2.34256
 31
0.0
  0
LINE
  8
0
 62
     250
 10
0.894911
 20
2.34256
 30
0.0
 11
0.962349
 21
2.32428
 31
0.0
  0
LINE
  8
0
 62
     250
 10
0.962349
 20
2.32428
 30
0.0
 11
1.02143
 21
2.2959
 31
0.0
  0
LINE
  8
0
 62
     250
 10
1.02143
 20
2.2959
 30
0.0
 11
1.06977
 21
2.25906
 31
0.0
  0
LINE
  8
0
 62
     250
 10
1.06977
 20
2.25906
 30
0.0
 11
1.08089
 21
2.27496
 31
0.0
  0
LINE
  8
0
 62
     250
 10
1.08089
 20
2.27496
 30
0.0
 11
1.09201
 21
2.29081
 31
0.0
  0
LINE
  8
0
 62
     250
 10
1.09201
 20
2.29081
 30
0.0
 11
1.11426
 21
2.3226
 31
0.0
  0
LINE
  8
0
 62
     250
 10
1.11426
 20
2.3226
 30
0.0
 11
1.05539
 21
2.36524
 31
0.0
  0
LINE
  8
0
 62
     250
 10
1.05539
 20
2.36524
 30
0.0
 11
0.985568
 21
2.39751
 31
0.0
  0
LINE
  8
0
 62
     250
 10
0.985568
 20
2.39751
 30
0.0
 11
0.906956
 21
2.41818
 31
0.0
  0
LINE
  8
0
 62
     250
 10
0.906956
 20
2.41818
 30
0.0
 11
0.821506
 21
2.42529
 31
0.0
  0
LINE
  8
0
 62
     250
 10
0.444769
 20
2.17703
 30
0.0
 11
0.423449
 21
2.17279
 31
0.0
  0
LINE
  8
0
 62
     250
 10
0.423449
 20
2.17279
 30
0.0
 11
0.406033
 21
2.16108
 31
0.0
  0
LINE
  8
0
 62
     250
 10
0.406033
 20
2.16108
 30
0.0
 11
0.39426
 21
2.14361
 31
0.0
  0
LINE
  8
0
 62
     250
 10
0.39426
 20
2.14361
 30
0.0
 11
0.389919
 21
2.12224
 31
0.0
  0
LINE
  8
0
 62
     250
 10
0.389919
 20
2.12224
 30
0.0
 11
0.389919
 21
1.641
 31
0.0
  0
LINE
  8
0
 62
     250
 10
0.389919
 20
1.641
 30
0.0
 11
0.39426
 21
1.61968
 31
0.0
  0
LINE
  8
0
 62
     250
 10
0.39426
 20
1.61968
 30
0.0
 11
0.406033
 21
1.60226
 31
0.0
  0
LINE
  8
0
 62
     250
 10
0.406033
 20
1.60226
 30
0.0
 11
0.423449
 21
1.59044
 31
0.0
  0
LINE
  8
0
 62
     250
 10
0.423449
 20
1.59044
 30
0.0
 11
0.444769
 21
1.58615
 31
0.0
  0
LINE
  8
0
 62
     250
 10
0.444769
 20
1.58615
 30
0.0
 11
1.18229
 21
1.58615
 31
0.0
  0
LINE
  8
0
 62
     250
 10
1.18229
 20
1.58615
 30
0.0
 11
1.20372
 21
1.59044
 31
0.0
  0
LINE
  8
0
 62
     250
 10
1.20372
 20
1.59044
 30
0.0
 11
1.2213
 21
1.60226
 31
0.0
  0
LINE
  8
0
 62
     250
 10
1.2213
 20
1.60226
 30
0.0
 11
1.23313
 21
1.61968
 31
0.0
  0
LINE
  8
0
 62
     250
 10
1.23313
 20
1.61968
 30
0.0
 11
1.23752
 21
1.641
 31
0.0
  0
LINE
  8
0
 62
     250
 10
1.23752
 20
1.641
 30
0.0
 11
1.23752
 21
2.12224
 31
0.0
  0
LINE
  8
0
 62
     250
 10
1.23752
 20
2.12224
 30
0.0
 11
1.23313
 21
2.14361
 31
0.0
  0
LINE
  8
0
 62
     250
 10
1.23313
 20
2.14361
 30
0.0
 11
1.2213
 21
2.16108
 31
0.0
  0
LINE
  8
0
 62
     250
 10
1.2213
 20
2.16108
 30
0.0
 11
1.20372
 21
2.17279
 31
0.0
  0
LINE
  8
0
 62
     250
 10
1.20372
 20
2.17279
 30
0.0
 11
1.18229
 21
2.17703
 31
0.0
  0
LINE
  8
0
 62
     250
 10
1.18229
 20
2.17703
 30
0.0
 11
0.629178
 21
2.17703
 31
0.0
  0
LINE
  8
0
 62
     250
 10
0.629178
 20
2.17703
 30
0.0
 11
0.444769
 21
2.17703
 31
0.0
  0
LINE
  8
0
 62
     250
 10
0.625706
 20
2.0121
 30
0.0
 11
0.662218
 21
2.00478
 31
0.0
  0
LINE
  8
0
 62
     250
 10
0.662218
 20
2.00478
 30
0.0
 11
0.692003
 21
1.9846
 31
0.0
  0
LINE
  8
0
 62
     250
 10
0.692003
 20
1.9846
 30
0.0
 11
0.712076
 21
1.95469
 31
0.0
  0
LINE
  8
0
 62
     250
 10
0.712076
 20
1.95469
 30
0.0
 11
0.719456
 21
1.91808
 31
0.0
  0
LINE
  8
0
 62
     250
 10
0.719456
 20
1.91808
 30
0.0
 11
0.712076
 21
1.88163
 31
0.0
  0
LINE
  8
0
 62
     250
 10
0.712076
 20
1.88163
 30
0.0
 11
0.692003
 21
1.85178
 31
0.0
  0
LINE
  8
0
 62
     250
 10
0.692003
 20
1.85178
 30
0.0
 11
0.662218
 21
1.83171
 31
0.0
  0
LINE
  8
0
 62
     250
 10
0.662218
 20
1.83171
 30
0.0
 11
0.625706
 21
1.82433
 31
0.0
  0
LINE
  8
0
 62
     250
 10
0.625706
 20
1.82433
 30
0.0
 11
0.589193
 21
1.83171
 31
0.0
  0
LINE
  8
0
 62
     250
 10
0.589193
 20
1.83171
 30
0.0
 11
0.559407
 21
1.85178
 31
0.0
  0
LINE
  8
0
 62
     250
 10
0.559407
 20
1.85178
 30
0.0
 11
0.539333
 21
1.88163
 31
0.0
  0
LINE
  8
0
 62
     250
 10
0.539333
 20
1.88163
 30
0.0
 11
0.531956
 21
1.91808
 31
0.0
  0
LINE
  8
0
 62
     250
 10
0.531956
 20
1.91808
 30
0.0
 11
0.539333
 21
1.95469
 31
0.0
  0
LINE
  8
0
 62
     250
 10
0.539333
 20
1.95469
 30
0.0
 11
0.559407
 21
1.9846
 31
0.0
  0
LINE
  8
0
 62
     250
 10
0.559407
 20
1.9846
 30
0.0
 11
0.589193
 21
2.00478
 31
0.0
  0
LINE
  8
0
 62
     250
 10
0.589193
 20
2.00478
 30
0.0
 11
0.625706
 21
2.0121
 31
0.0
  0
LINE
  8
0
 62
     250
 10
1.00277
 20
2.0121
 30
0.0
 11
1.03933
 21
2.00478
 31
0.0
  0
LINE
  8
0
 62
     250
 10
1.03933
 20
2.00478
 30
0.0
 11
1.06912
 21
1.9846
 31
0.0
  0
LINE
  8
0
 62
     250
 10
1.06912
 20
1.9846
 30
0.0
 11
1.08919
 21
1.95469
 31
0.0
  0
LINE
  8
0
 62
     250
 10
1.08919
 20
1.95469
 30
0.0
 11
1.09652
 21
1.91808
 31
0.0
  0
LINE
  8
0
 62
     250
 10
1.09652
 20
1.91808
 30
0.0
 11
1.08919
 21
1.88163
 31
0.0
  0
LINE
  8
0
 62
     250
 10
1.08919
 20
1.88163
 30
0.0
 11
1.06912
 21
1.85178
 31
0.0
  0
LINE
  8
0
 62
     250
 10
1.06912
 20
1.85178
 30
0.0
 11
1.03933
 21
1.83171
 31
0.0
  0
LINE
  8
0
 62
     250
 10
1.03933
 20
1.83171
 30
0.0
 11
1.00277
 21
1.82433
 31
0.0
  0
LINE
  8
0
 62
     250
 10
1.00277
 20
1.82433
 30
0.0
 11
0.966146
 21
1.83171
 31
0.0
  0
LINE
  8
0
 62
     250
 10
0.966146
 20
1.83171
 30
0.0
 11
0.936253
 21
1.85178
 31
0.0
  0
LINE
  8
0
 62
     250
 10
0.936253
 20
1.85178
 30
0.0
 11
0.916069
 21
1.88163
 31
0.0
  0
LINE
  8
0
 62
     250
 10
0.916069
 20
1.88163
 30
0.0
 11
0.908692
 21
1.91808
 31
0.0
  0
LINE
  8
0
 62
     250
 10
0.908692
 20
1.91808
 30
0.0
 11
0.916069
 21
1.95469
 31
0.0
  0
LINE
  8
0
 62
     250
 10
0.916069
 20
1.95469
 30
0.0
 11
0.936253
 21
1.9846
 31
0.0
  0
LINE
  8
0
 62
     250
 10
0.936253
 20
1.9846
 30
0.0
 11
0.966146
 21
2.00478
 31
0.0
  0
LINE
  8
0
 62
     250
 10
0.966146
 20
2.00478
 30
0.0
 11
1.00277
 21
2.0121
 31
0.0
  0
LINE
  8
0
 62
     250
 10
0.625706
 20
1.96636
 30
0.0
 11
0.607042
 21
1.96257
 31
0.0
  0
LINE
  8
0
 62
     250
 10
0.607042
 20
1.96257
 30
0.0
 11
0.591851
 21
1.95221
 31
0.0
  0
LINE
  8
0
 62
     250
 10
0.591851
 20
1.95221
 30
0.0
 11
0.581543
 21
1.93685
 31
0.0
  0
LINE
  8
0
 62
     250
 10
0.581543
 20
1.93685
 30
0.0
 11
0.5778
 21
1.91808
 31
0.0
  0
LINE
  8
0
 62
     250
 10
0.5778
 20
1.91808
 30
0.0
 11
0.581543
 21
1.89942
 31
0.0
  0
LINE
  8
0
 62
     250
 10
0.581543
 20
1.89942
 30
0.0
 11
0.591851
 21
1.88422
 31
0.0
  0
LINE
  8
0
 62
     250
 10
0.591851
 20
1.88422
 30
0.0
 11
0.607042
 21
1.87392
 31
0.0
  0
LINE
  8
0
 62
     250
 10
0.607042
 20
1.87392
 30
0.0
 11
0.625706
 21
1.87017
 31
0.0
  0
LINE
  8
0
 62
     250
 10
0.625706
 20
1.87017
 30
0.0
 11
0.644476
 21
1.87392
 31
0.0
  0
LINE
  8
0
 62
     250
 10
0.644476
 20
1.87392
 30
0.0
 11
0.659831
 21
1.88422
 31
0.0
  0
LINE
  8
0
 62
     250
 10
0.659831
 20
1.88422
 30
0.0
 11
0.670139
 21
1.89942
 31
0.0
  0
LINE
  8
0
 62
     250
 10
0.670139
 20
1.89942
 30
0.0
 11
0.673936
 21
1.91808
 31
0.0
  0
LINE
  8
0
 62
     250
 10
0.673936
 20
1.91808
 30
0.0
 11
0.670139
 21
1.93685
 31
0.0
  0
LINE
  8
0
 62
     250
 10
0.670139
 20
1.93685
 30
0.0
 11
0.659831
 21
1.95221
 31
0.0
  0
LINE
  8
0
 62
     250
 10
0.659831
 20
1.95221
 30
0.0
 11
0.644476
 21
1.96257
 31
0.0
  0
LINE
  8
0
 62
     250
 10
0.644476
 20
1.96257
 30
0.0
 11
0.625706
 21
1.96636
 31
0.0
  0
LINE
  8
0
 62
     250
 10
1.00277
 20
1.96636
 30
0.0
 11
0.984104
 21
1.96257
 31
0.0
  0
LINE
  8
0
 62
     250
 10
0.984104
 20
1.96257
 30
0.0
 11
0.968858
 21
1.95221
 31
0.0
  0
LINE
  8
0
 62
     250
 10
0.968858
 20
1.95221
 30
0.0
 11
0.958604
 21
1.93685
 31
0.0
  0
LINE
  8
0
 62
     250
 10
0.958604
 20
1.93685
 30
0.0
 11
0.954861
 21
1.91808
 31
0.0
  0
LINE
  8
0
 62
     250
 10
0.954861
 20
1.91808
 30
0.0
 11
0.958604
 21
1.89942
 31
0.0
  0
LINE
  8
0
 62
     250
 10
0.958604
 20
1.89942
 30
0.0
 11
0.968858
 21
1.88422
 31
0.0
  0
LINE
  8
0
 62
     250
 10
0.968858
 20
1.88422
 30
0.0
 11
0.984104
 21
1.87392
 31
0.0
  0
LINE
  8
0
 62
     250
 10
0.984104
 20
1.87392
 30
0.0
 11
1.00277
 21
1.87017
 31
0.0
  0
LINE
  8
0
 62
     250
 10
1.00277
 20
1.87017
 30
0.0
 11
1.02148
 21
1.87392
 31
0.0
  0
LINE
  8
0
 62
     250
 10
1.02148
 20
1.87392
 30
0.0
 11
1.03684
 21
1.88422
 31
0.0
  0
LINE
  8
0
 62
     250
 10
1.03684
 20
1.88422
 30
0.0
 11
1.0472
 21
1.89942
 31
0.0
  0
LINE
  8
0
 62
     250
 10
1.0472
 20
1.89942
 30
0.0
 11
1.05105
 21
1.91808
 31
0.0
  0
LINE
  8
0
 62
     250
 10
1.05105
 20
1.91808
 30
0.0
 11
1.0472
 21
1.93685
 31
0.0
  0
LINE
  8
0
 62
     250
 10
1.0472
 20
1.93685
 30
0.0
 11
1.03684
 21
1.95221
 31
0.0
  0
LINE
  8
0
 62
     250
 10
1.03684
 20
1.95221
 30
0.0
 11
1.02148
 21
1.96257
 31
0.0
  0
LINE
  8
0
 62
     250
 10
1.02148
 20
1.96257
 30
0.0
 11
1.00277
 21
1.96636
 31
0.0
  0
LINE
  8
0
 62
     250
 10
0.0899522
 20
1.52642
 30
0.0
 11
0.0704753
 21
1.52067
 31
0.0
  0
LINE
  8
0
 62
     250
 10
0.0704753
 20
1.52067
 30
0.0
 11
0.054579
 21
1.50863
 31
0.0
  0
LINE
  8
0
 62
     250
 10
0.054579
 20
1.50863
 30
0.0
 11
0.0436197
 21
1.49181
 31
0.0
  0
LINE
  8
0
 62
     250
 10
0.0436197
 20
1.49181
 30
0.0
 11
0.0388997
 21
1.47157
 31
0.0
  0
LINE
  8
0
 62
     250
 10
0.0388997
 20
1.47157
 30
0.0
 11
0.0388997
 21
0.679904
 31
0.0
  0
LINE
  8
0
 62
     250
 10
0.0388997
 20
0.679904
 30
0.0
 11
0.0225694
 21
0.656956
 31
0.0
  0
LINE
  8
0
 62
     250
 10
0.0225694
 20
0.656956
 30
0.0
 11
0.0103082
 21
0.631293
 31
0.0
  0
LINE
  8
0
 62
     250
 10
0.0103082
 20
0.631293
 30
0.0
 11
0.00265842
 21
0.603515
 31
0.0
  0
LINE
  8
0
 62
     250
 10
0.00265842
 20
0.603515
 30
0.0
 11
0
 21
0.574001
 31
0.0
  0
LINE
  8
0
 62
     250
 10
0
 20
0.574001
 30
0.0
 11
0.00406901
 21
0.537597
 31
0.0
  0
LINE
  8
0
 62
     250
 10
0.00406901
 20
0.537597
 30
0.0
 11
0.0157335
 21
0.504178
 31
0.0
  0
LINE
  8
0
 62
     250
 10
0.0157335
 20
0.504178
 30
0.0
 11
0.0340169
 21
0.474447
 31
0.0
  0
LINE
  8
0
 62
     250
 10
0.0340169
 20
0.474447
 30
0.0
 11
0.0579969
 21
0.449328
 31
0.0
  0
LINE
  8
0
 62
     250
 10
0.0579969
 20
0.449328
 30
0.0
 11
0.0691189
 21
0.460449
 31
0.0
  0
LINE
  8
0
 62
     250
 10
0.0691189
 20
0.460449
 30
0.0
 11
0.0801867
 21
0.471571
 31
0.0
  0
LINE
  8
0
 62
     250
 10
0.0801867
 20
0.471571
 30
0.0
 11
0.0913086
 21
0.482585
 31
0.0
  0
LINE
  8
0
 62
     250
 10
0.0913086
 20
0.482585
 30
0.0
 11
0.102431
 21
0.493761
 31
0.0
  0
LINE
  8
0
 62
     250
 10
0.102431
 20
0.493761
 30
0.0
 11
0.0859918
 21
0.509494
 31
0.0
  0
LINE
  8
0
 62
     250
 10
0.0859918
 20
0.509494
 30
0.0
 11
0.073405
 21
0.528537
 31
0.0
  0
LINE
  8
0
 62
     250
 10
0.073405
 20
0.528537
 30
0.0
 11
0.0653211
 21
0.550239
 31
0.0
  0
LINE
  8
0
 62
     250
 10
0.0653211
 20
0.550239
 30
0.0
 11
0.0625
 21
0.574001
 31
0.0
  0
LINE
  8
0
 62
     250
 10
0.0625
 20
0.574001
 30
0.0
 11
0.0704753
 21
0.613281
 31
0.0
  0
LINE
  8
0
 62
     250
 10
0.0704753
 20
0.613281
 30
0.0
 11
0.0921224
 21
0.6454
 31
0.0
  0
LINE
  8
0
 62
     250
 10
0.0921224
 20
0.6454
 30
0.0
 11
0.12424
 21
0.667046
 31
0.0
  0
LINE
  8
0
 62
     250
 10
0.12424
 20
0.667046
 30
0.0
 11
0.163519
 21
0.675022
 31
0.0
  0
LINE
  8
0
 62
     250
 10
0.163519
 20
0.675022
 30
0.0
 11
0.2028
 21
0.667046
 31
0.0
  0
LINE
  8
0
 62
     250
 10
0.2028
 20
0.667046
 30
0.0
 11
0.234808
 21
0.6454
 31
0.0
  0
LINE
  8
0
 62
     250
 10
0.234808
 20
0.6454
 30
0.0
 11
0.256347
 21
0.613281
 31
0.0
  0
LINE
  8
0
 62
     250
 10
0.256347
 20
0.613281
 30
0.0
 11
0.264214
 21
0.574001
 31
0.0
  0
LINE
  8
0
 62
     250
 10
0.264214
 20
0.574001
 30
0.0
 11
0.261393
 21
0.550076
 31
0.0
  0
LINE
  8
0
 62
     250
 10
0.261393
 20
0.550076
 30
0.0
 11
0.253256
 21
0.528211
 31
0.0
  0
LINE
  8
0
 62
     250
 10
0.253256
 20
0.528211
 30
0.0
 11
0.24056
 21
0.509114
 31
0.0
  0
LINE
  8
0
 62
     250
 10
0.24056
 20
0.509114
 30
0.0
 11
0.223958
 21
0.493435
 31
0.0
  0
LINE
  8
0
 62
     250
 10
0.223958
 20
0.493435
 30
0.0
 11
0.246203
 21
0.471192
 31
0.0
  0
LINE
  8
0
 62
     250
 10
0.246203
 20
0.471192
 30
0.0
 11
0.257269
 21
0.460015
 31
0.0
  0
LINE
  8
0
 62
     250
 10
0.257269
 20
0.460015
 30
0.0
 11
0.268392
 21
0.449001
 31
0.0
  0
LINE
  8
0
 62
     250
 10
0.268392
 20
0.449001
 30
0.0
 11
0.292589
 21
0.474121
 31
0.0
  0
LINE
  8
0
 62
     250
 10
0.292589
 20
0.474121
 30
0.0
 11
0.310926
 21
0.503906
 31
0.0
  0
LINE
  8
0
 62
     250
 10
0.310926
 20
0.503906
 30
0.0
 11
0.322646
 21
0.537489
 31
0.0
  0
LINE
  8
0
 62
     250
 10
0.322646
 20
0.537489
 30
0.0
 11
0.326714
 21
0.574001
 31
0.0
  0
LINE
  8
0
 62
     250
 10
0.326714
 20
0.574001
 30
0.0
 11
0.324056
 21
0.603515
 31
0.0
  0
LINE
  8
0
 62
     250
 10
0.324056
 20
0.603515
 30
0.0
 11
0.316406
 21
0.631293
 31
0.0
  0
LINE
  8
0
 62
     250
 10
0.316406
 20
0.631293
 30
0.0
 11
0.304144
 21
0.656956
 31
0.0
  0
LINE
  8
0
 62
     250
 10
0.304144
 20
0.656956
 30
0.0
 11
0.287869
 21
0.679904
 31
0.0
  0
LINE
  8
0
 62
     250
 10
0.287869
 20
0.679904
 30
0.0
 11
0.288194
 21
0.679904
 31
0.0
  0
LINE
  8
0
 62
     250
 10
0.288194
 20
0.679904
 30
0.0
 11
0.288194
 21
1.18745
 31
0.0
  0
LINE
  8
0
 62
     250
 10
0.288194
 20
1.18745
 30
0.0
 11
0.360081
 21
1.18745
 31
0.0
  0
LINE
  8
0
 62
     250
 10
0.360081
 20
1.18745
 30
0.0
 11
0.360081
 21
0.115289
 31
0.0
  0
LINE
  8
0
 62
     250
 10
0.360081
 20
0.115289
 30
0.0
 11
0.348253
 21
0.108453
 31
0.0
  0
LINE
  8
0
 62
     250
 10
0.348253
 20
0.108453
 30
0.0
 11
0.336481
 21
0.101563
 31
0.0
  0
LINE
  8
0
 62
     250
 10
0.336481
 20
0.101563
 30
0.0
 11
0.312825
 21
0.0878906
 31
0.0
  0
LINE
  8
0
 62
     250
 10
0.312825
 20
0.0878906
 30
0.0
 11
0.312825
 21
-5.42535e-05
 31
0.0
  0
LINE
  8
0
 62
     250
 10
0.312825
 20
-5.42535e-05
 30
0.0
 11
0.434028
 21
0.000217014
 31
0.0
  0
LINE
  8
0
 62
     250
 10
0.434028
 20
0.000217014
 30
0.0
 11
0.555231
 21
0.000379775
 31
0.0
  0
LINE
  8
0
 62
     250
 10
0.555231
 20
0.000379775
 30
0.0
 11
0.676378
 21
0.000488281
 31
0.0
  0
LINE
  8
0
 62
     250
 10
0.676378
 20
0.000488281
 30
0.0
 11
0.797581
 21
0.000705294
 31
0.0
  0
LINE
  8
0
 62
     250
 10
0.797581
 20
0.000705294
 30
0.0
 11
0.797581
 21
0.0878906
 31
0.0
  0
LINE
  8
0
 62
     250
 10
0.797581
 20
0.0878906
 30
0.0
 11
0.785482
 21
0.0947265
 31
0.0
  0
LINE
  8
0
 62
     250
 10
0.785482
 20
0.0947265
 30
0.0
 11
0.773438
 21
0.101563
 31
0.0
  0
LINE
  8
0
 62
     250
 10
0.773438
 20
0.101563
 30
0.0
 11
0.761393
 21
0.108453
 31
0.0
  0
LINE
  8
0
 62
     250
 10
0.761393
 20
0.108453
 30
0.0
 11
0.749294
 21
0.115289
 31
0.0
  0
LINE
  8
0
 62
     250
 10
0.749294
 20
0.115289
 30
0.0
 11
0.749294
 21
0.440647
 31
0.0
  0
LINE
  8
0
 62
     250
 10
0.749294
 20
0.440647
 30
0.0
 11
0.893392
 21
0.440647
 31
0.0
  0
LINE
  8
0
 62
     250
 10
0.893392
 20
0.440647
 30
0.0
 11
0.893392
 21
0.115289
 31
0.0
  0
LINE
  8
0
 62
     250
 10
0.893392
 20
0.115289
 30
0.0
 11
0.881347
 21
0.108453
 31
0.0
  0
LINE
  8
0
 62
     250
 10
0.881347
 20
0.108453
 30
0.0
 11
0.869249
 21
0.101563
 31
0.0
  0
LINE
  8
0
 62
     250
 10
0.869249
 20
0.101563
 30
0.0
 11
0.845161
 21
0.0878906
 31
0.0
  0
LINE
  8
0
 62
     250
 10
0.845161
 20
0.0878906
 30
0.0
 11
0.845161
 21
0.000705294
 31
0.0
  0
LINE
  8
0
 62
     250
 10
0.845161
 20
0.000705294
 30
0.0
 11
1.33089
 21
0.000705294
 31
0.0
  0
LINE
  8
0
 62
     250
 10
1.33089
 20
0.000705294
 30
0.0
 11
1.33089
 21
0.0878906
 31
0.0
  0
LINE
  8
0
 62
     250
 10
1.33089
 20
0.0878906
 30
0.0
 11
1.31885
 21
0.0947265
 31
0.0
  0
LINE
  8
0
 62
     250
 10
1.31885
 20
0.0947265
 30
0.0
 11
1.30675
 21
0.101563
 31
0.0
  0
LINE
  8
0
 62
     250
 10
1.30675
 20
0.101563
 30
0.0
 11
1.29471
 21
0.108453
 31
0.0
  0
LINE
  8
0
 62
     250
 10
1.29471
 20
0.108453
 30
0.0
 11
1.28266
 21
0.115289
 31
0.0
  0
LINE
  8
0
 62
     250
 10
1.28266
 20
0.115289
 30
0.0
 11
1.28266
 21
1.18745
 31
0.0
  0
LINE
  8
0
 62
     250
 10
1.28266
 20
1.18745
 30
0.0
 11
1.35449
 21
1.18745
 31
0.0
  0
LINE
  8
0
 62
     250
 10
1.35449
 20
1.18745
 30
0.0
 11
1.35449
 21
0.679525
 31
0.0
  0
LINE
  8
0
 62
     250
 10
1.35449
 20
0.679525
 30
0.0
 11
1.35487
 21
0.679525
 31
0.0
  0
LINE
  8
0
 62
     250
 10
1.35487
 20
0.679525
 30
0.0
 11
1.33854
 21
0.656683
 31
0.0
  0
LINE
  8
0
 62
     250
 10
1.33854
 20
0.656683
 30
0.0
 11
1.32633
 21
0.631185
 31
0.0
  0
LINE
  8
0
 62
     250
 10
1.32633
 20
0.631185
 30
0.0
 11
1.31863
 21
0.603461
 31
0.0
  0
LINE
  8
0
 62
     250
 10
1.31863
 20
0.603461
 30
0.0
 11
1.31597
 21
0.574001
 31
0.0
  0
LINE
  8
0
 62
     250
 10
1.31597
 20
0.574001
 30
0.0
 11
1.3201
 21
0.537435
 31
0.0
  0
LINE
  8
0
 62
     250
 10
1.3201
 20
0.537435
 30
0.0
 11
1.33176
 21
0.503743
 31
0.0
  0
LINE
  8
0
 62
     250
 10
1.33176
 20
0.503743
 30
0.0
 11
1.35015
 21
0.47385
 31
0.0
  0
LINE
  8
0
 62
     250
 10
1.35015
 20
0.47385
 30
0.0
 11
1.37429
 21
0.448622
 31
0.0
  0
LINE
  8
0
 62
     250
 10
1.37429
 20
0.448622
 30
0.0
 11
1.40767
 21
0.481987
 31
0.0
  0
LINE
  8
0
 62
     250
 10
1.40767
 20
0.481987
 30
0.0
 11
1.41878
 21
0.493001
 31
0.0
  0
LINE
  8
0
 62
     250
 10
1.41878
 20
0.493001
 30
0.0
 11
1.40213
 21
0.508843
 31
0.0
  0
LINE
  8
0
 62
     250
 10
1.40213
 20
0.508843
 30
0.0
 11
1.38943
 21
0.528049
 31
0.0
  0
LINE
  8
0
 62
     250
 10
1.38943
 20
0.528049
 30
0.0
 11
1.38135
 21
0.550022
 31
0.0
  0
LINE
  8
0
 62
     250
 10
1.38135
 20
0.550022
 30
0.0
 11
1.37847
 21
0.574001
 31
0.0
  0
LINE
  8
0
 62
     250
 10
1.37847
 20
0.574001
 30
0.0
 11
1.38645
 21
0.613226
 31
0.0
  0
LINE
  8
0
 62
     250
 10
1.38645
 20
0.613226
 30
0.0
 11
1.4081
 21
0.645182
 31
0.0
  0
LINE
  8
0
 62
     250
 10
1.4081
 20
0.645182
 30
0.0
 11
1.44021
 21
0.666775
 31
0.0
  0
LINE
  8
0
 62
     250
 10
1.44021
 20
0.666775
 30
0.0
 11
1.47954
 21
0.674696
 31
0.0
  0
LINE
  8
0
 62
     250
 10
1.47954
 20
0.674696
 30
0.0
 11
1.51878
 21
0.666775
 31
0.0
  0
LINE
  8
0
 62
     250
 10
1.51878
 20
0.666775
 30
0.0
 11
1.55078
 21
0.645182
 31
0.0
  0
LINE
  8
0
 62
     250
 10
1.55078
 20
0.645182
 30
0.0
 11
1.57232
 21
0.613226
 31
0.0
  0
LINE
  8
0
 62
     250
 10
1.57232
 20
0.613226
 30
0.0
 11
1.58024
 21
0.574001
 31
0.0
  0
LINE
  8
0
 62
     250
 10
1.58024
 20
0.574001
 30
0.0
 11
1.57742
 21
0.550185
 31
0.0
  0
LINE
  8
0
 62
     250
 10
1.57742
 20
0.550185
 30
0.0
 11
1.5695
 21
0.528267
 31
0.0
  0
LINE
  8
0
 62
     250
 10
1.5695
 20
0.528267
 30
0.0
 11
1.55701
 21
0.509169
 31
0.0
  0
LINE
  8
0
 62
     250
 10
1.55701
 20
0.509169
 30
0.0
 11
1.54064
 21
0.493435
 31
0.0
  0
LINE
  8
0
 62
     250
 10
1.54064
 20
0.493435
 30
0.0
 11
1.55176
 21
0.482422
 31
0.0
  0
LINE
  8
0
 62
     250
 10
1.55176
 20
0.482422
 30
0.0
 11
1.56288
 21
0.471354
 31
0.0
  0
LINE
  8
0
 62
     250
 10
1.56288
 20
0.471354
 30
0.0
 11
1.57394
 21
0.46034
 31
0.0
  0
LINE
  8
0
 62
     250
 10
1.57394
 20
0.46034
 30
0.0
 11
1.58507
 21
0.449328
 31
0.0
  0
LINE
  8
0
 62
     250
 10
1.58507
 20
0.449328
 30
0.0
 11
1.609
 21
0.474447
 31
0.0
  0
LINE
  8
0
 62
     250
 10
1.609
 20
0.474447
 30
0.0
 11
1.62717
 21
0.504178
 31
0.0
  0
LINE
  8
0
 62
     250
 10
1.62717
 20
0.504178
 30
0.0
 11
1.63867
 21
0.537706
 31
0.0
  0
LINE
  8
0
 62
     250
 10
1.63867
 20
0.537706
 30
0.0
 11
1.64274
 21
0.574001
 31
0.0
  0
LINE
  8
0
 62
     250
 10
1.64274
 20
0.574001
 30
0.0
 11
1.64008
 21
0.603461
 31
0.0
  0
LINE
  8
0
 62
     250
 10
1.64008
 20
0.603461
 30
0.0
 11
1.63237
 21
0.631185
 31
0.0
  0
LINE
  8
0
 62
     250
 10
1.63237
 20
0.631185
 30
0.0
 11
1.62017
 21
0.656683
 31
0.0
  0
LINE
  8
0
 62
     250
 10
1.62017
 20
0.656683
 30
0.0
 11
1.60385
 21
0.679525
 31
0.0
  0
LINE
  8
0
 62
     250
 10
1.60385
 20
0.679525
 30
0.0
 11
1.60385
 21
1.47157
 31
0.0
  0
LINE
  8
0
 62
     250
 10
1.60385
 20
1.47157
 30
0.0
 11
1.59858
 21
1.493
 31
0.0
  0
LINE
  8
0
 62
     250
 10
1.59858
 20
1.493
 30
0.0
 11
1.58632
 21
1.51036
 31
0.0
  0
LINE
  8
0
 62
     250
 10
1.58632
 20
1.51036
 30
0.0
 11
1.56868
 21
1.52214
 31
0.0
  0
LINE
  8
0
 62
     250
 10
1.56868
 20
1.52214
 30
0.0
 11
1.54725
 21
1.52642
 31
0.0
  0
LINE
  8
0
 62
     250
 10
1.54725
 20
1.52642
 30
0.0
 11
0.0940756
 21
1.52642
 31
0.0
  0
LINE
  8
0
 62
     250
 10
0.0940756
 20
1.52642
 30
0.0
 11
0.0927192
 21
1.52647
 31
0.0
  0
LINE
  8
0
 62
     250
 10
0.0927192
 20
1.52647
 30
0.0
 11
0.0913086
 21
1.52647
 31
0.0
  0
LINE
  8
0
 62
     250
 10
0.0913086
 20
1.52647
 30
0.0
 11
0.0899522
 21
1.52642
 31
0.0
  0
ENDSEC
  0
EOF
