  0
SECTION
  2
HEADER
  9
$ACADVER
  1
AC1009
  9
$EXTMIN
 10
0.0
 20
0.0
 30
0.0
  9
$EXTMAX
 10
1000.0
 20
1000.0
 30
0.0
  9
$FILLMODE
 70
 0
  9
$SPLFRAME
 70
 1
  0
ENDSEC
  0
SECTION
  2
TABLES
  0
TABLE
  2
LAYER
 70
1
  0
LAYER
  2
0
 70
     0
 62
     7
  6
CONTINUOUS
  0
ENDTAB
  0
ENDSEC
  0
SECTION
  2
ENTITIES
  0
LINE
  8
0
 62
     0
 10
0.360189
 20
1.18766
 30
0.0
 11
0.288194
 21
1.18766
 31
0.0
  0
LINE
  8
0
 62
     0
 10
0.288194
 20
1.18766
 30
0.0
 11
0.288194
 21
0.679796
 31
0.0
  0
LINE
  8
0
 62
     0
 10
0.288194
 20
0.679796
 30
0.0
 11
0.287815
 21
0.679796
 31
0.0
  0
LINE
  8
0
 62
     0
 10
0.287815
 20
0.679796
 30
0.0
 11
0.316406
 21
0.631347
 31
0.0
  0
LINE
  8
0
 62
     0
 10
0.316406
 20
0.631347
 30
0.0
 11
0.326822
 21
0.57411
 31
0.0
  0
LINE
  8
0
 62
     0
 10
0.326822
 20
0.57411
 30
0.0
 11
0.3227
 21
0.537651
 31
0.0
  0
LINE
  8
0
 62
     0
 10
0.3227
 20
0.537651
 30
0.0
 11
0.310981
 21
0.504015
 31
0.0
  0
LINE
  8
0
 62
     0
 10
0.310981
 20
0.504015
 30
0.0
 11
0.292589
 21
0.474175
 31
0.0
  0
LINE
  8
0
 62
     0
 10
0.292589
 20
0.474175
 30
0.0
 11
0.268446
 21
0.449001
 31
0.0
  0
LINE
  8
0
 62
     0
 10
0.268446
 20
0.449001
 30
0.0
 11
0.224013
 21
0.493381
 31
0.0
  0
LINE
  8
0
 62
     0
 10
0.224013
 20
0.493381
 30
0.0
 11
0.25331
 21
0.528321
 31
0.0
  0
LINE
  8
0
 62
     0
 10
0.25331
 20
0.528321
 30
0.0
 11
0.264322
 21
0.57411
 31
0.0
  0
LINE
  8
0
 62
     0
 10
0.264322
 20
0.57411
 30
0.0
 11
0.256347
 21
0.61339
 31
0.0
  0
LINE
  8
0
 62
     0
 10
0.256347
 20
0.61339
 30
0.0
 11
0.234754
 21
0.645508
 31
0.0
  0
LINE
  8
0
 62
     0
 10
0.234754
 20
0.645508
 30
0.0
 11
0.202636
 21
0.6671
 31
0.0
  0
LINE
  8
0
 62
     0
 10
0.202636
 20
0.6671
 30
0.0
 11
0.163411
 21
0.675022
 31
0.0
  0
LINE
  8
0
 62
     0
 10
0.163411
 20
0.675022
 30
0.0
 11
0.124132
 21
0.6671
 31
0.0
  0
LINE
  8
0
 62
     0
 10
0.124132
 20
0.6671
 30
0.0
 11
0.0920139
 21
0.645508
 31
0.0
  0
LINE
  8
0
 62
     0
 10
0.0920139
 20
0.645508
 30
0.0
 11
0.070421
 21
0.61339
 31
0.0
  0
LINE
  8
0
 62
     0
 10
0.070421
 20
0.61339
 30
0.0
 11
0.0625
 21
0.57411
 31
0.0
  0
LINE
  8
0
 62
     0
 10
0.0625
 20
0.57411
 30
0.0
 11
0.0732964
 21
0.528646
 31
0.0
  0
LINE
  8
0
 62
     0
 10
0.0732964
 20
0.528646
 30
0.0
 11
0.102268
 21
0.493815
 31
0.0
  0
LINE
  8
0
 62
     0
 10
0.102268
 20
0.493815
 30
0.0
 11
0.0578885
 21
0.449436
 31
0.0
  0
LINE
  8
0
 62
     0
 10
0.0578885
 20
0.449436
 30
0.0
 11
0.0338542
 21
0.47461
 31
0.0
  0
LINE
  8
0
 62
     0
 10
0.0338542
 20
0.47461
 30
0.0
 11
0.015625
 21
0.50434
 31
0.0
  0
LINE
  8
0
 62
     0
 10
0.015625
 20
0.50434
 30
0.0
 11
0.00401475
 21
0.537815
 31
0.0
  0
LINE
  8
0
 62
     0
 10
0.00401475
 20
0.537815
 30
0.0
 11
0
 21
0.57411
 31
0.0
  0
LINE
  8
0
 62
     0
 10
0
 20
0.57411
 30
0.0
 11
0.0104167
 21
0.631401
 31
0.0
  0
LINE
  8
0
 62
     0
 10
0.0104167
 20
0.631401
 30
0.0
 11
0.0390625
 21
0.67985
 31
0.0
  0
LINE
  8
0
 62
     0
 10
0.0390625
 20
0.67985
 30
0.0
 11
0.0390625
 21
1.47168
 31
0.0
  0
LINE
  8
0
 62
     0
 10
0.0390625
 20
1.47168
 30
0.0
 11
0.0442708
 21
1.49317
 31
0.0
  0
LINE
  8
0
 62
     0
 10
0.0442708
 20
1.49317
 30
0.0
 11
0.0564779
 21
1.51064
 31
0.0
  0
LINE
  8
0
 62
     0
 10
0.0564779
 20
1.51064
 30
0.0
 11
0.0741644
 21
1.52235
 31
0.0
  0
LINE
  8
0
 62
     0
 10
0.0741644
 20
1.52235
 30
0.0
 11
0.0955946
 21
1.52664
 31
0.0
  0
LINE
  8
0
 62
     0
 10
0.0955946
 20
1.52664
 30
0.0
 11
1.54725
 21
1.52642
 31
0.0
  0
LINE
  8
0
 62
     0
 10
1.54725
 20
1.52642
 30
0.0
 11
1.56863
 21
1.52214
 31
0.0
  0
LINE
  8
0
 62
     0
 10
1.56863
 20
1.52214
 30
0.0
 11
1.58632
 21
1.51042
 31
0.0
  0
LINE
  8
0
 62
     0
 10
1.58632
 20
1.51042
 30
0.0
 11
1.59853
 21
1.49294
 31
0.0
  0
LINE
  8
0
 62
     0
 10
1.59853
 20
1.49294
 30
0.0
 11
1.60379
 21
1.47146
 31
0.0
  0
LINE
  8
0
 62
     0
 10
1.60379
 20
1.47146
 30
0.0
 11
1.60379
 21
0.679688
 31
0.0
  0
LINE
  8
0
 62
     0
 10
1.60379
 20
0.679688
 30
0.0
 11
1.63243
 21
0.631239
 31
0.0
  0
LINE
  8
0
 62
     0
 10
1.63243
 20
0.631239
 30
0.0
 11
1.64285
 21
0.573893
 31
0.0
  0
LINE
  8
0
 62
     0
 10
1.64285
 20
0.573893
 30
0.0
 11
1.63872
 21
0.537651
 31
0.0
  0
LINE
  8
0
 62
     0
 10
1.63872
 20
0.537651
 30
0.0
 11
1.62717
 21
0.504178
 31
0.0
  0
LINE
  8
0
 62
     0
 10
1.62717
 20
0.504178
 30
0.0
 11
1.60889
 21
0.474392
 31
0.0
  0
LINE
  8
0
 62
     0
 10
1.60889
 20
0.474392
 30
0.0
 11
1.58496
 21
0.449274
 31
0.0
  0
LINE
  8
0
 62
     0
 10
1.58496
 20
0.449274
 30
0.0
 11
1.54058
 21
0.493599
 31
0.0
  0
LINE
  8
0
 62
     0
 10
1.54058
 20
0.493599
 30
0.0
 11
1.5695
 21
0.528429
 31
0.0
  0
LINE
  8
0
 62
     0
 10
1.5695
 20
0.528429
 30
0.0
 11
1.58035
 21
0.573893
 31
0.0
  0
LINE
  8
0
 62
     0
 10
1.58035
 20
0.573893
 30
0.0
 11
1.57237
 21
0.613226
 31
0.0
  0
LINE
  8
0
 62
     0
 10
1.57237
 20
0.613226
 30
0.0
 11
1.55078
 21
0.64529
 31
0.0
  0
LINE
  8
0
 62
     0
 10
1.55078
 20
0.64529
 30
0.0
 11
1.51867
 21
0.666938
 31
0.0
  0
LINE
  8
0
 62
     0
 10
1.51867
 20
0.666938
 30
0.0
 11
1.47944
 21
0.674858
 31
0.0
  0
LINE
  8
0
 62
     0
 10
1.47944
 20
0.674858
 30
0.0
 11
1.44015
 21
0.666938
 31
0.0
  0
LINE
  8
0
 62
     0
 10
1.44015
 20
0.666938
 30
0.0
 11
1.40804
 21
0.64529
 31
0.0
  0
LINE
  8
0
 62
     0
 10
1.40804
 20
0.64529
 30
0.0
 11
1.38645
 21
0.613226
 31
0.0
  0
LINE
  8
0
 62
     0
 10
1.38645
 20
0.613226
 30
0.0
 11
1.37853
 21
0.573893
 31
0.0
  0
LINE
  8
0
 62
     0
 10
1.37853
 20
0.573893
 30
0.0
 11
1.38949
 21
0.528103
 31
0.0
  0
LINE
  8
0
 62
     0
 10
1.38949
 20
0.528103
 30
0.0
 11
1.41883
 21
0.493218
 31
0.0
  0
LINE
  8
0
 62
     0
 10
1.41883
 20
0.493218
 30
0.0
 11
1.3744
 21
0.448785
 31
0.0
  0
LINE
  8
0
 62
     0
 10
1.3744
 20
0.448785
 30
0.0
 11
1.35021
 21
0.474012
 31
0.0
  0
LINE
  8
0
 62
     0
 10
1.35021
 20
0.474012
 30
0.0
 11
1.33181
 21
0.503851
 31
0.0
  0
LINE
  8
0
 62
     0
 10
1.33181
 20
0.503851
 30
0.0
 11
1.3201
 21
0.537435
 31
0.0
  0
LINE
  8
0
 62
     0
 10
1.3201
 20
0.537435
 30
0.0
 11
1.31603
 21
0.573893
 31
0.0
  0
LINE
  8
0
 62
     0
 10
1.31603
 20
0.573893
 30
0.0
 11
1.32639
 21
0.631185
 31
0.0
  0
LINE
  8
0
 62
     0
 10
1.32639
 20
0.631185
 30
0.0
 11
1.35503
 21
0.679633
 31
0.0
  0
LINE
  8
0
 62
     0
 10
1.35503
 20
0.679633
 30
0.0
 11
1.35466
 21
0.679633
 31
0.0
  0
LINE
  8
0
 62
     0
 10
1.35466
 20
0.679633
 30
0.0
 11
1.35466
 21
1.18745
 31
0.0
  0
LINE
  8
0
 62
     0
 10
1.35466
 20
1.18745
 30
0.0
 11
1.28261
 21
1.18745
 31
0.0
  0
LINE
  8
0
 62
     0
 10
1.28261
 20
1.18745
 30
0.0
 11
1.28261
 21
0.115451
 31
0.0
  0
LINE
  8
0
 62
     0
 10
1.28261
 20
0.115451
 30
0.0
 11
1.33089
 21
0.0879449
 31
0.0
  0
LINE
  8
0
 62
     0
 10
1.33089
 20
0.0879449
 30
0.0
 11
1.33089
 21
0.000813803
 31
0.0
  0
LINE
  8
0
 62
     0
 10
1.33089
 20
0.000813803
 30
0.0
 11
0.845107
 21
0.000813803
 31
0.0
  0
LINE
  8
0
 62
     0
 10
0.845107
 20
0.000813803
 30
0.0
 11
0.845107
 21
0.0879449
 31
0.0
  0
LINE
  8
0
 62
     0
 10
0.845107
 20
0.0879449
 30
0.0
 11
0.8935
 21
0.115451
 31
0.0
  0
LINE
  8
0
 62
     0
 10
0.8935
 20
0.115451
 30
0.0
 11
0.893554
 21
0.115451
 31
0.0
  0
LINE
  8
0
 62
     0
 10
0.893554
 20
0.115451
 30
0.0
 11
0.893554
 21
0.440701
 31
0.0
  0
LINE
  8
0
 62
     0
 10
0.893554
 20
0.440701
 30
0.0
 11
0.74924
 21
0.440701
 31
0.0
  0
LINE
  8
0
 62
     0
 10
0.74924
 20
0.440701
 30
0.0
 11
0.74924
 21
0.115451
 31
0.0
  0
LINE
  8
0
 62
     0
 10
0.74924
 20
0.115451
 30
0.0
 11
0.797472
 21
0.0879449
 31
0.0
  0
LINE
  8
0
 62
     0
 10
0.797472
 20
0.0879449
 30
0.0
 11
0.797472
 21
0.000813803
 31
0.0
  0
LINE
  8
0
 62
     0
 10
0.797472
 20
0.000813803
 30
0.0
 11
0.312717
 21
-0
 31
0.0
  0
LINE
  8
0
 62
     0
 10
0.312717
 20
-0
 30
0.0
 11
0.312717
 21
0.0879449
 31
0.0
  0
LINE
  8
0
 62
     0
 10
0.312717
 20
0.0879449
 30
0.0
 11
0.360135
 21
0.115451
 31
0.0
  0
LINE
  8
0
 62
     0
 10
0.360135
 20
0.115451
 30
0.0
 11
0.360189
 21
1.18766
 31
0.0
  0
LINE
  8
0
 62
     0
 10
0.82156
 20
2.34907
 30
0.0
 11
0.962403
 21
2.32437
 31
0.0
  0
LINE
  8
0
 62
     0
 10
0.962403
 20
2.32437
 30
0.0
 11
1.06993
 21
2.25911
 31
0.0
  0
LINE
  8
0
 62
     0
 10
1.06993
 20
2.25911
 30
0.0
 11
1.11437
 21
2.32249
 31
0.0
  0
LINE
  8
0
 62
     0
 10
1.11437
 20
2.32249
 30
0.0
 11
1.05545
 21
2.36518
 31
0.0
  0
LINE
  8
0
 62
     0
 10
1.05545
 20
2.36518
 30
0.0
 11
0.985622
 21
2.39762
 31
0.0
  0
LINE
  8
0
 62
     0
 10
0.985622
 20
2.39762
 30
0.0
 11
0.906956
 21
2.41824
 31
0.0
  0
LINE
  8
0
 62
     0
 10
0.906956
 20
2.41824
 30
0.0
 11
0.82156
 21
2.42546
 31
0.0
  0
LINE
  8
0
 62
     0
 10
0.82156
 20
2.42546
 30
0.0
 11
0.82156
 21
2.42546
 31
0.0
  0
LINE
  8
0
 62
     0
 10
0.82156
 20
2.42546
 30
0.0
 11
0.735894
 21
2.41818
 31
0.0
  0
LINE
  8
0
 62
     0
 10
0.735894
 20
2.41818
 30
0.0
 11
0.65701
 21
2.39746
 31
0.0
  0
LINE
  8
0
 62
     0
 10
0.65701
 20
2.39746
 30
0.0
 11
0.587076
 21
2.36486
 31
0.0
  0
LINE
  8
0
 62
     0
 10
0.587076
 20
2.36486
 30
0.0
 11
0.528157
 21
2.322
 31
0.0
  0
LINE
  8
0
 62
     0
 10
0.528157
 20
2.322
 30
0.0
 11
0.572592
 21
2.25857
 31
0.0
  0
LINE
  8
0
 62
     0
 10
0.572592
 20
2.25857
 30
0.0
 11
0.680176
 21
2.32422
 31
0.0
  0
LINE
  8
0
 62
     0
 10
0.680176
 20
2.32422
 30
0.0
 11
0.82156
 21
2.34907
 31
0.0
  0
LINE
  8
0
 62
     0
 10
0.826335
 20
2.51101
 30
0.0
 11
0.983561
 21
2.4879
 31
0.0
  0
LINE
  8
0
 62
     0
 10
0.983561
 20
2.4879
 30
0.0
 11
1.11556
 21
2.42144
 31
0.0
  0
LINE
  8
0
 62
     0
 10
1.11556
 20
2.42144
 30
0.0
 11
1.15744
 21
2.38406
 31
0.0
  0
LINE
  8
0
 62
     0
 10
1.15744
 20
2.38406
 30
0.0
 11
1.20199
 21
2.44769
 31
0.0
  0
LINE
  8
0
 62
     0
 10
1.20199
 20
2.44769
 30
0.0
 11
1.12815
 21
2.50537
 31
0.0
  0
LINE
  8
0
 62
     0
 10
1.12815
 20
2.50537
 30
0.0
 11
1.03895
 21
2.54943
 31
0.0
  0
LINE
  8
0
 62
     0
 10
1.03895
 20
2.54943
 30
0.0
 11
0.937337
 21
2.57753
 31
0.0
  0
LINE
  8
0
 62
     0
 10
0.937337
 20
2.57753
 30
0.0
 11
0.826335
 21
2.5874
 31
0.0
  0
LINE
  8
0
 62
     0
 10
0.826335
 20
2.5874
 30
0.0
 11
0.826335
 21
2.5874
 31
0.0
  0
LINE
  8
0
 62
     0
 10
0.826335
 20
2.5874
 30
0.0
 11
0.712728
 21
2.5771
 31
0.0
  0
LINE
  8
0
 62
     0
 10
0.712728
 20
2.5771
 30
0.0
 11
0.60905
 21
2.54769
 31
0.0
  0
LINE
  8
0
 62
     0
 10
0.60905
 20
2.54769
 30
0.0
 11
0.5185
 21
2.50168
 31
0.0
  0
LINE
  8
0
 62
     0
 10
0.5185
 20
2.50168
 30
0.0
 11
0.444499
 21
2.44151
 31
0.0
  0
LINE
  8
0
 62
     0
 10
0.444499
 20
2.44151
 30
0.0
 11
0.489258
 21
2.37756
 31
0.0
  0
LINE
  8
0
 62
     0
 10
0.489258
 20
2.37756
 30
0.0
 11
0.537056
 21
2.42144
 31
0.0
  0
LINE
  8
0
 62
     0
 10
0.537056
 20
2.42144
 30
0.0
 11
0.669
 21
2.4879
 31
0.0
  0
LINE
  8
0
 62
     0
 10
0.669
 20
2.4879
 30
0.0
 11
0.826335
 21
2.51101
 31
0.0
  0
LINE
  8
0
 62
     0
 10
0.82156
 20
2.66639
 30
0.0
 11
0.948133
 21
2.65494
 31
0.0
  0
LINE
  8
0
 62
     0
 10
0.948133
 20
2.65494
 30
0.0
 11
1.06321
 21
2.62244
 31
0.0
  0
LINE
  8
0
 62
     0
 10
1.06321
 20
2.62244
 30
0.0
 11
1.16271
 21
2.57183
 31
0.0
  0
LINE
  8
0
 62
     0
 10
1.16271
 20
2.57183
 30
0.0
 11
1.24268
 21
2.50586
 31
0.0
  0
LINE
  8
0
 62
     0
 10
1.24268
 20
2.50586
 30
0.0
 11
1.28695
 21
2.5689
 31
0.0
  0
LINE
  8
0
 62
     0
 10
1.28695
 20
2.5689
 30
0.0
 11
1.19569
 21
2.64074
 31
0.0
  0
LINE
  8
0
 62
     0
 10
1.19569
 20
2.64074
 30
0.0
 11
1.08518
 21
2.69553
 31
0.0
  0
LINE
  8
0
 62
     0
 10
1.08518
 20
2.69553
 30
0.0
 11
0.959201
 21
2.73053
 31
0.0
  0
LINE
  8
0
 62
     0
 10
0.959201
 20
2.73053
 30
0.0
 11
0.82156
 21
2.74278
 31
0.0
  0
LINE
  8
0
 62
     0
 10
0.82156
 20
2.74278
 30
0.0
 11
0.82156
 21
2.74278
 31
0.0
  0
LINE
  8
0
 62
     0
 10
0.82156
 20
2.74278
 30
0.0
 11
0.683594
 21
2.73047
 31
0.0
  0
LINE
  8
0
 62
     0
 10
0.683594
 20
2.73047
 30
0.0
 11
0.557454
 21
2.69536
 31
0.0
  0
LINE
  8
0
 62
     0
 10
0.557454
 20
2.69536
 30
0.0
 11
0.446832
 21
2.6404
 31
0.0
  0
LINE
  8
0
 62
     0
 10
0.446832
 20
2.6404
 30
0.0
 11
0.355578
 21
2.56842
 31
0.0
  0
LINE
  8
0
 62
     0
 10
0.355578
 20
2.56842
 30
0.0
 11
0.399794
 21
2.50532
 31
0.0
  0
LINE
  8
0
 62
     0
 10
0.399794
 20
2.50532
 30
0.0
 11
0.479764
 21
2.5715
 31
0.0
  0
LINE
  8
0
 62
     0
 10
0.479764
 20
2.5715
 30
0.0
 11
0.579372
 21
2.62229
 31
0.0
  0
LINE
  8
0
 62
     0
 10
0.579372
 20
2.62229
 30
0.0
 11
0.694661
 21
2.65489
 31
0.0
  0
LINE
  8
0
 62
     0
 10
0.694661
 20
2.65489
 30
0.0
 11
0.82156
 21
2.66639
 31
0.0
  0
LINE
  8
0
 62
     0
 10
0.673828
 20
1.91818
 30
0.0
 11
0.670031
 21
1.89953
 31
0.0
  0
LINE
  8
0
 62
     0
 10
0.670031
 20
1.89953
 30
0.0
 11
0.659722
 21
1.88422
 31
0.0
  0
LINE
  8
0
 62
     0
 10
0.659722
 20
1.88422
 30
0.0
 11
0.644422
 21
1.87392
 31
0.0
  0
LINE
  8
0
 62
     0
 10
0.644422
 20
1.87392
 30
0.0
 11
0.625706
 21
1.87011
 31
0.0
  0
LINE
  8
0
 62
     0
 10
0.625706
 20
1.87011
 30
0.0
 11
0.607042
 21
1.87392
 31
0.0
  0
LINE
  8
0
 62
     0
 10
0.607042
 20
1.87392
 30
0.0
 11
0.591797
 21
1.88422
 31
0.0
  0
LINE
  8
0
 62
     0
 10
0.591797
 20
1.88422
 30
0.0
 11
0.581489
 21
1.89953
 31
0.0
  0
LINE
  8
0
 62
     0
 10
0.581489
 20
1.89953
 30
0.0
 11
0.577746
 21
1.91818
 31
0.0
  0
LINE
  8
0
 62
     0
 10
0.577746
 20
1.91818
 30
0.0
 11
0.581489
 21
1.93701
 31
0.0
  0
LINE
  8
0
 62
     0
 10
0.581489
 20
1.93701
 30
0.0
 11
0.591797
 21
1.95225
 31
0.0
  0
LINE
  8
0
 62
     0
 10
0.591797
 20
1.95225
 30
0.0
 11
0.607042
 21
1.96257
 31
0.0
  0
LINE
  8
0
 62
     0
 10
0.607042
 20
1.96257
 30
0.0
 11
0.625706
 21
1.96631
 31
0.0
  0
LINE
  8
0
 62
     0
 10
0.625706
 20
1.96631
 30
0.0
 11
0.644422
 21
1.96257
 31
0.0
  0
LINE
  8
0
 62
     0
 10
0.644422
 20
1.96257
 30
0.0
 11
0.659722
 21
1.95225
 31
0.0
  0
LINE
  8
0
 62
     0
 10
0.659722
 20
1.95225
 30
0.0
 11
0.670031
 21
1.93701
 31
0.0
  0
LINE
  8
0
 62
     0
 10
0.670031
 20
1.93701
 30
0.0
 11
0.673828
 21
1.91818
 31
0.0
  0
LINE
  8
0
 62
     0
 10
1.00277
 20
1.82428
 30
0.0
 11
0.966092
 21
1.83171
 31
0.0
  0
LINE
  8
0
 62
     0
 10
0.966092
 20
1.83171
 30
0.0
 11
0.936197
 21
1.85189
 31
0.0
  0
LINE
  8
0
 62
     0
 10
0.936197
 20
1.85189
 30
0.0
 11
0.916015
 21
1.88172
 31
0.0
  0
LINE
  8
0
 62
     0
 10
0.916015
 20
1.88172
 30
0.0
 11
0.908637
 21
1.91818
 31
0.0
  0
LINE
  8
0
 62
     0
 10
0.908637
 20
1.91818
 30
0.0
 11
0.916015
 21
1.95481
 31
0.0
  0
LINE
  8
0
 62
     0
 10
0.916015
 20
1.95481
 30
0.0
 11
0.936197
 21
1.98465
 31
0.0
  0
LINE
  8
0
 62
     0
 10
0.936197
 20
1.98465
 30
0.0
 11
0.966092
 21
2.00478
 31
0.0
  0
LINE
  8
0
 62
     0
 10
0.966092
 20
2.00478
 30
0.0
 11
1.00277
 21
2.01215
 31
0.0
  0
LINE
  8
0
 62
     0
 10
1.00277
 20
2.01215
 30
0.0
 11
1.03928
 21
2.00478
 31
0.0
  0
LINE
  8
0
 62
     0
 10
1.03928
 20
2.00478
 30
0.0
 11
1.06912
 21
1.98465
 31
0.0
  0
LINE
  8
0
 62
     0
 10
1.06912
 20
1.98465
 30
0.0
 11
1.08925
 21
1.95481
 31
0.0
  0
LINE
  8
0
 62
     0
 10
1.08925
 20
1.95481
 30
0.0
 11
1.09668
 21
1.91818
 31
0.0
  0
LINE
  8
0
 62
     0
 10
1.09668
 20
1.91818
 30
0.0
 11
1.08925
 21
1.88172
 31
0.0
  0
LINE
  8
0
 62
     0
 10
1.08925
 20
1.88172
 30
0.0
 11
1.06912
 21
1.85189
 31
0.0
  0
LINE
  8
0
 62
     0
 10
1.06912
 20
1.85189
 30
0.0
 11
1.03928
 21
1.83171
 31
0.0
  0
LINE
  8
0
 62
     0
 10
1.03928
 20
1.83171
 30
0.0
 11
1.00277
 21
1.82428
 31
0.0
  0
LINE
  8
0
 62
     0
 10
0.625706
 20
1.82428
 30
0.0
 11
0.589193
 21
1.83171
 31
0.0
  0
LINE
  8
0
 62
     0
 10
0.589193
 20
1.83171
 30
0.0
 11
0.559353
 21
1.85189
 31
0.0
  0
LINE
  8
0
 62
     0
 10
0.559353
 20
1.85189
 30
0.0
 11
0.539279
 21
1.88172
 31
0.0
  0
LINE
  8
0
 62
     0
 10
0.539279
 20
1.88172
 30
0.0
 11
0.531901
 21
1.91818
 31
0.0
  0
LINE
  8
0
 62
     0
 10
0.531901
 20
1.91818
 30
0.0
 11
0.539279
 21
1.95481
 31
0.0
  0
LINE
  8
0
 62
     0
 10
0.539279
 20
1.95481
 30
0.0
 11
0.559353
 21
1.98465
 31
0.0
  0
LINE
  8
0
 62
     0
 10
0.559353
 20
1.98465
 30
0.0
 11
0.589193
 21
2.00478
 31
0.0
  0
LINE
  8
0
 62
     0
 10
0.589193
 20
2.00478
 30
0.0
 11
0.625706
 21
2.01215
 31
0.0
  0
LINE
  8
0
 62
     0
 10
0.625706
 20
2.01215
 30
0.0
 11
0.662218
 21
2.00478
 31
0.0
  0
LINE
  8
0
 62
     0
 10
0.662218
 20
2.00478
 30
0.0
 11
0.692111
 21
1.98465
 31
0.0
  0
LINE
  8
0
 62
     0
 10
0.692111
 20
1.98465
 30
0.0
 11
0.712185
 21
1.95481
 31
0.0
  0
LINE
  8
0
 62
     0
 10
0.712185
 20
1.95481
 30
0.0
 11
0.719618
 21
1.91818
 31
0.0
  0
LINE
  8
0
 62
     0
 10
0.719618
 20
1.91818
 30
0.0
 11
0.712185
 21
1.88172
 31
0.0
  0
LINE
  8
0
 62
     0
 10
0.712185
 20
1.88172
 30
0.0
 11
0.692111
 21
1.85189
 31
0.0
  0
LINE
  8
0
 62
     0
 10
0.692111
 20
1.85189
 30
0.0
 11
0.662218
 21
1.83171
 31
0.0
  0
LINE
  8
0
 62
     0
 10
0.662218
 20
1.83171
 30
0.0
 11
0.625706
 21
1.82428
 31
0.0
  0
LINE
  8
0
 62
     0
 10
1.18245
 20
2.17708
 30
0.0
 11
0.444824
 21
2.17708
 31
0.0
  0
LINE
  8
0
 62
     0
 10
0.444824
 20
2.17708
 30
0.0
 11
0.423449
 21
2.17279
 31
0.0
  0
LINE
  8
0
 62
     0
 10
0.423449
 20
2.17279
 30
0.0
 11
0.405979
 21
2.16103
 31
0.0
  0
LINE
  8
0
 62
     0
 10
0.405979
 20
2.16103
 30
0.0
 11
0.394151
 21
2.14356
 31
0.0
  0
LINE
  8
0
 62
     0
 10
0.394151
 20
2.14356
 30
0.0
 11
0.389865
 21
2.12213
 31
0.0
  0
LINE
  8
0
 62
     0
 10
0.389865
 20
2.12213
 30
0.0
 11
0.389865
 21
1.64094
 31
0.0
  0
LINE
  8
0
 62
     0
 10
0.389865
 20
1.64094
 30
0.0
 11
0.394151
 21
1.61968
 31
0.0
  0
LINE
  8
0
 62
     0
 10
0.394151
 20
1.61968
 30
0.0
 11
0.405979
 21
1.60221
 31
0.0
  0
LINE
  8
0
 62
     0
 10
0.405979
 20
1.60221
 30
0.0
 11
0.423449
 21
1.59044
 31
0.0
  0
LINE
  8
0
 62
     0
 10
0.423449
 20
1.59044
 30
0.0
 11
0.444824
 21
1.5861
 31
0.0
  0
LINE
  8
0
 62
     0
 10
0.444824
 20
1.5861
 30
0.0
 11
1.18245
 21
1.5861
 31
0.0
  0
LINE
  8
0
 62
     0
 10
1.18245
 20
1.5861
 30
0.0
 11
1.20383
 21
1.59044
 31
0.0
  0
LINE
  8
0
 62
     0
 10
1.20383
 20
1.59044
 30
0.0
 11
1.2213
 21
1.60221
 31
0.0
  0
LINE
  8
0
 62
     0
 10
1.2213
 20
1.60221
 30
0.0
 11
1.23307
 21
1.61968
 31
0.0
  0
LINE
  8
0
 62
     0
 10
1.23307
 20
1.61968
 30
0.0
 11
1.23741
 21
1.64094
 31
0.0
  0
LINE
  8
0
 62
     0
 10
1.23741
 20
1.64094
 30
0.0
 11
1.23741
 21
2.12213
 31
0.0
  0
LINE
  8
0
 62
     0
 10
1.23741
 20
2.12213
 30
0.0
 11
1.23307
 21
2.14356
 31
0.0
  0
LINE
  8
0
 62
     0
 10
1.23307
 20
2.14356
 30
0.0
 11
1.2213
 21
2.16103
 31
0.0
  0
LINE
  8
0
 62
     0
 10
1.2213
 20
2.16103
 30
0.0
 11
1.20383
 21
2.17279
 31
0.0
  0
LINE
  8
0
 62
     0
 10
1.20383
 20
2.17279
 30
0.0
 11
1.18245
 21
2.17708
 31
0.0
  0
LINE
  8
0
 62
     0
 10
1.05094
 20
1.91818
 30
0.0
 11
1.04709
 21
1.89953
 31
0.0
  0
LINE
  8
0
 62
     0
 10
1.04709
 20
1.89953
 30
0.0
 11
1.03673
 21
1.88422
 31
0.0
  0
LINE
  8
0
 62
     0
 10
1.03673
 20
1.88422
 30
0.0
 11
1.02143
 21
1.87392
 31
0.0
  0
LINE
  8
0
 62
     0
 10
1.02143
 20
1.87392
 30
0.0
 11
1.00277
 21
1.87011
 31
0.0
  0
LINE
  8
0
 62
     0
 10
1.00277
 20
1.87011
 30
0.0
 11
0.983996
 21
1.87392
 31
0.0
  0
LINE
  8
0
 62
     0
 10
0.983996
 20
1.87392
 30
0.0
 11
0.96875
 21
1.88422
 31
0.0
  0
LINE
  8
0
 62
     0
 10
0.96875
 20
1.88422
 30
0.0
 11
0.958442
 21
1.89953
 31
0.0
  0
LINE
  8
0
 62
     0
 10
0.958442
 20
1.89953
 30
0.0
 11
0.954699
 21
1.91818
 31
0.0
  0
LINE
  8
0
 62
     0
 10
0.954699
 20
1.91818
 30
0.0
 11
0.958442
 21
1.93701
 31
0.0
  0
LINE
  8
0
 62
     0
 10
0.958442
 20
1.93701
 30
0.0
 11
0.96875
 21
1.95225
 31
0.0
  0
LINE
  8
0
 62
     0
 10
0.96875
 20
1.95225
 30
0.0
 11
0.983996
 21
1.96257
 31
0.0
  0
LINE
  8
0
 62
     0
 10
0.983996
 20
1.96257
 30
0.0
 11
1.00277
 21
1.96631
 31
0.0
  0
LINE
  8
0
 62
     0
 10
1.00277
 20
1.96631
 30
0.0
 11
1.02143
 21
1.96257
 31
0.0
  0
LINE
  8
0
 62
     0
 10
1.02143
 20
1.96257
 30
0.0
 11
1.03673
 21
1.95225
 31
0.0
  0
LINE
  8
0
 62
     0
 10
1.03673
 20
1.95225
 30
0.0
 11
1.04709
 21
1.93701
 31
0.0
  0
LINE
  8
0
 62
     0
 10
1.04709
 20
1.93701
 30
0.0
 11
1.05094
 21
1.91818
 31
0.0
  0
ENDSEC
  0
EOF
