<?xml version="1.0" encoding="UTF-8" standalone="no"?>
<!-- Created with Inkscape (http://www.inkscape.org/) -->

<svg
   xmlns:dc="http://purl.org/dc/elements/1.1/"
   xmlns:cc="http://creativecommons.org/ns#"
   xmlns:rdf="http://www.w3.org/1999/02/22-rdf-syntax-ns#"
   xmlns:svg="http://www.w3.org/2000/svg"
   xmlns="http://www.w3.org/2000/svg"
   xmlns:sodipodi="http://sodipodi.sourceforge.net/DTD/sodipodi-0.dtd"
   xmlns:inkscape="http://www.inkscape.org/namespaces/inkscape"
   id="svg2985"
   version="1.1"
   inkscape:version="0.48.2 r9819"
   width="147.8625"
   height="246.85"
   xml:space="preserve"
   sodipodi:docname="Ralph_only__reverse_punch_out.eps"><metadata
     id="metadata2991"><rdf:RDF><cc:Work
         rdf:about=""><dc:format>image/svg+xml</dc:format><dc:type
           rdf:resource="http://purl.org/dc/dcmitype/StillImage" /><dc:title></dc:title></cc:Work></rdf:RDF></metadata><defs
     id="defs2989"><clipPath
       clipPathUnits="userSpaceOnUse"
       id="clipPath3001"><path
         d="M 0,1974.81 0,0 l 1182.85,0 0,1974.81 -1182.85,0 z"
         id="path3003" /></clipPath></defs><sodipodi:namedview
     pagecolor="#ffffff"
     bordercolor="#666666"
     borderopacity="1"
     objecttolerance="10"
     gridtolerance="10"
     guidetolerance="10"
     inkscape:pageopacity="0"
     inkscape:pageshadow="2"
     inkscape:window-width="1440"
     inkscape:window-height="852"
     id="namedview2987"
     showgrid="false"
     inkscape:zoom="2.5683613"
     inkscape:cx="73.931252"
     inkscape:cy="123.425"
     inkscape:window-x="0"
     inkscape:window-y="0"
     inkscape:window-maximized="1"
     inkscape:current-layer="g2993" /><g
     id="g2993"
     inkscape:groupmode="layer"
     inkscape:label="ink_ext_XXXXXX"
     transform="matrix(1.25,0,0,-1.25,0,246.85)"><g
       id="g2995"
       transform="scale(0.1,0.1)"><g
         id="g2997"><g
           id="g2999"
           clip-path="url(#clipPath3001)"><path
             d="m 259.355,855.109 -51.855,0 0,-365.668 -0.266,0 c 17.473,-20.531 28.078,-47.082 28.078,-76.082 0,-36.109 -16.347,-68.48 -42.031,-90.078 l -32.004,31.969 c 17.629,13.25 29.035,34.34 29.035,58.109 0,40.121 -32.531,72.661 -72.656,72.661 C 77.5312,486.02 45,453.48 45,413.359 45,389.789 56.2305,368.828 73.6328,355.551 L 41.6602,323.609 C 16.1914,345.219 0,377.422 0,413.359 c 0,29.032 10.625,55.602 28.125,76.129 l 0,570.112 c 1.1445,21.95 18.8203,39.56 40.6836,39.56 l 1045.2314,-0.12 c 21.87,0 39.54,-17.62 40.69,-39.57 l 0,-570.099 c 17.5,-20.543 28.12,-47.101 28.12,-76.152 0,-35.91 -16.19,-68.141 -41.66,-89.739 l -31.97,31.93 c 17.4,13.281 28.63,34.238 28.63,57.809 0,40.133 -32.53,72.66 -72.65,72.66 -40.13,0 -72.661,-32.527 -72.661,-72.66 0,-23.758 11.411,-44.84 29.031,-58.098 l -32,-31.98 c -25.683,21.609 -42.031,53.968 -42.031,90.078 0,29.011 10.606,55.551 28.074,76.101 l -0.261,0 0,365.66 -51.856,0 0,-771.8511 34.734,-19.7891 0,-62.749956 -349.746,0 0,62.749956 34.817,19.7891 0.051,0 0,234.1801 -103.899,0 0,-234.1801 34.727,-19.7891 0,-62.749956 L 225.156,0 l 0,63.3398 34.153,19.7891 0.046,771.9801"
             style="fill:#231f20;fill-opacity:1;fill-rule:nonzero;stroke:none"
             id="path3005" /><path
             d="m 591.504,1691.33 c 72.566,0 138.301,-25.86 178.828,-64.78 l 32.031,45.65 c -50.605,45.33 -126.289,74.13 -210.859,74.13 l 0,0 c -84.793,0 -160.652,-28.94 -211.25,-74.48 l 32.004,-45.7 c 40.484,39.14 106.433,65.18 179.246,65.18"
             style="fill:#231f20;fill-opacity:1;fill-rule:nonzero;stroke:none"
             id="path3007" /><path
             d="m 594.949,1807.94 c 79.297,0 153.266,-22.91 208.266,-64.52 11.172,-8.46 21.238,-17.46 30.137,-26.9 l 32.078,45.8 c -62.442,61.2 -160.371,100.62 -270.481,100.62 l 0,0 c -112.761,0 -212.742,-41.34 -274.922,-105.07 l 32.239,-46.04 c 9.902,11.17 21.406,21.76 34.414,31.59 55,41.61 128.965,64.52 208.269,64.52"
             style="fill:#231f20;fill-opacity:1;fill-rule:nonzero;stroke:none"
             id="path3009" /><path
             d="m 591.504,1919.81 c 125.859,-0.01 237.117,-45.86 303.242,-115.58 l 31.848,45.38 c -77.114,76.12 -198.528,125.2 -335.09,125.2 l 0,0 c -136.797,0.01 -258.367,-49.23 -335.469,-125.55 l 31.817,-45.45 c 66.074,69.96 177.539,115.99 303.652,116"
             style="fill:#231f20;fill-opacity:1;fill-rule:nonzero;stroke:none"
             id="path3011" /><path
             d="m 485.156,1381.07 c 0,-19.05 -15.468,-34.57 -34.636,-34.57 -19.028,0 -34.543,15.52 -34.543,34.57 0,19.23 15.515,34.66 34.543,34.66 19.168,0 34.636,-15.43 34.636,-34.66"
             style="fill:#231f20;fill-opacity:1;fill-rule:nonzero;stroke:none"
             id="path3013" /><path
             d="m 721.973,1313.49 c -37.422,0 -67.743,30.36 -67.743,67.58 0,37.41 30.321,67.68 67.743,67.68 37.343,0 67.617,-30.27 67.617,-67.68 0,-37.22 -30.274,-67.58 -67.617,-67.58 z m -271.453,0 c -37.29,0 -67.559,30.36 -67.559,67.58 0,37.41 30.269,67.68 67.559,67.68 37.332,0 67.605,-30.27 67.605,-67.68 0,-37.22 -30.273,-67.58 -67.605,-67.58 z m 400.828,253.99 -531.071,0 c -21.769,0 -39.586,-17.68 -39.586,-39.54 l 0,-346.46 c 0,-21.72 17.817,-39.51 39.586,-39.51 l 531.071,0 c 21.855,0 39.582,17.79 39.582,39.51 l 0,346.46 c 0,21.86 -17.727,39.54 -39.582,39.54"
             style="fill:#231f20;fill-opacity:1;fill-rule:nonzero;stroke:none"
             id="path3015" /><path
             d="m 756.699,1381.07 c 0,-19.05 -15.691,-34.57 -34.726,-34.57 -19.114,0 -34.59,15.52 -34.59,34.57 0,19.23 15.476,34.66 34.59,34.66 19.035,0 34.726,-15.43 34.726,-34.66"
             style="fill:#231f20;fill-opacity:1;fill-rule:nonzero;stroke:none"
             id="path3017" /></g></g></g></g></svg>