  0
SECTION
  2
HEADER
  9
$ACADVER
  1
AC1009
  9
$EXTMIN
 10
0.0
 20
0.0
 30
0.0
  9
$EXTMAX
 10
1000.0
 20
1000.0
 30
0.0
  9
$FILLMODE
 70
 0
  9
$SPLFRAME
 70
 1
  0
ENDSEC
  0
SECTION
  2
TABLES
  0
TABLE
  2
LAYER
 70
1
  0
LAYER
  2
0
 70
     0
 62
     7
  6
CONTINUOUS
  0
ENDTAB
  0
ENDSEC
  0
SECTION
  2
ENTITIES
  0
LINE
  8
0
 62
     250
 10
0.821506
 20
2.74274
 30
0.0
 11
0.751357
 21
2.73953
 31
0.0
  0
LINE
  8
0
 62
     250
 10
0.751357
 20
2.73953
 30
0.0
 11
0.683649
 21
2.73042
 31
0.0
  0
LINE
  8
0
 62
     250
 10
0.683649
 20
2.73042
 30
0.0
 11
0.618815
 21
2.71556
 31
0.0
  0
LINE
  8
0
 62
     250
 10
0.618815
 20
2.71556
 30
0.0
 11
0.557454
 21
2.69531
 31
0.0
  0
LINE
  8
0
 62
     250
 10
0.557454
 20
2.69531
 30
0.0
 11
0.499946
 21
2.67008
 31
0.0
  0
LINE
  8
0
 62
     250
 10
0.499946
 20
2.67008
 30
0.0
 11
0.446832
 21
2.64035
 31
0.0
  0
LINE
  8
0
 62
     250
 10
0.446832
 20
2.64035
 30
0.0
 11
0.398546
 21
2.60633
 31
0.0
  0
LINE
  8
0
 62
     250
 10
0.398546
 20
2.60633
 30
0.0
 11
0.355578
 21
2.56842
 31
0.0
  0
LINE
  8
0
 62
     250
 10
0.355578
 20
2.56842
 30
0.0
 11
0.390136
 21
2.51953
 31
0.0
  0
LINE
  8
0
 62
     250
 10
0.390136
 20
2.51953
 30
0.0
 11
0.42475
 21
2.4706
 31
0.0
  0
LINE
  8
0
 62
     250
 10
0.42475
 20
2.4706
 30
0.0
 11
0.45931
 21
2.42165
 31
0.0
  0
LINE
  8
0
 62
     250
 10
0.45931
 20
2.42165
 30
0.0
 11
0.493924
 21
2.37278
 31
0.0
  0
LINE
  8
0
 62
     250
 10
0.493924
 20
2.37278
 30
0.0
 11
0.528537
 21
2.32383
 31
0.0
  0
LINE
  8
0
 62
     250
 10
0.528537
 20
2.32383
 30
0.0
 11
0.563097
 21
2.27496
 31
0.0
  0
LINE
  8
0
 62
     250
 10
0.563097
 20
2.27496
 30
0.0
 11
0.597711
 21
2.22601
 31
0.0
  0
LINE
  8
0
 62
     250
 10
0.597711
 20
2.22601
 30
0.0
 11
0.632269
 21
2.17703
 31
0.0
  0
LINE
  8
0
 62
     250
 10
0.632269
 20
2.17703
 30
0.0
 11
0.444769
 21
2.17703
 31
0.0
  0
LINE
  8
0
 62
     250
 10
0.444769
 20
2.17703
 30
0.0
 11
0.433757
 21
2.176
 31
0.0
  0
LINE
  8
0
 62
     250
 10
0.433757
 20
2.176
 30
0.0
 11
0.423449
 21
2.17279
 31
0.0
  0
LINE
  8
0
 62
     250
 10
0.423449
 20
2.17279
 30
0.0
 11
0.414171
 21
2.16775
 31
0.0
  0
LINE
  8
0
 62
     250
 10
0.414171
 20
2.16775
 30
0.0
 11
0.406033
 21
2.16108
 31
0.0
  0
LINE
  8
0
 62
     250
 10
0.406033
 20
2.16108
 30
0.0
 11
0.399306
 21
2.15294
 31
0.0
  0
LINE
  8
0
 62
     250
 10
0.399306
 20
2.15294
 30
0.0
 11
0.39426
 21
2.14361
 31
0.0
  0
LINE
  8
0
 62
     250
 10
0.39426
 20
2.14361
 30
0.0
 11
0.391058
 21
2.13331
 31
0.0
  0
LINE
  8
0
 62
     250
 10
0.391058
 20
2.13331
 30
0.0
 11
0.389919
 21
2.12224
 31
0.0
  0
LINE
  8
0
 62
     250
 10
0.389919
 20
2.12224
 30
0.0
 11
0.389919
 21
1.52642
 31
0.0
  0
LINE
  8
0
 62
     250
 10
0.389919
 20
1.52642
 30
0.0
 11
0.0954861
 21
1.52642
 31
0.0
  0
LINE
  8
0
 62
     250
 10
0.0954861
 20
1.52642
 30
0.0
 11
0.0844183
 21
1.52528
 31
0.0
  0
LINE
  8
0
 62
     250
 10
0.0844183
 20
1.52528
 30
0.0
 11
0.074056
 21
1.52214
 31
0.0
  0
LINE
  8
0
 62
     250
 10
0.074056
 20
1.52214
 30
0.0
 11
0.0646701
 21
1.51708
 31
0.0
  0
LINE
  8
0
 62
     250
 10
0.0646701
 20
1.51708
 30
0.0
 11
0.0563693
 21
1.51036
 31
0.0
  0
LINE
  8
0
 62
     250
 10
0.0563693
 20
1.51036
 30
0.0
 11
0.0494792
 21
1.50228
 31
0.0
  0
LINE
  8
0
 62
     250
 10
0.0494792
 20
1.50228
 30
0.0
 11
0.0441081
 21
1.493
 31
0.0
  0
LINE
  8
0
 62
     250
 10
0.0441081
 20
1.493
 30
0.0
 11
0.0405274
 21
1.48258
 31
0.0
  0
LINE
  8
0
 62
     250
 10
0.0405274
 20
1.48258
 30
0.0
 11
0.0388997
 21
1.47157
 31
0.0
  0
LINE
  8
0
 62
     250
 10
0.0388997
 20
1.47157
 30
0.0
 11
0.0388997
 21
0.679904
 31
0.0
  0
LINE
  8
0
 62
     250
 10
0.0388997
 20
0.679904
 30
0.0
 11
0.0302192
 21
0.668782
 31
0.0
  0
LINE
  8
0
 62
     250
 10
0.0302192
 20
0.668782
 30
0.0
 11
0.0225694
 21
0.656956
 31
0.0
  0
LINE
  8
0
 62
     250
 10
0.0225694
 20
0.656956
 30
0.0
 11
0.0158963
 21
0.644476
 31
0.0
  0
LINE
  8
0
 62
     250
 10
0.0158963
 20
0.644476
 30
0.0
 11
0.0103082
 21
0.631293
 31
0.0
  0
LINE
  8
0
 62
     250
 10
0.0103082
 20
0.631293
 30
0.0
 11
0.00591363
 21
0.617676
 31
0.0
  0
LINE
  8
0
 62
     250
 10
0.00591363
 20
0.617676
 30
0.0
 11
0.00265842
 21
0.603515
 31
0.0
  0
LINE
  8
0
 62
     250
 10
0.00265842
 20
0.603515
 30
0.0
 11
0.000651042
 21
0.588921
 31
0.0
  0
LINE
  8
0
 62
     250
 10
0.000651042
 20
0.588921
 30
0.0
 11
0
 21
0.574001
 31
0.0
  0
LINE
  8
0
 62
     250
 10
0
 20
0.574001
 30
0.0
 11
0.00103082
 21
0.555501
 31
0.0
  0
LINE
  8
0
 62
     250
 10
0.00103082
 20
0.555501
 30
0.0
 11
0.00406901
 21
0.537597
 31
0.0
  0
LINE
  8
0
 62
     250
 10
0.00406901
 20
0.537597
 30
0.0
 11
0.00900608
 21
0.520508
 31
0.0
  0
LINE
  8
0
 62
     250
 10
0.00900608
 20
0.520508
 30
0.0
 11
0.0157335
 21
0.504178
 31
0.0
  0
LINE
  8
0
 62
     250
 10
0.0157335
 20
0.504178
 30
0.0
 11
0.0240886
 21
0.488824
 31
0.0
  0
LINE
  8
0
 62
     250
 10
0.0240886
 20
0.488824
 30
0.0
 11
0.0340169
 21
0.474447
 31
0.0
  0
LINE
  8
0
 62
     250
 10
0.0340169
 20
0.474447
 30
0.0
 11
0.0453558
 21
0.461208
 31
0.0
  0
LINE
  8
0
 62
     250
 10
0.0453558
 20
0.461208
 30
0.0
 11
0.0579969
 21
0.449328
 31
0.0
  0
LINE
  8
0
 62
     250
 10
0.0579969
 20
0.449328
 30
0.0
 11
0.0746528
 21
0.465983
 31
0.0
  0
LINE
  8
0
 62
     250
 10
0.0746528
 20
0.465983
 30
0.0
 11
0.0801867
 21
0.471571
 31
0.0
  0
LINE
  8
0
 62
     250
 10
0.0801867
 20
0.471571
 30
0.0
 11
0.0857747
 21
0.477106
 31
0.0
  0
LINE
  8
0
 62
     250
 10
0.0857747
 20
0.477106
 30
0.0
 11
0.102431
 21
0.493761
 31
0.0
  0
LINE
  8
0
 62
     250
 10
0.102431
 20
0.493761
 30
0.0
 11
0.09375
 21
0.501139
 31
0.0
  0
LINE
  8
0
 62
     250
 10
0.09375
 20
0.501139
 30
0.0
 11
0.0859918
 21
0.509494
 31
0.0
  0
LINE
  8
0
 62
     250
 10
0.0859918
 20
0.509494
 30
0.0
 11
0.0791558
 21
0.518608
 31
0.0
  0
LINE
  8
0
 62
     250
 10
0.0791558
 20
0.518608
 30
0.0
 11
0.073405
 21
0.528537
 31
0.0
  0
LINE
  8
0
 62
     250
 10
0.073405
 20
0.528537
 30
0.0
 11
0.0687392
 21
0.539063
 31
0.0
  0
LINE
  8
0
 62
     250
 10
0.0687392
 20
0.539063
 30
0.0
 11
0.0653211
 21
0.550239
 31
0.0
  0
LINE
  8
0
 62
     250
 10
0.0653211
 20
0.550239
 30
0.0
 11
0.0632053
 21
0.561849
 31
0.0
  0
LINE
  8
0
 62
     250
 10
0.0632053
 20
0.561849
 30
0.0
 11
0.0625
 21
0.574001
 31
0.0
  0
LINE
  8
0
 62
     250
 10
0.0625
 20
0.574001
 30
0.0
 11
0.0645617
 21
0.594293
 31
0.0
  0
LINE
  8
0
 62
     250
 10
0.0645617
 20
0.594293
 30
0.0
 11
0.0704753
 21
0.613281
 31
0.0
  0
LINE
  8
0
 62
     250
 10
0.0704753
 20
0.613281
 30
0.0
 11
0.0797526
 21
0.630425
 31
0.0
  0
LINE
  8
0
 62
     250
 10
0.0797526
 20
0.630425
 30
0.0
 11
0.0921224
 21
0.6454
 31
0.0
  0
LINE
  8
0
 62
     250
 10
0.0921224
 20
0.6454
 30
0.0
 11
0.107096
 21
0.657769
 31
0.0
  0
LINE
  8
0
 62
     250
 10
0.107096
 20
0.657769
 30
0.0
 11
0.12424
 21
0.667046
 31
0.0
  0
LINE
  8
0
 62
     250
 10
0.12424
 20
0.667046
 30
0.0
 11
0.143175
 21
0.67296
 31
0.0
  0
LINE
  8
0
 62
     250
 10
0.143175
 20
0.67296
 30
0.0
 11
0.163519
 21
0.675022
 31
0.0
  0
LINE
  8
0
 62
     250
 10
0.163519
 20
0.675022
 30
0.0
 11
0.183865
 21
0.67296
 31
0.0
  0
LINE
  8
0
 62
     250
 10
0.183865
 20
0.67296
 30
0.0
 11
0.2028
 21
0.667046
 31
0.0
  0
LINE
  8
0
 62
     250
 10
0.2028
 20
0.667046
 30
0.0
 11
0.219889
 21
0.657769
 31
0.0
  0
LINE
  8
0
 62
     250
 10
0.219889
 20
0.657769
 30
0.0
 11
0.234808
 21
0.6454
 31
0.0
  0
LINE
  8
0
 62
     250
 10
0.234808
 20
0.6454
 30
0.0
 11
0.247071
 21
0.630425
 31
0.0
  0
LINE
  8
0
 62
     250
 10
0.247071
 20
0.630425
 30
0.0
 11
0.256347
 21
0.613281
 31
0.0
  0
LINE
  8
0
 62
     250
 10
0.256347
 20
0.613281
 30
0.0
 11
0.262207
 21
0.594293
 31
0.0
  0
LINE
  8
0
 62
     250
 10
0.262207
 20
0.594293
 30
0.0
 11
0.264214
 21
0.574001
 31
0.0
  0
LINE
  8
0
 62
     250
 10
0.264214
 20
0.574001
 30
0.0
 11
0.26351
 21
0.561794
 31
0.0
  0
LINE
  8
0
 62
     250
 10
0.26351
 20
0.561794
 30
0.0
 11
0.261393
 21
0.550076
 31
0.0
  0
LINE
  8
0
 62
     250
 10
0.261393
 20
0.550076
 30
0.0
 11
0.257921
 21
0.538846
 31
0.0
  0
LINE
  8
0
 62
     250
 10
0.257921
 20
0.538846
 30
0.0
 11
0.253256
 21
0.528211
 31
0.0
  0
LINE
  8
0
 62
     250
 10
0.253256
 20
0.528211
 30
0.0
 11
0.24745
 21
0.518283
 31
0.0
  0
LINE
  8
0
 62
     250
 10
0.24745
 20
0.518283
 30
0.0
 11
0.24056
 21
0.509114
 31
0.0
  0
LINE
  8
0
 62
     250
 10
0.24056
 20
0.509114
 30
0.0
 11
0.232693
 21
0.500814
 31
0.0
  0
LINE
  8
0
 62
     250
 10
0.232693
 20
0.500814
 30
0.0
 11
0.223958
 21
0.493435
 31
0.0
  0
LINE
  8
0
 62
     250
 10
0.223958
 20
0.493435
 30
0.0
 11
0.229492
 21
0.487793
 31
0.0
  0
LINE
  8
0
 62
     250
 10
0.229492
 20
0.487793
 30
0.0
 11
0.235081
 21
0.482314
 31
0.0
  0
LINE
  8
0
 62
     250
 10
0.235081
 20
0.482314
 30
0.0
 11
0.251736
 21
0.465657
 31
0.0
  0
LINE
  8
0
 62
     250
 10
0.251736
 20
0.465657
 30
0.0
 11
0.257269
 21
0.460015
 31
0.0
  0
LINE
  8
0
 62
     250
 10
0.257269
 20
0.460015
 30
0.0
 11
0.262858
 21
0.454536
 31
0.0
  0
LINE
  8
0
 62
     250
 10
0.262858
 20
0.454536
 30
0.0
 11
0.268392
 21
0.449001
 31
0.0
  0
LINE
  8
0
 62
     250
 10
0.268392
 20
0.449001
 30
0.0
 11
0.281142
 21
0.460883
 31
0.0
  0
LINE
  8
0
 62
     250
 10
0.281142
 20
0.460883
 30
0.0
 11
0.292589
 21
0.474121
 31
0.0
  0
LINE
  8
0
 62
     250
 10
0.292589
 20
0.474121
 30
0.0
 11
0.302517
 21
0.488499
 31
0.0
  0
LINE
  8
0
 62
     250
 10
0.302517
 20
0.488499
 30
0.0
 11
0.310926
 21
0.503906
 31
0.0
  0
LINE
  8
0
 62
     250
 10
0.310926
 20
0.503906
 30
0.0
 11
0.317708
 21
0.520236
 31
0.0
  0
LINE
  8
0
 62
     250
 10
0.317708
 20
0.520236
 30
0.0
 11
0.322646
 21
0.537489
 31
0.0
  0
LINE
  8
0
 62
     250
 10
0.322646
 20
0.537489
 30
0.0
 11
0.325683
 21
0.555447
 31
0.0
  0
LINE
  8
0
 62
     250
 10
0.325683
 20
0.555447
 30
0.0
 11
0.326714
 21
0.574001
 31
0.0
  0
LINE
  8
0
 62
     250
 10
0.326714
 20
0.574001
 30
0.0
 11
0.326064
 21
0.588921
 31
0.0
  0
LINE
  8
0
 62
     250
 10
0.326064
 20
0.588921
 30
0.0
 11
0.324056
 21
0.603515
 31
0.0
  0
LINE
  8
0
 62
     250
 10
0.324056
 20
0.603515
 30
0.0
 11
0.320856
 21
0.617676
 31
0.0
  0
LINE
  8
0
 62
     250
 10
0.320856
 20
0.617676
 30
0.0
 11
0.316406
 21
0.631293
 31
0.0
  0
LINE
  8
0
 62
     250
 10
0.316406
 20
0.631293
 30
0.0
 11
0.310818
 21
0.644476
 31
0.0
  0
LINE
  8
0
 62
     250
 10
0.310818
 20
0.644476
 30
0.0
 11
0.304144
 21
0.656956
 31
0.0
  0
LINE
  8
0
 62
     250
 10
0.304144
 20
0.656956
 30
0.0
 11
0.296496
 21
0.668782
 31
0.0
  0
LINE
  8
0
 62
     250
 10
0.296496
 20
0.668782
 30
0.0
 11
0.287869
 21
0.679904
 31
0.0
  0
LINE
  8
0
 62
     250
 10
0.287869
 20
0.679904
 30
0.0
 11
0.288194
 21
0.679904
 31
0.0
  0
LINE
  8
0
 62
     250
 10
0.288194
 20
0.679904
 30
0.0
 11
0.288194
 21
1.18745
 31
0.0
  0
LINE
  8
0
 62
     250
 10
0.288194
 20
1.18745
 30
0.0
 11
0.360081
 21
1.18745
 31
0.0
  0
LINE
  8
0
 62
     250
 10
0.360081
 20
1.18745
 30
0.0
 11
0.360081
 21
0.115289
 31
0.0
  0
LINE
  8
0
 62
     250
 10
0.360081
 20
0.115289
 30
0.0
 11
0.342339
 21
0.105035
 31
0.0
  0
LINE
  8
0
 62
     250
 10
0.342339
 20
0.105035
 30
0.0
 11
0.336481
 21
0.101563
 31
0.0
  0
LINE
  8
0
 62
     250
 10
0.336481
 20
0.101563
 30
0.0
 11
0.312825
 21
0.0878906
 31
0.0
  0
LINE
  8
0
 62
     250
 10
0.312825
 20
0.0878906
 30
0.0
 11
0.312825
 21
-5.42535e-05
 31
0.0
  0
LINE
  8
0
 62
     250
 10
0.312825
 20
-5.42535e-05
 30
0.0
 11
0.434028
 21
0.000217014
 31
0.0
  0
LINE
  8
0
 62
     250
 10
0.434028
 20
0.000217014
 30
0.0
 11
0.494629
 21
0.000271267
 31
0.0
  0
LINE
  8
0
 62
     250
 10
0.494629
 20
0.000271267
 30
0.0
 11
0.555231
 21
0.000379775
 31
0.0
  0
LINE
  8
0
 62
     250
 10
0.555231
 20
0.000379775
 30
0.0
 11
0.615776
 21
0.000488281
 31
0.0
  0
LINE
  8
0
 62
     250
 10
0.615776
 20
0.000488281
 30
0.0
 11
0.676378
 21
0.000488281
 31
0.0
  0
LINE
  8
0
 62
     250
 10
0.676378
 20
0.000488281
 30
0.0
 11
0.797581
 21
0.000759549
 31
0.0
  0
LINE
  8
0
 62
     250
 10
0.797581
 20
0.000759549
 30
0.0
 11
0.797581
 21
0.0878906
 31
0.0
  0
LINE
  8
0
 62
     250
 10
0.797581
 20
0.0878906
 30
0.0
 11
0.791558
 21
0.0913086
 31
0.0
  0
LINE
  8
0
 62
     250
 10
0.791558
 20
0.0913086
 30
0.0
 11
0.785482
 21
0.0947265
 31
0.0
  0
LINE
  8
0
 62
     250
 10
0.785482
 20
0.0947265
 30
0.0
 11
0.77946
 21
0.0981988
 31
0.0
  0
LINE
  8
0
 62
     250
 10
0.77946
 20
0.0981988
 30
0.0
 11
0.761393
 21
0.108453
 31
0.0
  0
LINE
  8
0
 62
     250
 10
0.761393
 20
0.108453
 30
0.0
 11
0.755317
 21
0.111871
 31
0.0
  0
LINE
  8
0
 62
     250
 10
0.755317
 20
0.111871
 30
0.0
 11
0.749294
 21
0.115343
 31
0.0
  0
LINE
  8
0
 62
     250
 10
0.749294
 20
0.115343
 30
0.0
 11
0.749294
 21
0.440647
 31
0.0
  0
LINE
  8
0
 62
     250
 10
0.749294
 20
0.440647
 30
0.0
 11
0.893392
 21
0.440647
 31
0.0
  0
LINE
  8
0
 62
     250
 10
0.893392
 20
0.440647
 30
0.0
 11
0.893392
 21
0.115343
 31
0.0
  0
LINE
  8
0
 62
     250
 10
0.893392
 20
0.115343
 30
0.0
 11
0.887369
 21
0.111871
 31
0.0
  0
LINE
  8
0
 62
     250
 10
0.887369
 20
0.111871
 30
0.0
 11
0.875325
 21
0.105035
 31
0.0
  0
LINE
  8
0
 62
     250
 10
0.875325
 20
0.105035
 30
0.0
 11
0.869249
 21
0.101617
 31
0.0
  0
LINE
  8
0
 62
     250
 10
0.869249
 20
0.101617
 30
0.0
 11
0.863226
 21
0.0981988
 31
0.0
  0
LINE
  8
0
 62
     250
 10
0.863226
 20
0.0981988
 30
0.0
 11
0.857206
 21
0.0947265
 31
0.0
  0
LINE
  8
0
 62
     250
 10
0.857206
 20
0.0947265
 30
0.0
 11
0.845161
 21
0.0878906
 31
0.0
  0
LINE
  8
0
 62
     250
 10
0.845161
 20
0.0878906
 30
0.0
 11
0.845161
 21
0.000759549
 31
0.0
  0
LINE
  8
0
 62
     250
 10
0.845161
 20
0.000759549
 30
0.0
 11
1.33089
 21
0.000759549
 31
0.0
  0
LINE
  8
0
 62
     250
 10
1.33089
 20
0.000759549
 30
0.0
 11
1.33089
 21
0.0878906
 31
0.0
  0
LINE
  8
0
 62
     250
 10
1.33089
 20
0.0878906
 30
0.0
 11
1.31885
 21
0.0947265
 31
0.0
  0
LINE
  8
0
 62
     250
 10
1.31885
 20
0.0947265
 30
0.0
 11
1.31283
 21
0.0981988
 31
0.0
  0
LINE
  8
0
 62
     250
 10
1.31283
 20
0.0981988
 30
0.0
 11
1.30675
 21
0.101617
 31
0.0
  0
LINE
  8
0
 62
     250
 10
1.30675
 20
0.101617
 30
0.0
 11
1.28868
 21
0.111871
 31
0.0
  0
LINE
  8
0
 62
     250
 10
1.28868
 20
0.111871
 30
0.0
 11
1.28266
 21
0.115343
 31
0.0
  0
LINE
  8
0
 62
     250
 10
1.28266
 20
0.115343
 30
0.0
 11
1.28266
 21
1.1875
 31
0.0
  0
LINE
  8
0
 62
     250
 10
1.28266
 20
1.1875
 30
0.0
 11
1.35449
 21
1.1875
 31
0.0
  0
LINE
  8
0
 62
     250
 10
1.35449
 20
1.1875
 30
0.0
 11
1.35449
 21
0.679579
 31
0.0
  0
LINE
  8
0
 62
     250
 10
1.35449
 20
0.679579
 30
0.0
 11
1.35487
 21
0.679579
 31
0.0
  0
LINE
  8
0
 62
     250
 10
1.35487
 20
0.679579
 30
0.0
 11
1.34625
 21
0.668403
 31
0.0
  0
LINE
  8
0
 62
     250
 10
1.34625
 20
0.668403
 30
0.0
 11
1.33854
 21
0.656683
 31
0.0
  0
LINE
  8
0
 62
     250
 10
1.33854
 20
0.656683
 30
0.0
 11
1.33192
 21
0.64426
 31
0.0
  0
LINE
  8
0
 62
     250
 10
1.33192
 20
0.64426
 30
0.0
 11
1.32633
 21
0.631185
 31
0.0
  0
LINE
  8
0
 62
     250
 10
1.32633
 20
0.631185
 30
0.0
 11
1.32189
 21
0.617567
 31
0.0
  0
LINE
  8
0
 62
     250
 10
1.32189
 20
0.617567
 30
0.0
 11
1.31863
 21
0.603461
 31
0.0
  0
LINE
  8
0
 62
     250
 10
1.31863
 20
0.603461
 30
0.0
 11
1.31668
 21
0.588921
 31
0.0
  0
LINE
  8
0
 62
     250
 10
1.31668
 20
0.588921
 30
0.0
 11
1.31597
 21
0.574001
 31
0.0
  0
LINE
  8
0
 62
     250
 10
1.31597
 20
0.574001
 30
0.0
 11
1.317
 21
0.555447
 31
0.0
  0
LINE
  8
0
 62
     250
 10
1.317
 20
0.555447
 30
0.0
 11
1.3201
 21
0.537489
 31
0.0
  0
LINE
  8
0
 62
     250
 10
1.3201
 20
0.537489
 30
0.0
 11
1.32503
 21
0.520182
 31
0.0
  0
LINE
  8
0
 62
     250
 10
1.32503
 20
0.520182
 30
0.0
 11
1.33176
 21
0.503743
 31
0.0
  0
LINE
  8
0
 62
     250
 10
1.33176
 20
0.503743
 30
0.0
 11
1.34017
 21
0.488281
 31
0.0
  0
LINE
  8
0
 62
     250
 10
1.34017
 20
0.488281
 30
0.0
 11
1.35015
 21
0.47385
 31
0.0
  0
LINE
  8
0
 62
     250
 10
1.35015
 20
0.47385
 30
0.0
 11
1.36154
 21
0.460613
 31
0.0
  0
LINE
  8
0
 62
     250
 10
1.36154
 20
0.460613
 30
0.0
 11
1.37429
 21
0.448676
 31
0.0
  0
LINE
  8
0
 62
     250
 10
1.37429
 20
0.448676
 30
0.0
 11
1.37988
 21
0.45421
 31
0.0
  0
LINE
  8
0
 62
     250
 10
1.37988
 20
0.45421
 30
0.0
 11
1.39654
 21
0.470865
 31
0.0
  0
LINE
  8
0
 62
     250
 10
1.39654
 20
0.470865
 30
0.0
 11
1.40207
 21
0.476454
 31
0.0
  0
LINE
  8
0
 62
     250
 10
1.40207
 20
0.476454
 30
0.0
 11
1.40767
 21
0.481987
 31
0.0
  0
LINE
  8
0
 62
     250
 10
1.40767
 20
0.481987
 30
0.0
 11
1.41878
 21
0.493056
 31
0.0
  0
LINE
  8
0
 62
     250
 10
1.41878
 20
0.493056
 30
0.0
 11
1.41
 21
0.500489
 31
0.0
  0
LINE
  8
0
 62
     250
 10
1.41
 20
0.500489
 30
0.0
 11
1.40213
 21
0.508843
 31
0.0
  0
LINE
  8
0
 62
     250
 10
1.40213
 20
0.508843
 30
0.0
 11
1.39524
 21
0.518067
 31
0.0
  0
LINE
  8
0
 62
     250
 10
1.39524
 20
0.518067
 30
0.0
 11
1.38943
 21
0.528103
 31
0.0
  0
LINE
  8
0
 62
     250
 10
1.38943
 20
0.528103
 30
0.0
 11
1.38477
 21
0.538683
 31
0.0
  0
LINE
  8
0
 62
     250
 10
1.38477
 20
0.538683
 30
0.0
 11
1.38135
 21
0.550022
 31
0.0
  0
LINE
  8
0
 62
     250
 10
1.38135
 20
0.550022
 30
0.0
 11
1.37923
 21
0.561794
 31
0.0
  0
LINE
  8
0
 62
     250
 10
1.37923
 20
0.561794
 30
0.0
 11
1.37847
 21
0.574001
 31
0.0
  0
LINE
  8
0
 62
     250
 10
1.37847
 20
0.574001
 30
0.0
 11
1.38053
 21
0.594293
 31
0.0
  0
LINE
  8
0
 62
     250
 10
1.38053
 20
0.594293
 30
0.0
 11
1.38645
 21
0.613226
 31
0.0
  0
LINE
  8
0
 62
     250
 10
1.38645
 20
0.613226
 30
0.0
 11
1.39578
 21
0.630371
 31
0.0
  0
LINE
  8
0
 62
     250
 10
1.39578
 20
0.630371
 30
0.0
 11
1.4081
 21
0.645182
 31
0.0
  0
LINE
  8
0
 62
     250
 10
1.4081
 20
0.645182
 30
0.0
 11
1.42307
 21
0.657553
 31
0.0
  0
LINE
  8
0
 62
     250
 10
1.42307
 20
0.657553
 30
0.0
 11
1.44021
 21
0.666775
 31
0.0
  0
LINE
  8
0
 62
     250
 10
1.44021
 20
0.666775
 30
0.0
 11
1.45919
 21
0.672635
 31
0.0
  0
LINE
  8
0
 62
     250
 10
1.45919
 20
0.672635
 30
0.0
 11
1.47954
 21
0.674696
 31
0.0
  0
LINE
  8
0
 62
     250
 10
1.47954
 20
0.674696
 30
0.0
 11
1.49983
 21
0.672635
 31
0.0
  0
LINE
  8
0
 62
     250
 10
1.49983
 20
0.672635
 30
0.0
 11
1.51878
 21
0.666775
 31
0.0
  0
LINE
  8
0
 62
     250
 10
1.51878
 20
0.666775
 30
0.0
 11
1.53586
 21
0.657553
 31
0.0
  0
LINE
  8
0
 62
     250
 10
1.53586
 20
0.657553
 30
0.0
 11
1.55078
 21
0.645182
 31
0.0
  0
LINE
  8
0
 62
     250
 10
1.55078
 20
0.645182
 30
0.0
 11
1.56304
 21
0.630371
 31
0.0
  0
LINE
  8
0
 62
     250
 10
1.56304
 20
0.630371
 30
0.0
 11
1.57232
 21
0.613226
 31
0.0
  0
LINE
  8
0
 62
     250
 10
1.57232
 20
0.613226
 30
0.0
 11
1.57818
 21
0.594293
 31
0.0
  0
LINE
  8
0
 62
     250
 10
1.57818
 20
0.594293
 30
0.0
 11
1.58024
 21
0.574001
 31
0.0
  0
LINE
  8
0
 62
     250
 10
1.58024
 20
0.574001
 30
0.0
 11
1.57949
 21
0.561849
 31
0.0
  0
LINE
  8
0
 62
     250
 10
1.57949
 20
0.561849
 30
0.0
 11
1.57742
 21
0.550185
 31
0.0
  0
LINE
  8
0
 62
     250
 10
1.57742
 20
0.550185
 30
0.0
 11
1.57406
 21
0.539008
 31
0.0
  0
LINE
  8
0
 62
     250
 10
1.57406
 20
0.539008
 30
0.0
 11
1.5695
 21
0.528321
 31
0.0
  0
LINE
  8
0
 62
     250
 10
1.5695
 20
0.528321
 30
0.0
 11
1.56381
 21
0.518392
 31
0.0
  0
LINE
  8
0
 62
     250
 10
1.56381
 20
0.518392
 30
0.0
 11
1.55701
 21
0.509224
 31
0.0
  0
LINE
  8
0
 62
     250
 10
1.55701
 20
0.509224
 30
0.0
 11
1.54926
 21
0.500868
 31
0.0
  0
LINE
  8
0
 62
     250
 10
1.54926
 20
0.500868
 30
0.0
 11
1.54064
 21
0.493435
 31
0.0
  0
LINE
  8
0
 62
     250
 10
1.54064
 20
0.493435
 30
0.0
 11
1.54617
 21
0.487956
 31
0.0
  0
LINE
  8
0
 62
     250
 10
1.54617
 20
0.487956
 30
0.0
 11
1.55176
 21
0.482422
 31
0.0
  0
LINE
  8
0
 62
     250
 10
1.55176
 20
0.482422
 30
0.0
 11
1.55729
 21
0.476833
 31
0.0
  0
LINE
  8
0
 62
     250
 10
1.55729
 20
0.476833
 30
0.0
 11
1.56288
 21
0.471408
 31
0.0
  0
LINE
  8
0
 62
     250
 10
1.56288
 20
0.471408
 30
0.0
 11
1.56842
 21
0.465821
 31
0.0
  0
LINE
  8
0
 62
     250
 10
1.56842
 20
0.465821
 30
0.0
 11
1.57394
 21
0.460394
 31
0.0
  0
LINE
  8
0
 62
     250
 10
1.57394
 20
0.460394
 30
0.0
 11
1.57954
 21
0.454807
 31
0.0
  0
LINE
  8
0
 62
     250
 10
1.57954
 20
0.454807
 30
0.0
 11
1.58507
 21
0.449328
 31
0.0
  0
LINE
  8
0
 62
     250
 10
1.58507
 20
0.449328
 30
0.0
 11
1.59771
 21
0.461208
 31
0.0
  0
LINE
  8
0
 62
     250
 10
1.59771
 20
0.461208
 30
0.0
 11
1.609
 21
0.474447
 31
0.0
  0
LINE
  8
0
 62
     250
 10
1.609
 20
0.474447
 30
0.0
 11
1.61887
 21
0.488824
 31
0.0
  0
LINE
  8
0
 62
     250
 10
1.61887
 20
0.488824
 30
0.0
 11
1.62717
 21
0.504232
 31
0.0
  0
LINE
  8
0
 62
     250
 10
1.62717
 20
0.504232
 30
0.0
 11
1.63379
 21
0.520562
 31
0.0
  0
LINE
  8
0
 62
     250
 10
1.63379
 20
0.520562
 30
0.0
 11
1.63867
 21
0.537706
 31
0.0
  0
LINE
  8
0
 62
     250
 10
1.63867
 20
0.537706
 30
0.0
 11
1.64171
 21
0.555501
 31
0.0
  0
LINE
  8
0
 62
     250
 10
1.64171
 20
0.555501
 30
0.0
 11
1.64274
 21
0.574001
 31
0.0
  0
LINE
  8
0
 62
     250
 10
1.64274
 20
0.574001
 30
0.0
 11
1.64204
 21
0.588921
 31
0.0
  0
LINE
  8
0
 62
     250
 10
1.64204
 20
0.588921
 30
0.0
 11
1.64008
 21
0.603515
 31
0.0
  0
LINE
  8
0
 62
     250
 10
1.64008
 20
0.603515
 30
0.0
 11
1.63683
 21
0.617622
 31
0.0
  0
LINE
  8
0
 62
     250
 10
1.63683
 20
0.617622
 30
0.0
 11
1.63237
 21
0.631185
 31
0.0
  0
LINE
  8
0
 62
     250
 10
1.63237
 20
0.631185
 30
0.0
 11
1.62679
 21
0.64426
 31
0.0
  0
LINE
  8
0
 62
     250
 10
1.62679
 20
0.64426
 30
0.0
 11
1.62017
 21
0.656683
 31
0.0
  0
LINE
  8
0
 62
     250
 10
1.62017
 20
0.656683
 30
0.0
 11
1.61247
 21
0.668403
 31
0.0
  0
LINE
  8
0
 62
     250
 10
1.61247
 20
0.668403
 30
0.0
 11
1.60385
 21
0.679579
 31
0.0
  0
LINE
  8
0
 62
     250
 10
1.60385
 20
0.679579
 30
0.0
 11
1.60385
 21
1.47157
 31
0.0
  0
LINE
  8
0
 62
     250
 10
1.60385
 20
1.47157
 30
0.0
 11
1.60215
 21
1.48264
 31
0.0
  0
LINE
  8
0
 62
     250
 10
1.60215
 20
1.48264
 30
0.0
 11
1.59858
 21
1.493
 31
0.0
  0
LINE
  8
0
 62
     250
 10
1.59858
 20
1.493
 30
0.0
 11
1.59321
 21
1.50228
 31
0.0
  0
LINE
  8
0
 62
     250
 10
1.59321
 20
1.50228
 30
0.0
 11
1.58632
 21
1.51036
 31
0.0
  0
LINE
  8
0
 62
     250
 10
1.58632
 20
1.51036
 30
0.0
 11
1.57807
 21
1.51708
 31
0.0
  0
LINE
  8
0
 62
     250
 10
1.57807
 20
1.51708
 30
0.0
 11
1.56868
 21
1.52214
 31
0.0
  0
LINE
  8
0
 62
     250
 10
1.56868
 20
1.52214
 30
0.0
 11
1.55832
 21
1.52533
 31
0.0
  0
LINE
  8
0
 62
     250
 10
1.55832
 20
1.52533
 30
0.0
 11
1.54725
 21
1.52642
 31
0.0
  0
LINE
  8
0
 62
     250
 10
1.54725
 20
1.52642
 30
0.0
 11
1.23752
 21
1.52642
 31
0.0
  0
LINE
  8
0
 62
     250
 10
1.23752
 20
1.52642
 30
0.0
 11
1.23752
 21
2.12229
 31
0.0
  0
LINE
  8
0
 62
     250
 10
1.23752
 20
2.12229
 30
0.0
 11
1.23638
 21
2.13336
 31
0.0
  0
LINE
  8
0
 62
     250
 10
1.23638
 20
2.13336
 30
0.0
 11
1.23313
 21
2.14367
 31
0.0
  0
LINE
  8
0
 62
     250
 10
1.23313
 20
2.14367
 30
0.0
 11
1.22803
 21
2.15294
 31
0.0
  0
LINE
  8
0
 62
     250
 10
1.22803
 20
2.15294
 30
0.0
 11
1.2213
 21
2.16108
 31
0.0
  0
LINE
  8
0
 62
     250
 10
1.2213
 20
2.16108
 30
0.0
 11
1.21311
 21
2.16775
 31
0.0
  0
LINE
  8
0
 62
     250
 10
1.21311
 20
2.16775
 30
0.0
 11
1.20372
 21
2.17279
 31
0.0
  0
LINE
  8
0
 62
     250
 10
1.20372
 20
2.17279
 30
0.0
 11
1.19336
 21
2.176
 31
0.0
  0
LINE
  8
0
 62
     250
 10
1.19336
 20
2.176
 30
0.0
 11
1.18229
 21
2.17708
 31
0.0
  0
LINE
  8
0
 62
     250
 10
1.18229
 20
2.17708
 30
0.0
 11
1.01145
 21
2.17708
 31
0.0
  0
LINE
  8
0
 62
     250
 10
1.01145
 20
2.17708
 30
0.0
 11
1.0459
 21
2.22607
 31
0.0
  0
LINE
  8
0
 62
     250
 10
1.0459
 20
2.22607
 30
0.0
 11
1.08029
 21
2.27507
 31
0.0
  0
LINE
  8
0
 62
     250
 10
1.08029
 20
2.27507
 30
0.0
 11
1.11475
 21
2.324
 31
0.0
  0
LINE
  8
0
 62
     250
 10
1.11475
 20
2.324
 30
0.0
 11
1.14914
 21
2.37294
 31
0.0
  0
LINE
  8
0
 62
     250
 10
1.14914
 20
2.37294
 30
0.0
 11
1.18354
 21
2.42188
 31
0.0
  0
LINE
  8
0
 62
     250
 10
1.18354
 20
2.42188
 30
0.0
 11
1.21799
 21
2.47086
 31
0.0
  0
LINE
  8
0
 62
     250
 10
1.21799
 20
2.47086
 30
0.0
 11
1.25239
 21
2.51986
 31
0.0
  0
LINE
  8
0
 62
     250
 10
1.25239
 20
2.51986
 30
0.0
 11
1.28684
 21
2.56879
 31
0.0
  0
LINE
  8
0
 62
     250
 10
1.28684
 20
2.56879
 30
0.0
 11
1.24387
 21
2.60661
 31
0.0
  0
LINE
  8
0
 62
     250
 10
1.24387
 20
2.60661
 30
0.0
 11
1.19558
 21
2.64057
 31
0.0
  0
LINE
  8
0
 62
     250
 10
1.19558
 20
2.64057
 30
0.0
 11
1.14252
 21
2.67025
 31
0.0
  0
LINE
  8
0
 62
     250
 10
1.14252
 20
2.67025
 30
0.0
 11
1.08512
 21
2.69542
 31
0.0
  0
LINE
  8
0
 62
     250
 10
1.08512
 20
2.69542
 30
0.0
 11
1.02387
 21
2.71556
 31
0.0
  0
LINE
  8
0
 62
     250
 10
1.02387
 20
2.71556
 30
0.0
 11
0.959201
 21
2.73042
 31
0.0
  0
LINE
  8
0
 62
     250
 10
0.959201
 20
2.73042
 30
0.0
 11
0.891601
 21
2.73953
 31
0.0
  0
LINE
  8
0
 62
     250
 10
0.891601
 20
2.73953
 30
0.0
 11
0.821506
 21
2.74274
 31
0.0
  0
ENDSEC
  0
EOF
