  0
SECTION
  2
HEADER
  9
$ACADVER
  1
AC1009
  9
$EXTMIN
 10
0.0
 20
0.0
 30
0.0
  9
$EXTMAX
 10
1000.0
 20
1000.0
 30
0.0
  9
$FILLMODE
 70
 0
  9
$SPLFRAME
 70
 1
  0
ENDSEC
  0
SECTION
  2
TABLES
  0
TABLE
  2
LAYER
 70
1
  0
LAYER
  2
0
 70
     0
 62
     7
  6
CONTINUOUS
  0
ENDTAB
  0
ENDSEC
  0
SECTION
  2
ENTITIES
  0
LINE
  8
0
 62
     250
 10
0.821506
 20
2.74274
 30
0.0
 11
0.683594
 21
2.73042
 31
0.0
  0
LINE
  8
0
 62
     250
 10
0.683594
 20
2.73042
 30
0.0
 11
0.5574
 21
2.69536
 31
0.0
  0
LINE
  8
0
 62
     250
 10
0.5574
 20
2.69536
 30
0.0
 11
0.446778
 21
2.6404
 31
0.0
  0
LINE
  8
0
 62
     250
 10
0.446778
 20
2.6404
 30
0.0
 11
0.355578
 21
2.56842
 31
0.0
  0
LINE
  8
0
 62
     250
 10
0.355578
 20
2.56842
 30
0.0
 11
0.628797
 21
2.17703
 31
0.0
  0
LINE
  8
0
 62
     250
 10
0.628797
 20
2.17703
 30
0.0
 11
0.444769
 21
2.17703
 31
0.0
  0
LINE
  8
0
 62
     250
 10
0.444769
 20
2.17703
 30
0.0
 11
0.423449
 21
2.17275
 31
0.0
  0
LINE
  8
0
 62
     250
 10
0.423449
 20
2.17275
 30
0.0
 11
0.405979
 21
2.16103
 31
0.0
  0
LINE
  8
0
 62
     250
 10
0.405979
 20
2.16103
 30
0.0
 11
0.394206
 21
2.14367
 31
0.0
  0
LINE
  8
0
 62
     250
 10
0.394206
 20
2.14367
 30
0.0
 11
0.389919
 21
2.12224
 31
0.0
  0
LINE
  8
0
 62
     250
 10
0.389919
 20
2.12224
 30
0.0
 11
0.389919
 21
1.52642
 31
0.0
  0
LINE
  8
0
 62
     250
 10
0.389919
 20
1.52642
 30
0.0
 11
0.0954861
 21
1.52642
 31
0.0
  0
LINE
  8
0
 62
     250
 10
0.0954861
 20
1.52642
 30
0.0
 11
0.0740017
 21
1.52219
 31
0.0
  0
LINE
  8
0
 62
     250
 10
0.0740017
 20
1.52219
 30
0.0
 11
0.0563693
 21
1.51047
 31
0.0
  0
LINE
  8
0
 62
     250
 10
0.0563693
 20
1.51047
 30
0.0
 11
0.0441081
 21
1.49306
 31
0.0
  0
LINE
  8
0
 62
     250
 10
0.0441081
 20
1.49306
 30
0.0
 11
0.0388997
 21
1.47157
 31
0.0
  0
LINE
  8
0
 62
     250
 10
0.0388997
 20
1.47157
 30
0.0
 11
0.0388997
 21
0.679904
 31
0.0
  0
LINE
  8
0
 62
     250
 10
0.0388997
 20
0.679904
 30
0.0
 11
0.0103082
 21
0.631401
 31
0.0
  0
LINE
  8
0
 62
     250
 10
0.0103082
 20
0.631401
 30
0.0
 11
0
 21
0.574001
 31
0.0
  0
LINE
  8
0
 62
     250
 10
0
 20
0.574001
 30
0.0
 11
0.00406901
 21
0.537706
 31
0.0
  0
LINE
  8
0
 62
     250
 10
0.00406901
 20
0.537706
 30
0.0
 11
0.0157335
 21
0.504232
 31
0.0
  0
LINE
  8
0
 62
     250
 10
0.0157335
 20
0.504232
 30
0.0
 11
0.0339626
 21
0.474447
 31
0.0
  0
LINE
  8
0
 62
     250
 10
0.0339626
 20
0.474447
 30
0.0
 11
0.0579969
 21
0.449328
 31
0.0
  0
LINE
  8
0
 62
     250
 10
0.0579969
 20
0.449328
 30
0.0
 11
0.102431
 21
0.493761
 31
0.0
  0
LINE
  8
0
 62
     250
 10
0.102431
 20
0.493761
 30
0.0
 11
0.073405
 21
0.528537
 31
0.0
  0
LINE
  8
0
 62
     250
 10
0.073405
 20
0.528537
 30
0.0
 11
0.0625
 21
0.574001
 31
0.0
  0
LINE
  8
0
 62
     250
 10
0.0625
 20
0.574001
 30
0.0
 11
0.070421
 21
0.613336
 31
0.0
  0
LINE
  8
0
 62
     250
 10
0.070421
 20
0.613336
 30
0.0
 11
0.0920682
 21
0.645454
 31
0.0
  0
LINE
  8
0
 62
     250
 10
0.0920682
 20
0.645454
 30
0.0
 11
0.124186
 21
0.6671
 31
0.0
  0
LINE
  8
0
 62
     250
 10
0.124186
 20
0.6671
 30
0.0
 11
0.163519
 21
0.675022
 31
0.0
  0
LINE
  8
0
 62
     250
 10
0.163519
 20
0.675022
 30
0.0
 11
0.202746
 21
0.6671
 31
0.0
  0
LINE
  8
0
 62
     250
 10
0.202746
 20
0.6671
 30
0.0
 11
0.234754
 21
0.645454
 31
0.0
  0
LINE
  8
0
 62
     250
 10
0.234754
 20
0.645454
 30
0.0
 11
0.256293
 21
0.613336
 31
0.0
  0
LINE
  8
0
 62
     250
 10
0.256293
 20
0.613336
 30
0.0
 11
0.264214
 21
0.574001
 31
0.0
  0
LINE
  8
0
 62
     250
 10
0.264214
 20
0.574001
 30
0.0
 11
0.253256
 21
0.528267
 31
0.0
  0
LINE
  8
0
 62
     250
 10
0.253256
 20
0.528267
 30
0.0
 11
0.223958
 21
0.493435
 31
0.0
  0
LINE
  8
0
 62
     250
 10
0.223958
 20
0.493435
 30
0.0
 11
0.268392
 21
0.449001
 31
0.0
  0
LINE
  8
0
 62
     250
 10
0.268392
 20
0.449001
 30
0.0
 11
0.292535
 21
0.474175
 31
0.0
  0
LINE
  8
0
 62
     250
 10
0.292535
 20
0.474175
 30
0.0
 11
0.310926
 21
0.503961
 31
0.0
  0
LINE
  8
0
 62
     250
 10
0.310926
 20
0.503961
 30
0.0
 11
0.322592
 21
0.537543
 31
0.0
  0
LINE
  8
0
 62
     250
 10
0.322592
 20
0.537543
 30
0.0
 11
0.326714
 21
0.574001
 31
0.0
  0
LINE
  8
0
 62
     250
 10
0.326714
 20
0.574001
 30
0.0
 11
0.316351
 21
0.631347
 31
0.0
  0
LINE
  8
0
 62
     250
 10
0.316351
 20
0.631347
 30
0.0
 11
0.287869
 21
0.679904
 31
0.0
  0
LINE
  8
0
 62
     250
 10
0.287869
 20
0.679904
 30
0.0
 11
0.288194
 21
0.679904
 31
0.0
  0
LINE
  8
0
 62
     250
 10
0.288194
 20
0.679904
 30
0.0
 11
0.288194
 21
1.18745
 31
0.0
  0
LINE
  8
0
 62
     250
 10
0.288194
 20
1.18745
 30
0.0
 11
0.360081
 21
1.18745
 31
0.0
  0
LINE
  8
0
 62
     250
 10
0.360081
 20
1.18745
 30
0.0
 11
0.360081
 21
0.115289
 31
0.0
  0
LINE
  8
0
 62
     250
 10
0.360081
 20
0.115289
 30
0.0
 11
0.312825
 21
0.0878906
 31
0.0
  0
LINE
  8
0
 62
     250
 10
0.312825
 20
0.0878906
 30
0.0
 11
0.312825
 21
-5.42535e-05
 31
0.0
  0
LINE
  8
0
 62
     250
 10
0.312825
 20
-5.42535e-05
 30
0.0
 11
0.797581
 21
0.000705294
 31
0.0
  0
LINE
  8
0
 62
     250
 10
0.797581
 20
0.000705294
 30
0.0
 11
0.797581
 21
0.0878906
 31
0.0
  0
LINE
  8
0
 62
     250
 10
0.797581
 20
0.0878906
 30
0.0
 11
0.749294
 21
0.115289
 31
0.0
  0
LINE
  8
0
 62
     250
 10
0.749294
 20
0.115289
 30
0.0
 11
0.749294
 21
0.440647
 31
0.0
  0
LINE
  8
0
 62
     250
 10
0.749294
 20
0.440647
 30
0.0
 11
0.893392
 21
0.440647
 31
0.0
  0
LINE
  8
0
 62
     250
 10
0.893392
 20
0.440647
 30
0.0
 11
0.893392
 21
0.115289
 31
0.0
  0
LINE
  8
0
 62
     250
 10
0.893392
 20
0.115289
 30
0.0
 11
0.845161
 21
0.0878906
 31
0.0
  0
LINE
  8
0
 62
     250
 10
0.845161
 20
0.0878906
 30
0.0
 11
0.845161
 21
0.000705294
 31
0.0
  0
LINE
  8
0
 62
     250
 10
0.845161
 20
0.000705294
 30
0.0
 11
1.33089
 21
0.000705294
 31
0.0
  0
LINE
  8
0
 62
     250
 10
1.33089
 20
0.000705294
 30
0.0
 11
1.33089
 21
0.0878906
 31
0.0
  0
LINE
  8
0
 62
     250
 10
1.33089
 20
0.0878906
 30
0.0
 11
1.28266
 21
0.115289
 31
0.0
  0
LINE
  8
0
 62
     250
 10
1.28266
 20
0.115289
 30
0.0
 11
1.28266
 21
1.18745
 31
0.0
  0
LINE
  8
0
 62
     250
 10
1.28266
 20
1.18745
 30
0.0
 11
1.35449
 21
1.18745
 31
0.0
  0
LINE
  8
0
 62
     250
 10
1.35449
 20
1.18745
 30
0.0
 11
1.35449
 21
0.679525
 31
0.0
  0
LINE
  8
0
 62
     250
 10
1.35449
 20
0.679525
 30
0.0
 11
1.35487
 21
0.679525
 31
0.0
  0
LINE
  8
0
 62
     250
 10
1.35487
 20
0.679525
 30
0.0
 11
1.32628
 21
0.631185
 31
0.0
  0
LINE
  8
0
 62
     250
 10
1.32628
 20
0.631185
 30
0.0
 11
1.31597
 21
0.574001
 31
0.0
  0
LINE
  8
0
 62
     250
 10
1.31597
 20
0.574001
 30
0.0
 11
1.32004
 21
0.537489
 31
0.0
  0
LINE
  8
0
 62
     250
 10
1.32004
 20
0.537489
 30
0.0
 11
1.33176
 21
0.503743
 31
0.0
  0
LINE
  8
0
 62
     250
 10
1.33176
 20
0.503743
 30
0.0
 11
1.3501
 21
0.473796
 31
0.0
  0
LINE
  8
0
 62
     250
 10
1.3501
 20
0.473796
 30
0.0
 11
1.37429
 21
0.448622
 31
0.0
  0
LINE
  8
0
 62
     250
 10
1.37429
 20
0.448622
 30
0.0
 11
1.41872
 21
0.493001
 31
0.0
  0
LINE
  8
0
 62
     250
 10
1.41872
 20
0.493001
 30
0.0
 11
1.38938
 21
0.528049
 31
0.0
  0
LINE
  8
0
 62
     250
 10
1.38938
 20
0.528049
 30
0.0
 11
1.37847
 21
0.574001
 31
0.0
  0
LINE
  8
0
 62
     250
 10
1.37847
 20
0.574001
 30
0.0
 11
1.38639
 21
0.613281
 31
0.0
  0
LINE
  8
0
 62
     250
 10
1.38639
 20
0.613281
 30
0.0
 11
1.40804
 21
0.64529
 31
0.0
  0
LINE
  8
0
 62
     250
 10
1.40804
 20
0.64529
 30
0.0
 11
1.44015
 21
0.666829
 31
0.0
  0
LINE
  8
0
 62
     250
 10
1.44015
 20
0.666829
 30
0.0
 11
1.47949
 21
0.674696
 31
0.0
  0
LINE
  8
0
 62
     250
 10
1.47949
 20
0.674696
 30
0.0
 11
1.51872
 21
0.666829
 31
0.0
  0
LINE
  8
0
 62
     250
 10
1.51872
 20
0.666829
 30
0.0
 11
1.55072
 21
0.64529
 31
0.0
  0
LINE
  8
0
 62
     250
 10
1.55072
 20
0.64529
 30
0.0
 11
1.57226
 21
0.613281
 31
0.0
  0
LINE
  8
0
 62
     250
 10
1.57226
 20
0.613281
 30
0.0
 11
1.58018
 21
0.574001
 31
0.0
  0
LINE
  8
0
 62
     250
 10
1.58018
 20
0.574001
 30
0.0
 11
1.56944
 21
0.528375
 31
0.0
  0
LINE
  8
0
 62
     250
 10
1.56944
 20
0.528375
 30
0.0
 11
1.54064
 21
0.493435
 31
0.0
  0
LINE
  8
0
 62
     250
 10
1.54064
 20
0.493435
 30
0.0
 11
1.58507
 21
0.449328
 31
0.0
  0
LINE
  8
0
 62
     250
 10
1.58507
 20
0.449328
 30
0.0
 11
1.62711
 21
0.504232
 31
0.0
  0
LINE
  8
0
 62
     250
 10
1.62711
 20
0.504232
 30
0.0
 11
1.64268
 21
0.574001
 31
0.0
  0
LINE
  8
0
 62
     250
 10
1.64268
 20
0.574001
 30
0.0
 11
1.63237
 21
0.631185
 31
0.0
  0
LINE
  8
0
 62
     250
 10
1.63237
 20
0.631185
 30
0.0
 11
1.60385
 21
0.679525
 31
0.0
  0
LINE
  8
0
 62
     250
 10
1.60385
 20
0.679525
 30
0.0
 11
1.60385
 21
1.47157
 31
0.0
  0
LINE
  8
0
 62
     250
 10
1.60385
 20
1.47157
 30
0.0
 11
1.59853
 21
1.49306
 31
0.0
  0
LINE
  8
0
 62
     250
 10
1.59853
 20
1.49306
 30
0.0
 11
1.58626
 21
1.51047
 31
0.0
  0
LINE
  8
0
 62
     250
 10
1.58626
 20
1.51047
 30
0.0
 11
1.56863
 21
1.52219
 31
0.0
  0
LINE
  8
0
 62
     250
 10
1.56863
 20
1.52219
 30
0.0
 11
1.54719
 21
1.52642
 31
0.0
  0
LINE
  8
0
 62
     250
 10
1.54719
 20
1.52642
 30
0.0
 11
1.23752
 21
1.52642
 31
0.0
  0
LINE
  8
0
 62
     250
 10
1.23752
 20
1.52642
 30
0.0
 11
1.23752
 21
2.12224
 31
0.0
  0
LINE
  8
0
 62
     250
 10
1.23752
 20
2.12224
 30
0.0
 11
1.23313
 21
2.14367
 31
0.0
  0
LINE
  8
0
 62
     250
 10
1.23313
 20
2.14367
 30
0.0
 11
1.22125
 21
2.16103
 31
0.0
  0
LINE
  8
0
 62
     250
 10
1.22125
 20
2.16103
 30
0.0
 11
1.20367
 21
2.17275
 31
0.0
  0
LINE
  8
0
 62
     250
 10
1.20367
 20
2.17275
 30
0.0
 11
1.18229
 21
2.17703
 31
0.0
  0
LINE
  8
0
 62
     250
 10
1.18229
 20
2.17703
 30
0.0
 11
1.01215
 21
2.17703
 31
0.0
  0
LINE
  8
0
 62
     250
 10
1.01215
 20
2.17703
 30
0.0
 11
1.28678
 21
2.56879
 31
0.0
  0
LINE
  8
0
 62
     250
 10
1.28678
 20
2.56879
 30
0.0
 11
1.19553
 21
2.64057
 31
0.0
  0
LINE
  8
0
 62
     250
 10
1.19553
 20
2.64057
 30
0.0
 11
1.08507
 21
2.69542
 31
0.0
  0
LINE
  8
0
 62
     250
 10
1.08507
 20
2.69542
 30
0.0
 11
0.959147
 21
2.73042
 31
0.0
  0
LINE
  8
0
 62
     250
 10
0.959147
 20
2.73042
 30
0.0
 11
0.821506
 21
2.74274
 31
0.0
  0
LINE
  8
0
 62
     250
 10
0.82156
 20
2.34896
 30
0.0
 11
0.962403
 21
2.32428
 31
0.0
  0
LINE
  8
0
 62
     250
 10
0.962403
 20
2.32428
 30
0.0
 11
1.06988
 21
2.25906
 31
0.0
  0
LINE
  8
0
 62
     250
 10
1.06988
 20
2.25906
 30
0.0
 11
1.11437
 21
2.32243
 31
0.0
  0
LINE
  8
0
 62
     250
 10
1.11437
 20
2.32243
 30
0.0
 11
1.05545
 21
2.36507
 31
0.0
  0
LINE
  8
0
 62
     250
 10
1.05545
 20
2.36507
 30
0.0
 11
0.985622
 21
2.39751
 31
0.0
  0
LINE
  8
0
 62
     250
 10
0.985622
 20
2.39751
 30
0.0
 11
0.906956
 21
2.41812
 31
0.0
  0
LINE
  8
0
 62
     250
 10
0.906956
 20
2.41812
 30
0.0
 11
0.82156
 21
2.42535
 31
0.0
  0
LINE
  8
0
 62
     250
 10
0.82156
 20
2.42535
 30
0.0
 11
0.735894
 21
2.41812
 31
0.0
  0
LINE
  8
0
 62
     250
 10
0.735894
 20
2.41812
 30
0.0
 11
0.65701
 21
2.3974
 31
0.0
  0
LINE
  8
0
 62
     250
 10
0.65701
 20
2.3974
 30
0.0
 11
0.587076
 21
2.36481
 31
0.0
  0
LINE
  8
0
 62
     250
 10
0.587076
 20
2.36481
 30
0.0
 11
0.528157
 21
2.32194
 31
0.0
  0
LINE
  8
0
 62
     250
 10
0.528157
 20
2.32194
 30
0.0
 11
0.572592
 21
2.25851
 31
0.0
  0
LINE
  8
0
 62
     250
 10
0.572592
 20
2.25851
 30
0.0
 11
0.680176
 21
2.32417
 31
0.0
  0
LINE
  8
0
 62
     250
 10
0.680176
 20
2.32417
 30
0.0
 11
0.82156
 21
2.34896
 31
0.0
  0
ENDSEC
  0
EOF
